%TF.GenerationSoftware,Altium Limited,Altium Designer,25.1.2 (22)*%
G04 Layer_Physical_Order=2*
G04 Layer_Color=16711680*
%FSLAX45Y45*%
%MOMM*%
%TF.SameCoordinates,14A8493B-8770-4FEB-B4FF-2697345FB558*%
%TF.FilePolarity,Positive*%
%TF.FileFunction,Copper,L2,Bot,Signal*%
%TF.Part,Single*%
G01*
G75*
%TA.AperFunction,ConnectorPad*%
%ADD10R,5.08000X2.41300*%
%TA.AperFunction,SMDPad,CuDef*%
%ADD12R,5.08000X2.41300*%
%TA.AperFunction,ComponentPad*%
%ADD27C,0.81000*%
%ADD28C,3.50000*%
%TA.AperFunction,ViaPad*%
%ADD29C,4.00000*%
%ADD30C,1.00000*%
%ADD31C,2.00000*%
%TA.AperFunction,SMDPad,CuDef*%
%ADD32R,2.30000X0.75000*%
%ADD33R,2.30000X0.25000*%
%ADD34R,0.85000X0.30000*%
%ADD35R,0.30000X0.85000*%
%ADD36R,3.10000X3.10000*%
%ADD37C,1.50000*%
%TA.AperFunction,Conductor*%
%ADD38C,0.15000*%
%ADD39C,0.50000*%
%ADD40C,1.00000*%
G36*
X6774103Y0D02*
X3225898D01*
Y3448819D01*
X3238598Y3451345D01*
X3247408Y3430075D01*
X3269339Y3397252D01*
X3297253Y3369339D01*
X3330075Y3347408D01*
X3366546Y3332301D01*
X3405263Y3324600D01*
X3444738D01*
X3483455Y3332301D01*
X3519925Y3347408D01*
X3552748Y3369339D01*
X3580661Y3397252D01*
X3602592Y3430075D01*
X3617699Y3466545D01*
X3625400Y3505262D01*
Y3544737D01*
X3617699Y3583454D01*
X3602592Y3619925D01*
X3580661Y3652747D01*
X3552748Y3680661D01*
X3519925Y3702592D01*
X3483455Y3717699D01*
X3444738Y3725400D01*
X3405263D01*
X3366546Y3717699D01*
X3330075Y3702592D01*
X3297253Y3680661D01*
X3269339Y3652747D01*
X3247408Y3619925D01*
X3238598Y3598655D01*
X3225898Y3601181D01*
Y7248819D01*
X3238598Y7251345D01*
X3247408Y7230075D01*
X3269339Y7197252D01*
X3297253Y7169339D01*
X3330075Y7147408D01*
X3366546Y7132301D01*
X3405263Y7124600D01*
X3444738D01*
X3483455Y7132301D01*
X3519925Y7147408D01*
X3552748Y7169339D01*
X3580661Y7197252D01*
X3602592Y7230075D01*
X3617699Y7266545D01*
X3625400Y7305262D01*
Y7344737D01*
X3617699Y7383454D01*
X3602592Y7419925D01*
X3580661Y7452747D01*
X3552748Y7480661D01*
X3519925Y7502592D01*
X3483455Y7517699D01*
X3444738Y7525400D01*
X3405263D01*
X3366546Y7517699D01*
X3330075Y7502592D01*
X3297253Y7480661D01*
X3269339Y7452747D01*
X3247408Y7419925D01*
X3238598Y7398655D01*
X3225898Y7401181D01*
Y10000000D01*
X6774103D01*
Y0D01*
D02*
G37*
G36*
X10000000D02*
X7025898D01*
Y10000000D01*
X10000000D01*
Y0D01*
D02*
G37*
G36*
X2974103D02*
X0D01*
Y10000000D01*
X2974103D01*
Y0D01*
D02*
G37*
%LPC*%
G36*
X6425400Y9944271D02*
X3529329D01*
Y9455728D01*
X6425400D01*
Y9944271D01*
D02*
G37*
G36*
X5013218Y9100400D02*
X4986782D01*
X4961247Y9093558D01*
X4938353Y9080340D01*
X4934064Y9076051D01*
X4065936D01*
X4061647Y9080340D01*
X4038753Y9093558D01*
X4013218Y9100400D01*
X3986782D01*
X3961247Y9093558D01*
X3938353Y9080340D01*
X3919660Y9061647D01*
X3906442Y9038753D01*
X3899600Y9013218D01*
Y8986782D01*
X3906442Y8961247D01*
X3919660Y8938353D01*
X3938353Y8919660D01*
X3961247Y8906442D01*
X3986782Y8899600D01*
X4013218D01*
X4038753Y8906442D01*
X4061647Y8919660D01*
X4065936Y8923949D01*
X4934064D01*
X4938353Y8919660D01*
X4961247Y8906442D01*
X4986782Y8899600D01*
X5013218D01*
X5038753Y8906442D01*
X5061647Y8919660D01*
X5080340Y8938353D01*
X5093558Y8961247D01*
X5100400Y8986782D01*
Y9013218D01*
X5093558Y9038753D01*
X5080340Y9061647D01*
X5061647Y9080340D01*
X5038753Y9093558D01*
X5013218Y9100400D01*
D02*
G37*
G36*
X5013218Y8800400D02*
X4986782D01*
X4961247Y8793558D01*
X4938353Y8780340D01*
X4919660Y8761647D01*
X4913737Y8751387D01*
X4086264D01*
X4080340Y8761647D01*
X4061647Y8780340D01*
X4038753Y8793558D01*
X4013218Y8800400D01*
X3986782D01*
X3961247Y8793558D01*
X3938353Y8780340D01*
X3919660Y8761647D01*
X3906442Y8738753D01*
X3899600Y8713218D01*
Y8686782D01*
X3906442Y8661247D01*
X3919660Y8638353D01*
X3938353Y8619660D01*
X3961247Y8606442D01*
X3986782Y8599600D01*
X4013218D01*
X4038753Y8606442D01*
X4061647Y8619660D01*
X4080340Y8638353D01*
X4086264Y8648613D01*
X4913737D01*
X4919660Y8638353D01*
X4938353Y8619660D01*
X4961247Y8606442D01*
X4986782Y8599600D01*
X5013218D01*
X5038753Y8606442D01*
X5061647Y8619660D01*
X5080340Y8638353D01*
X5093558Y8661247D01*
X5100400Y8686782D01*
Y8713218D01*
X5093558Y8738753D01*
X5080340Y8761647D01*
X5061647Y8780340D01*
X5038753Y8793558D01*
X5013218Y8800400D01*
D02*
G37*
G36*
X5013219Y8500400D02*
X4986784D01*
X4961248Y8493558D01*
X4938354Y8480340D01*
X4919661Y8461647D01*
X4906444Y8438753D01*
X4905048Y8433544D01*
X4094955D01*
X4093559Y8438753D01*
X4080341Y8461647D01*
X4061648Y8480340D01*
X4038754Y8493558D01*
X4013219Y8500400D01*
X3986783D01*
X3961248Y8493558D01*
X3938354Y8480340D01*
X3919661Y8461647D01*
X3906444Y8438753D01*
X3899602Y8413218D01*
Y8386782D01*
X3906444Y8361247D01*
X3919661Y8338353D01*
X3938354Y8319660D01*
X3961248Y8306442D01*
X3986783Y8299600D01*
X4013219D01*
X4038754Y8306442D01*
X4061648Y8319660D01*
X4080341Y8338353D01*
X4093559Y8361247D01*
X4094955Y8366455D01*
X4905048D01*
X4906444Y8361247D01*
X4919661Y8338353D01*
X4938354Y8319660D01*
X4961248Y8306442D01*
X4986784Y8299600D01*
X5013219D01*
X5038754Y8306442D01*
X5061648Y8319660D01*
X5080341Y8338353D01*
X5093559Y8361247D01*
X5100401Y8386782D01*
Y8413218D01*
X5093559Y8438753D01*
X5080341Y8461647D01*
X5061648Y8480340D01*
X5038754Y8493558D01*
X5013219Y8500400D01*
D02*
G37*
G36*
X6013220Y8200400D02*
X5986784D01*
X5961249Y8193558D01*
X5938355Y8180340D01*
X5934066Y8176050D01*
X4065938D01*
X4061649Y8180340D01*
X4038755Y8193558D01*
X4013220Y8200400D01*
X3986784D01*
X3961249Y8193558D01*
X3938355Y8180340D01*
X3919662Y8161647D01*
X3906444Y8138753D01*
X3899602Y8113218D01*
Y8086782D01*
X3906444Y8061247D01*
X3919662Y8038353D01*
X3938355Y8019660D01*
X3961249Y8006442D01*
X3986784Y7999600D01*
X4013220D01*
X4038755Y8006442D01*
X4061649Y8019660D01*
X4065938Y8023949D01*
X5934066D01*
X5938355Y8019660D01*
X5961249Y8006442D01*
X5986784Y7999600D01*
X6013220D01*
X6038755Y8006442D01*
X6061649Y8019660D01*
X6080342Y8038353D01*
X6093560Y8061247D01*
X6100402Y8086782D01*
Y8113218D01*
X6093560Y8138753D01*
X6080342Y8161647D01*
X6061649Y8180340D01*
X6038755Y8193558D01*
X6013220Y8200400D01*
D02*
G37*
G36*
X6013220Y7900400D02*
X5986784D01*
X5961249Y7893558D01*
X5938355Y7880340D01*
X5919662Y7861647D01*
X5913739Y7851387D01*
X4086249D01*
X4080329Y7861642D01*
X4061636Y7880335D01*
X4038742Y7893553D01*
X4013207Y7900395D01*
X3986771D01*
X3961236Y7893553D01*
X3938342Y7880335D01*
X3919649Y7861642D01*
X3906431Y7838748D01*
X3899589Y7813213D01*
Y7786777D01*
X3906431Y7761242D01*
X3919649Y7738348D01*
X3938342Y7719655D01*
X3961236Y7706437D01*
X3986771Y7699595D01*
X4013207D01*
X4038742Y7706437D01*
X4061636Y7719655D01*
X4080329Y7738348D01*
X4086255Y7748613D01*
X5913739D01*
X5919662Y7738353D01*
X5938355Y7719660D01*
X5961249Y7706442D01*
X5986784Y7699600D01*
X6013220D01*
X6038755Y7706442D01*
X6061649Y7719660D01*
X6080342Y7738353D01*
X6093560Y7761247D01*
X6100402Y7786782D01*
Y7813218D01*
X6093560Y7838753D01*
X6080342Y7861647D01*
X6061649Y7880340D01*
X6038755Y7893558D01*
X6013220Y7900400D01*
D02*
G37*
G36*
X6013221Y7600400D02*
X5986785D01*
X5961250Y7593558D01*
X5938356Y7580340D01*
X5919663Y7561647D01*
X5906445Y7538753D01*
X5905049Y7533544D01*
X4094956D01*
X4093561Y7538753D01*
X4080343Y7561647D01*
X4061650Y7580340D01*
X4038756Y7593558D01*
X4013221Y7600400D01*
X3986785D01*
X3961250Y7593558D01*
X3938356Y7580340D01*
X3919663Y7561647D01*
X3906445Y7538753D01*
X3899603Y7513218D01*
Y7486782D01*
X3906445Y7461247D01*
X3919663Y7438353D01*
X3938356Y7419660D01*
X3961250Y7406442D01*
X3986785Y7399600D01*
X4013221D01*
X4038756Y7406442D01*
X4061650Y7419660D01*
X4080343Y7438353D01*
X4093561Y7461247D01*
X4094956Y7466455D01*
X5905049D01*
X5906445Y7461247D01*
X5919663Y7438353D01*
X5938356Y7419660D01*
X5961250Y7406442D01*
X5986785Y7399600D01*
X6013221D01*
X6038756Y7406442D01*
X6061650Y7419660D01*
X6080343Y7438353D01*
X6093561Y7461247D01*
X6100403Y7486782D01*
Y7513218D01*
X6093561Y7538753D01*
X6080343Y7561647D01*
X6061650Y7580340D01*
X6038756Y7593558D01*
X6013221Y7600400D01*
D02*
G37*
G36*
X6544738Y7525400D02*
X6505263D01*
X6466546Y7517699D01*
X6430075Y7502592D01*
X6397253Y7480661D01*
X6369339Y7452747D01*
X6347408Y7419925D01*
X6332301Y7383454D01*
X6324600Y7344737D01*
Y7305262D01*
X6332301Y7266545D01*
X6347408Y7230075D01*
X6369339Y7197252D01*
X6397253Y7169339D01*
X6430075Y7147408D01*
X6466546Y7132301D01*
X6505263Y7124600D01*
X6544738D01*
X6583455Y7132301D01*
X6619925Y7147408D01*
X6652748Y7169339D01*
X6680661Y7197252D01*
X6702592Y7230075D01*
X6717699Y7266545D01*
X6725400Y7305262D01*
Y7344737D01*
X6717699Y7383454D01*
X6702592Y7419925D01*
X6680661Y7452747D01*
X6652748Y7480661D01*
X6619925Y7502592D01*
X6583455Y7517699D01*
X6544738Y7525400D01*
D02*
G37*
G36*
X5265400Y6062900D02*
X4634600D01*
Y5965400D01*
X4537100D01*
Y5884600D01*
Y5834600D01*
Y5734600D01*
Y5634600D01*
Y5534600D01*
Y5434600D01*
Y5334600D01*
X4634600D01*
Y5237100D01*
X5265400D01*
Y5334600D01*
X5362900D01*
Y5384600D01*
Y5484600D01*
Y5584600D01*
Y5684600D01*
Y5784600D01*
Y5884600D01*
Y5965400D01*
X5265400D01*
Y6062900D01*
D02*
G37*
G36*
X6670400Y6987900D02*
X6389600D01*
Y6862100D01*
Y6762100D01*
Y6662100D01*
Y6562100D01*
Y6462100D01*
Y6362100D01*
Y6262100D01*
Y6162100D01*
Y6062100D01*
Y5962100D01*
Y5862100D01*
Y5762100D01*
Y5662100D01*
Y5562100D01*
Y5462100D01*
Y5362100D01*
Y5262100D01*
Y5162100D01*
Y5062100D01*
Y4962100D01*
Y4862100D01*
Y4762100D01*
Y4662100D01*
Y4562100D01*
Y4462100D01*
Y4362100D01*
Y4262100D01*
Y4162100D01*
Y4062100D01*
Y3962100D01*
Y3862100D01*
X6670400D01*
Y3962100D01*
Y4062100D01*
Y4162100D01*
Y4262100D01*
Y4362100D01*
Y4462100D01*
Y4562100D01*
Y4662100D01*
Y4762100D01*
Y4862100D01*
Y4962100D01*
Y5062100D01*
Y5162100D01*
Y5262100D01*
Y5362100D01*
Y5462100D01*
Y5562100D01*
Y5662100D01*
Y5762100D01*
Y5862100D01*
Y5962100D01*
Y6062100D01*
Y6162100D01*
Y6262100D01*
Y6362100D01*
Y6462100D01*
Y6562100D01*
Y6662100D01*
Y6762100D01*
Y6862100D01*
Y6987900D01*
D02*
G37*
G36*
X6340400D02*
X6059600D01*
Y6862100D01*
Y6762100D01*
Y6662100D01*
Y6562100D01*
Y6462100D01*
Y6362100D01*
Y6262100D01*
Y6162100D01*
Y6062100D01*
Y5962100D01*
Y5862100D01*
Y5762100D01*
Y5662100D01*
Y5562100D01*
Y5462100D01*
Y5362100D01*
Y5262100D01*
Y5162100D01*
Y5062100D01*
Y4962100D01*
Y4862100D01*
Y4762100D01*
Y4662100D01*
Y4562100D01*
Y4462100D01*
Y4362100D01*
Y4262100D01*
Y4162100D01*
Y4062100D01*
Y3962100D01*
Y3862100D01*
X6340400D01*
Y3962100D01*
Y4062100D01*
Y4162100D01*
Y4262100D01*
Y4362100D01*
Y4462100D01*
Y4562100D01*
Y4662100D01*
Y4762100D01*
Y4862100D01*
Y4962100D01*
Y5062100D01*
Y5162100D01*
Y5262100D01*
Y5362100D01*
Y5462100D01*
Y5562100D01*
Y5662100D01*
Y5762100D01*
Y5862100D01*
Y5962100D01*
Y6062100D01*
Y6162100D01*
Y6262100D01*
Y6362100D01*
Y6462100D01*
Y6562100D01*
Y6662100D01*
Y6762100D01*
Y6862100D01*
Y6987900D01*
D02*
G37*
G36*
X3890400D02*
X3609600D01*
Y6862100D01*
Y6762100D01*
Y6662100D01*
Y6562100D01*
Y6462100D01*
Y6362100D01*
Y6262100D01*
Y6162100D01*
Y6062100D01*
Y5962100D01*
Y5862100D01*
Y5762100D01*
Y5662100D01*
Y5562100D01*
Y5462100D01*
Y5362100D01*
Y5262100D01*
Y5162100D01*
Y5062100D01*
Y4962100D01*
Y4862100D01*
Y4762100D01*
Y4662100D01*
Y4562100D01*
Y4462100D01*
Y4362100D01*
Y4262100D01*
Y4162100D01*
Y4062100D01*
Y3962100D01*
Y3862100D01*
X3890400D01*
Y3962100D01*
Y4062100D01*
Y4162100D01*
Y4262100D01*
Y4362100D01*
Y4462100D01*
Y4562100D01*
Y4662100D01*
Y4762100D01*
Y4862100D01*
Y4962100D01*
Y5062100D01*
Y5162100D01*
Y5262100D01*
Y5362100D01*
Y5462100D01*
Y5562100D01*
Y5662100D01*
Y5762100D01*
Y5862100D01*
Y5962100D01*
Y6062100D01*
Y6162100D01*
Y6262100D01*
Y6362100D01*
Y6462100D01*
Y6562100D01*
Y6662100D01*
Y6762100D01*
Y6862100D01*
Y6987900D01*
D02*
G37*
G36*
X3473676Y7095900D02*
X3456324D01*
X3439564Y7091409D01*
X3424536Y7082733D01*
X3412267Y7070464D01*
X3403591Y7055436D01*
X3399100Y7038676D01*
Y7021324D01*
X3403591Y7004563D01*
X3405879Y7000600D01*
X3398547Y6987900D01*
X3279600D01*
Y6862100D01*
Y6762100D01*
Y6662100D01*
Y6562100D01*
Y6462100D01*
Y6362100D01*
Y6262100D01*
Y6162100D01*
Y6062100D01*
Y5962100D01*
Y5862100D01*
Y5762100D01*
Y5662100D01*
Y5562100D01*
Y5462100D01*
Y5362100D01*
Y5262100D01*
Y5162100D01*
Y5062100D01*
Y4962100D01*
Y4862100D01*
Y4762100D01*
Y4662100D01*
Y4562100D01*
Y4462100D01*
Y4362100D01*
Y4262100D01*
Y4162100D01*
Y4062100D01*
Y3962100D01*
Y3862100D01*
X3398547D01*
X3405879Y3849400D01*
X3403591Y3845436D01*
X3399100Y3828676D01*
Y3811324D01*
X3403591Y3794563D01*
X3412267Y3779536D01*
X3424536Y3767267D01*
X3439564Y3758591D01*
X3456324Y3754100D01*
X3473676D01*
X3490437Y3758591D01*
X3505464Y3767267D01*
X3517733Y3779536D01*
X3526409Y3794563D01*
X3530900Y3811324D01*
Y3828676D01*
X3526409Y3845436D01*
X3524121Y3849399D01*
X3531453Y3862100D01*
X3560400D01*
Y3962100D01*
Y4062100D01*
Y4162100D01*
Y4262100D01*
Y4362100D01*
Y4462100D01*
Y4562100D01*
Y4662100D01*
Y4762100D01*
Y4862100D01*
Y4962100D01*
Y5062100D01*
Y5162100D01*
Y5262100D01*
Y5362100D01*
Y5462100D01*
Y5562100D01*
Y5662100D01*
Y5762100D01*
Y5862100D01*
Y5962100D01*
Y6062100D01*
Y6162100D01*
Y6262100D01*
Y6362100D01*
Y6462100D01*
Y6562100D01*
Y6662100D01*
Y6762100D01*
Y6862100D01*
Y6987900D01*
X3531453D01*
X3524121Y7000600D01*
X3526409Y7004563D01*
X3530900Y7021324D01*
Y7038676D01*
X3526409Y7055436D01*
X3517733Y7070464D01*
X3505464Y7082733D01*
X3490437Y7091409D01*
X3473676Y7095900D01*
D02*
G37*
G36*
X6544738Y3725400D02*
X6505263D01*
X6466546Y3717699D01*
X6430075Y3702592D01*
X6397253Y3680661D01*
X6369339Y3652747D01*
X6347408Y3619925D01*
X6332301Y3583454D01*
X6324600Y3544737D01*
Y3505262D01*
X6332301Y3466545D01*
X6347408Y3430075D01*
X6369339Y3397252D01*
X6397253Y3369339D01*
X6430075Y3347408D01*
X6466546Y3332301D01*
X6505263Y3324600D01*
X6544738D01*
X6583455Y3332301D01*
X6619925Y3347408D01*
X6652748Y3369339D01*
X6680661Y3397252D01*
X6702592Y3430075D01*
X6717699Y3466545D01*
X6725400Y3505262D01*
Y3544737D01*
X6717699Y3583454D01*
X6702592Y3619925D01*
X6680661Y3652747D01*
X6652748Y3680661D01*
X6619925Y3702592D01*
X6583455Y3717699D01*
X6544738Y3725400D01*
D02*
G37*
G36*
X5316509Y3125400D02*
X5283491D01*
X5251598Y3116854D01*
X5223003Y3100345D01*
X5199655Y3076997D01*
X5183146Y3048403D01*
X5174600Y3016509D01*
Y2983491D01*
X5183146Y2951598D01*
X5199655Y2923003D01*
X5223003Y2899655D01*
X5251598Y2883146D01*
X5262672Y2880178D01*
X5264467Y2866550D01*
X5253703Y2860335D01*
X5239665Y2846297D01*
X5229738Y2829103D01*
X5224600Y2809927D01*
Y2790073D01*
X5229738Y2770897D01*
X5239665Y2753703D01*
X5253703Y2739665D01*
X5270897Y2729738D01*
X5290073Y2724600D01*
X5309927D01*
X5329103Y2729738D01*
X5346297Y2739665D01*
X5360335Y2753703D01*
X5370262Y2770897D01*
X5375400Y2790073D01*
Y2809927D01*
X5370262Y2829103D01*
X5360335Y2846297D01*
X5346297Y2860335D01*
X5335533Y2866550D01*
X5337328Y2880178D01*
X5348403Y2883146D01*
X5376997Y2899655D01*
X5400345Y2923003D01*
X5416854Y2951598D01*
X5425400Y2983491D01*
Y3016509D01*
X5416854Y3048403D01*
X5400345Y3076997D01*
X5376997Y3100345D01*
X5348403Y3116854D01*
X5316509Y3125400D01*
D02*
G37*
G36*
X5016509D02*
X4983491D01*
X4951597Y3116854D01*
X4923003Y3100345D01*
X4899655Y3076997D01*
X4883146Y3048403D01*
X4874600Y3016509D01*
Y2983491D01*
X4883146Y2951598D01*
X4899655Y2923003D01*
X4923003Y2899655D01*
X4951597Y2883146D01*
X4962672Y2880178D01*
X4964467Y2866550D01*
X4953703Y2860335D01*
X4939665Y2846297D01*
X4929738Y2829103D01*
X4924600Y2809927D01*
Y2790073D01*
X4929738Y2770897D01*
X4939665Y2753703D01*
X4953703Y2739665D01*
X4970897Y2729738D01*
X4990073Y2724600D01*
X5009926D01*
X5029103Y2729738D01*
X5046296Y2739665D01*
X5060335Y2753703D01*
X5070262Y2770897D01*
X5075400Y2790073D01*
Y2809927D01*
X5070262Y2829103D01*
X5060335Y2846297D01*
X5046296Y2860335D01*
X5035533Y2866550D01*
X5037327Y2880178D01*
X5048402Y2883146D01*
X5076997Y2899655D01*
X5100345Y2923003D01*
X5116854Y2951598D01*
X5125400Y2983491D01*
Y3016509D01*
X5116854Y3048403D01*
X5100345Y3076997D01*
X5076997Y3100345D01*
X5048402Y3116854D01*
X5016509Y3125400D01*
D02*
G37*
G36*
X4716509D02*
X4683491D01*
X4651597Y3116854D01*
X4623002Y3100345D01*
X4599655Y3076997D01*
X4583146Y3048403D01*
X4574600Y3016509D01*
Y2983491D01*
X4583146Y2951598D01*
X4599655Y2923003D01*
X4623002Y2899655D01*
X4651597Y2883146D01*
X4662672Y2880178D01*
X4664466Y2866550D01*
X4653703Y2860335D01*
X4639665Y2846297D01*
X4629738Y2829103D01*
X4624600Y2809927D01*
Y2790073D01*
X4629738Y2770897D01*
X4639665Y2753703D01*
X4653703Y2739665D01*
X4670896Y2729738D01*
X4690073Y2724600D01*
X4709926D01*
X4729103Y2729738D01*
X4746296Y2739665D01*
X4760335Y2753703D01*
X4770261Y2770897D01*
X4775400Y2790073D01*
Y2809927D01*
X4770261Y2829103D01*
X4760335Y2846297D01*
X4746296Y2860335D01*
X4735533Y2866550D01*
X4737327Y2880178D01*
X4748402Y2883146D01*
X4776997Y2899655D01*
X4800345Y2923003D01*
X4816854Y2951598D01*
X4825400Y2983491D01*
Y3016509D01*
X4816854Y3048403D01*
X4800345Y3076997D01*
X4776997Y3100345D01*
X4748402Y3116854D01*
X4716509Y3125400D01*
D02*
G37*
G36*
X4416509D02*
X4383490D01*
X4351597Y3116854D01*
X4323002Y3100345D01*
X4299655Y3076997D01*
X4283145Y3048403D01*
X4274600Y3016509D01*
Y2983491D01*
X4283145Y2951598D01*
X4299655Y2923003D01*
X4323002Y2899655D01*
X4351597Y2883146D01*
X4362672Y2880178D01*
X4364466Y2866550D01*
X4353703Y2860335D01*
X4339664Y2846297D01*
X4329738Y2829103D01*
X4324600Y2809927D01*
Y2790073D01*
X4329738Y2770897D01*
X4339664Y2753703D01*
X4353703Y2739665D01*
X4370896Y2729738D01*
X4390073Y2724600D01*
X4409926D01*
X4429103Y2729738D01*
X4446296Y2739665D01*
X4460335Y2753703D01*
X4470261Y2770897D01*
X4475399Y2790073D01*
Y2809927D01*
X4470261Y2829103D01*
X4460335Y2846297D01*
X4446296Y2860335D01*
X4435533Y2866550D01*
X4437327Y2880178D01*
X4448402Y2883146D01*
X4476997Y2899655D01*
X4500345Y2923003D01*
X4516854Y2951598D01*
X4525400Y2983491D01*
Y3016509D01*
X4516854Y3048403D01*
X4500345Y3076997D01*
X4476997Y3100345D01*
X4448402Y3116854D01*
X4416509Y3125400D01*
D02*
G37*
G36*
X4116509D02*
X4083490D01*
X4051597Y3116854D01*
X4023002Y3100345D01*
X3999654Y3076997D01*
X3983145Y3048403D01*
X3974599Y3016509D01*
Y2983491D01*
X3983145Y2951598D01*
X3999654Y2923003D01*
X4023002Y2899655D01*
X4051597Y2883146D01*
X4062672Y2880178D01*
X4064466Y2866550D01*
X4053703Y2860335D01*
X4039664Y2846297D01*
X4029738Y2829103D01*
X4024600Y2809927D01*
Y2790073D01*
X4029738Y2770897D01*
X4039664Y2753703D01*
X4053703Y2739665D01*
X4070896Y2729738D01*
X4090073Y2724600D01*
X4109926D01*
X4129103Y2729738D01*
X4146296Y2739665D01*
X4160335Y2753703D01*
X4170261Y2770897D01*
X4175399Y2790073D01*
Y2809927D01*
X4170261Y2829103D01*
X4160335Y2846297D01*
X4146296Y2860335D01*
X4135533Y2866550D01*
X4137327Y2880178D01*
X4148402Y2883146D01*
X4176997Y2899655D01*
X4200344Y2923003D01*
X4216854Y2951598D01*
X4225399Y2983491D01*
Y3016509D01*
X4216854Y3048403D01*
X4200344Y3076997D01*
X4176997Y3100345D01*
X4148402Y3116854D01*
X4116509Y3125400D01*
D02*
G37*
G36*
X5309927Y2675400D02*
X5290073D01*
X5270897Y2670262D01*
X5253703Y2660335D01*
X5239665Y2646297D01*
X5229738Y2629103D01*
X5224600Y2609927D01*
Y2590074D01*
X5229738Y2570897D01*
X5239665Y2553704D01*
X5253703Y2539665D01*
X5270897Y2529738D01*
X5290073Y2524600D01*
X5309927D01*
X5329103Y2529738D01*
X5346297Y2539665D01*
X5360335Y2553704D01*
X5370262Y2570897D01*
X5375400Y2590074D01*
Y2609927D01*
X5370262Y2629103D01*
X5360335Y2646297D01*
X5346297Y2660335D01*
X5329103Y2670262D01*
X5309927Y2675400D01*
D02*
G37*
G36*
X5009926D02*
X4990073D01*
X4970897Y2670262D01*
X4953703Y2660335D01*
X4939665Y2646297D01*
X4929738Y2629103D01*
X4924600Y2609927D01*
Y2590074D01*
X4929738Y2570897D01*
X4939665Y2553704D01*
X4953703Y2539665D01*
X4970897Y2529738D01*
X4990073Y2524600D01*
X5009926D01*
X5029103Y2529738D01*
X5046296Y2539665D01*
X5060335Y2553704D01*
X5070262Y2570897D01*
X5075400Y2590074D01*
Y2609927D01*
X5070262Y2629103D01*
X5060335Y2646297D01*
X5046296Y2660335D01*
X5029103Y2670262D01*
X5009926Y2675400D01*
D02*
G37*
G36*
X4709926D02*
X4690073D01*
X4670896Y2670262D01*
X4653703Y2660335D01*
X4639665Y2646297D01*
X4629738Y2629103D01*
X4624600Y2609927D01*
Y2590074D01*
X4629738Y2570897D01*
X4639665Y2553704D01*
X4653703Y2539665D01*
X4670896Y2529738D01*
X4690073Y2524600D01*
X4709926D01*
X4729103Y2529738D01*
X4746296Y2539665D01*
X4760335Y2553704D01*
X4770261Y2570897D01*
X4775400Y2590074D01*
Y2609927D01*
X4770261Y2629103D01*
X4760335Y2646297D01*
X4746296Y2660335D01*
X4729103Y2670262D01*
X4709926Y2675400D01*
D02*
G37*
G36*
X4409926D02*
X4390073D01*
X4370896Y2670262D01*
X4353703Y2660335D01*
X4339664Y2646297D01*
X4329738Y2629103D01*
X4324600Y2609927D01*
Y2590074D01*
X4329738Y2570897D01*
X4339664Y2553704D01*
X4353703Y2539665D01*
X4370896Y2529738D01*
X4390073Y2524600D01*
X4409926D01*
X4429103Y2529738D01*
X4446296Y2539665D01*
X4460335Y2553704D01*
X4470261Y2570897D01*
X4475399Y2590074D01*
Y2609927D01*
X4470261Y2629103D01*
X4460335Y2646297D01*
X4446296Y2660335D01*
X4429103Y2670262D01*
X4409926Y2675400D01*
D02*
G37*
G36*
X4109926D02*
X4090073D01*
X4070896Y2670262D01*
X4053703Y2660335D01*
X4039664Y2646297D01*
X4029738Y2629103D01*
X4024600Y2609927D01*
Y2590074D01*
X4029738Y2570897D01*
X4039664Y2553704D01*
X4053703Y2539665D01*
X4070896Y2529738D01*
X4090073Y2524600D01*
X4109926D01*
X4129103Y2529738D01*
X4146296Y2539665D01*
X4160335Y2553704D01*
X4170261Y2570897D01*
X4175399Y2590074D01*
Y2609927D01*
X4170261Y2629103D01*
X4160335Y2646297D01*
X4146296Y2660335D01*
X4129103Y2670262D01*
X4109926Y2675400D01*
D02*
G37*
G36*
X5309927Y2475400D02*
X5290073D01*
X5270897Y2470262D01*
X5253703Y2460335D01*
X5239665Y2446297D01*
X5229738Y2429103D01*
X5224600Y2409927D01*
Y2390073D01*
X5229738Y2370897D01*
X5239665Y2353703D01*
X5253703Y2339665D01*
X5270897Y2329738D01*
X5290073Y2324600D01*
X5309927D01*
X5329103Y2329738D01*
X5346297Y2339665D01*
X5360335Y2353703D01*
X5370262Y2370897D01*
X5375400Y2390073D01*
Y2409927D01*
X5370262Y2429103D01*
X5360335Y2446297D01*
X5346297Y2460335D01*
X5329103Y2470262D01*
X5309927Y2475400D01*
D02*
G37*
G36*
X5009926D02*
X4990073D01*
X4970897Y2470262D01*
X4953703Y2460335D01*
X4939665Y2446297D01*
X4929738Y2429103D01*
X4924600Y2409927D01*
Y2390073D01*
X4929738Y2370897D01*
X4939665Y2353703D01*
X4953703Y2339665D01*
X4970897Y2329738D01*
X4990073Y2324600D01*
X5009926D01*
X5029103Y2329738D01*
X5046296Y2339665D01*
X5060335Y2353703D01*
X5070262Y2370897D01*
X5075400Y2390073D01*
Y2409927D01*
X5070262Y2429103D01*
X5060335Y2446297D01*
X5046296Y2460335D01*
X5029103Y2470262D01*
X5009926Y2475400D01*
D02*
G37*
G36*
X4709926D02*
X4690073D01*
X4670896Y2470262D01*
X4653703Y2460335D01*
X4639665Y2446297D01*
X4629738Y2429103D01*
X4624600Y2409927D01*
Y2390073D01*
X4629738Y2370897D01*
X4639665Y2353703D01*
X4653703Y2339665D01*
X4670896Y2329738D01*
X4690073Y2324600D01*
X4709926D01*
X4729103Y2329738D01*
X4746296Y2339665D01*
X4760335Y2353703D01*
X4770261Y2370897D01*
X4775400Y2390073D01*
Y2409927D01*
X4770261Y2429103D01*
X4760335Y2446297D01*
X4746296Y2460335D01*
X4729103Y2470262D01*
X4709926Y2475400D01*
D02*
G37*
G36*
X4409926D02*
X4390073D01*
X4370896Y2470262D01*
X4353703Y2460335D01*
X4339664Y2446297D01*
X4329738Y2429103D01*
X4324600Y2409927D01*
Y2390073D01*
X4329738Y2370897D01*
X4339664Y2353703D01*
X4353703Y2339665D01*
X4370896Y2329738D01*
X4390073Y2324600D01*
X4409926D01*
X4429103Y2329738D01*
X4446296Y2339665D01*
X4460335Y2353703D01*
X4470261Y2370897D01*
X4475399Y2390073D01*
Y2409927D01*
X4470261Y2429103D01*
X4460335Y2446297D01*
X4446296Y2460335D01*
X4429103Y2470262D01*
X4409926Y2475400D01*
D02*
G37*
G36*
X4109926D02*
X4090073D01*
X4070896Y2470262D01*
X4053703Y2460335D01*
X4039664Y2446297D01*
X4029738Y2429103D01*
X4024600Y2409927D01*
Y2390073D01*
X4029738Y2370897D01*
X4039664Y2353703D01*
X4053703Y2339665D01*
X4070896Y2329738D01*
X4090073Y2324600D01*
X4109926D01*
X4129103Y2329738D01*
X4146296Y2339665D01*
X4160335Y2353703D01*
X4170261Y2370897D01*
X4175399Y2390073D01*
Y2409927D01*
X4170261Y2429103D01*
X4160335Y2446297D01*
X4146296Y2460335D01*
X4129103Y2470262D01*
X4109926Y2475400D01*
D02*
G37*
G36*
X5309927Y2275400D02*
X5290073D01*
X5270897Y2270262D01*
X5253703Y2260335D01*
X5239665Y2246297D01*
X5229738Y2229103D01*
X5224600Y2209927D01*
Y2190074D01*
X5229738Y2170897D01*
X5239665Y2153704D01*
X5253703Y2139665D01*
X5270897Y2129738D01*
X5290073Y2124600D01*
X5309927D01*
X5329103Y2129738D01*
X5346297Y2139665D01*
X5360335Y2153704D01*
X5370262Y2170897D01*
X5375400Y2190074D01*
Y2209927D01*
X5370262Y2229103D01*
X5360335Y2246297D01*
X5346297Y2260335D01*
X5329103Y2270262D01*
X5309927Y2275400D01*
D02*
G37*
G36*
X5009926D02*
X4990073D01*
X4970897Y2270262D01*
X4953703Y2260335D01*
X4939665Y2246297D01*
X4929738Y2229103D01*
X4924600Y2209927D01*
Y2190074D01*
X4929738Y2170897D01*
X4939665Y2153704D01*
X4953703Y2139665D01*
X4970897Y2129738D01*
X4990073Y2124600D01*
X5009926D01*
X5029103Y2129738D01*
X5046296Y2139665D01*
X5060335Y2153704D01*
X5070262Y2170897D01*
X5075400Y2190074D01*
Y2209927D01*
X5070262Y2229103D01*
X5060335Y2246297D01*
X5046296Y2260335D01*
X5029103Y2270262D01*
X5009926Y2275400D01*
D02*
G37*
G36*
X4709926D02*
X4690073D01*
X4670896Y2270262D01*
X4653703Y2260335D01*
X4639665Y2246297D01*
X4629738Y2229103D01*
X4624600Y2209927D01*
Y2190074D01*
X4629738Y2170897D01*
X4639665Y2153704D01*
X4653703Y2139665D01*
X4670896Y2129738D01*
X4690073Y2124600D01*
X4709926D01*
X4729103Y2129738D01*
X4746296Y2139665D01*
X4760335Y2153704D01*
X4770261Y2170897D01*
X4775400Y2190074D01*
Y2209927D01*
X4770261Y2229103D01*
X4760335Y2246297D01*
X4746296Y2260335D01*
X4729103Y2270262D01*
X4709926Y2275400D01*
D02*
G37*
G36*
X4409926D02*
X4390073D01*
X4370896Y2270262D01*
X4353703Y2260335D01*
X4339664Y2246297D01*
X4329738Y2229103D01*
X4324600Y2209927D01*
Y2190074D01*
X4329738Y2170897D01*
X4339664Y2153704D01*
X4353703Y2139665D01*
X4370896Y2129738D01*
X4390073Y2124600D01*
X4409926D01*
X4429103Y2129738D01*
X4446296Y2139665D01*
X4460335Y2153704D01*
X4470261Y2170897D01*
X4475399Y2190074D01*
Y2209927D01*
X4470261Y2229103D01*
X4460335Y2246297D01*
X4446296Y2260335D01*
X4429103Y2270262D01*
X4409926Y2275400D01*
D02*
G37*
G36*
X4109926D02*
X4090073D01*
X4070896Y2270262D01*
X4053703Y2260335D01*
X4039664Y2246297D01*
X4029738Y2229103D01*
X4024600Y2209927D01*
Y2190074D01*
X4029738Y2170897D01*
X4039664Y2153704D01*
X4053703Y2139665D01*
X4070896Y2129738D01*
X4090073Y2124600D01*
X4109926D01*
X4129103Y2129738D01*
X4146296Y2139665D01*
X4160335Y2153704D01*
X4170261Y2170897D01*
X4175399Y2190074D01*
Y2209927D01*
X4170261Y2229103D01*
X4160335Y2246297D01*
X4146296Y2260335D01*
X4129103Y2270262D01*
X4109926Y2275400D01*
D02*
G37*
G36*
X6375400Y3143263D02*
X5676324D01*
Y2943263D01*
X5487825D01*
Y2656737D01*
Y2456737D01*
Y2256737D01*
Y2056737D01*
X6375400D01*
Y2256737D01*
Y2456737D01*
Y2656737D01*
Y2856737D01*
Y3143263D01*
D02*
G37*
%LPD*%
G36*
X4387426Y9536683D02*
X4331320D01*
Y9637784D01*
Y9773325D01*
X4313544Y9731107D01*
X4226331Y9536683D01*
X4150783Y9536683D01*
Y9863316D01*
X4206889Y9863316D01*
Y9772770D01*
Y9628896D01*
X4222998Y9666670D01*
X4311878Y9863316D01*
X4387426D01*
Y9536683D01*
D02*
G37*
G36*
X3971358Y9867760D02*
X3983023Y9866649D01*
X3993577Y9864427D01*
X4002465Y9862760D01*
X4010242Y9860538D01*
X4015797Y9858316D01*
X4018019Y9857761D01*
X4019686Y9857205D01*
X4020241Y9856650D01*
X4020797D01*
X4030796Y9851650D01*
X4039684Y9846651D01*
X4048016Y9841096D01*
X4055238Y9835541D01*
X4060793Y9830541D01*
X4065237Y9826653D01*
X4067459Y9823875D01*
X4068570Y9822764D01*
X4075236Y9813876D01*
X4081346Y9804988D01*
X4086346Y9795545D01*
X4090790Y9787212D01*
X4094123Y9779435D01*
X4096345Y9773880D01*
X4097456Y9771658D01*
X4098011Y9769992D01*
X4098567Y9768881D01*
Y9768325D01*
X4101900Y9756104D01*
X4104122Y9743328D01*
X4106344Y9731107D01*
X4107455Y9719442D01*
X4108010Y9709998D01*
Y9705554D01*
X4108566Y9702221D01*
Y9698888D01*
Y9696666D01*
Y9695555D01*
Y9695000D01*
X4108010Y9680557D01*
X4106899Y9666669D01*
X4105788Y9654448D01*
X4103566Y9644449D01*
X4101900Y9635561D01*
X4101344Y9632228D01*
X4100789Y9629451D01*
X4100233Y9627229D01*
X4099678Y9625562D01*
X4099122Y9624451D01*
Y9623896D01*
X4095234Y9613341D01*
X4090790Y9603342D01*
X4086346Y9595010D01*
X4081902Y9587233D01*
X4077458Y9581678D01*
X4074125Y9577234D01*
X4071903Y9574457D01*
X4071347Y9573346D01*
X4064126Y9566124D01*
X4056349Y9560014D01*
X4048572Y9554459D01*
X4041350Y9550015D01*
X4034684Y9546682D01*
X4029685Y9544460D01*
X4026352Y9542793D01*
X4025796Y9542238D01*
X4025241D01*
X4014686Y9538905D01*
X4004132Y9536683D01*
X3993577Y9534461D01*
X3984134Y9533350D01*
X3975246Y9532794D01*
X3971913D01*
X3969136Y9532239D01*
X3954693D01*
X3946916Y9532794D01*
X3939694Y9533905D01*
X3933584Y9534461D01*
X3928029Y9535572D01*
X3924140Y9536127D01*
X3921918Y9536683D01*
X3920807D01*
X3905253Y9540571D01*
X3898032Y9542238D01*
X3891921Y9544460D01*
X3886366Y9546682D01*
X3881922Y9547793D01*
X3879145Y9548904D01*
X3878034Y9549459D01*
Y9607231D01*
X3884144Y9604453D01*
X3890255Y9601676D01*
X3892477Y9601120D01*
X3894699Y9600010D01*
X3895810Y9599454D01*
X3896365D01*
X3903587Y9597232D01*
X3909697Y9595010D01*
X3911919Y9594455D01*
X3914141Y9593899D01*
X3915252Y9593344D01*
X3915808D01*
X3923029Y9591677D01*
X3929140Y9590011D01*
X3931362Y9589455D01*
X3933584D01*
X3934695Y9588900D01*
X3935250D01*
X3941916Y9588344D01*
X3947471Y9587789D01*
X3953026D01*
X3961359Y9588344D01*
X3968580Y9588900D01*
X3975246Y9590011D01*
X3981357Y9591677D01*
X3985801Y9592788D01*
X3989689Y9593899D01*
X3991911Y9594455D01*
X3992466Y9595010D01*
X3998577Y9598343D01*
X4003576Y9601676D01*
X4008576Y9605564D01*
X4012464Y9608897D01*
X4015797Y9612230D01*
X4018019Y9615008D01*
X4019686Y9616674D01*
X4020241Y9617230D01*
X4024130Y9622785D01*
X4026907Y9628895D01*
X4029685Y9634450D01*
X4031907Y9640005D01*
X4033573Y9645005D01*
X4034684Y9648893D01*
X4035795Y9651115D01*
Y9652226D01*
X4038573Y9668891D01*
X4039684Y9676668D01*
X4040239Y9683890D01*
Y9690556D01*
X4040795Y9695555D01*
Y9698888D01*
Y9699444D01*
Y9699999D01*
Y9708887D01*
X4040239Y9717775D01*
X4039128Y9725552D01*
X4038573Y9732218D01*
X4037462Y9737773D01*
X4036906Y9742217D01*
X4036351Y9744439D01*
Y9745550D01*
X4034129Y9753327D01*
X4031907Y9759993D01*
X4029129Y9766103D01*
X4026907Y9771658D01*
X4024130Y9775547D01*
X4022463Y9778880D01*
X4021352Y9781102D01*
X4020797Y9781657D01*
X4016353Y9787212D01*
X4011909Y9791656D01*
X4007465Y9795545D01*
X4003021Y9798878D01*
X3999132Y9801655D01*
X3996355Y9803322D01*
X3994133Y9804433D01*
X3993577Y9804988D01*
X3986912Y9807766D01*
X3980246Y9809988D01*
X3973580Y9811654D01*
X3967469Y9812765D01*
X3961914Y9813321D01*
X3957470Y9813876D01*
X3953582D01*
X3941361Y9813321D01*
X3935806Y9812765D01*
X3930251Y9811654D01*
X3925807Y9811099D01*
X3922474Y9809988D01*
X3919696Y9809432D01*
X3919141D01*
X3904698Y9805544D01*
X3897476Y9803322D01*
X3891366Y9801100D01*
X3885811Y9798878D01*
X3881922Y9797211D01*
X3879145Y9796100D01*
X3878034Y9795545D01*
Y9856650D01*
X3885811Y9858872D01*
X3892477Y9860538D01*
X3894699Y9861094D01*
X3896921Y9861649D01*
X3898032Y9862205D01*
X3898587D01*
X3905809Y9863871D01*
X3911919Y9864982D01*
X3914697D01*
X3916363Y9865538D01*
X3918030D01*
X3925251Y9866649D01*
X3931362Y9867204D01*
X3933584Y9867760D01*
X3937472D01*
X3944694Y9868315D01*
X3958581D01*
X3971358Y9867760D01*
D02*
G37*
G36*
X6350000Y9536683D02*
X6288340D01*
Y9672225D01*
X6276674D01*
X6271119Y9671669D01*
X6265564Y9671114D01*
X6261120Y9670003D01*
X6257232Y9668336D01*
X6253899Y9666670D01*
X6251677Y9665559D01*
X6250010Y9665003D01*
X6249455Y9664448D01*
X6245566Y9661115D01*
X6241678Y9657782D01*
X6236123Y9650005D01*
X6234456Y9646672D01*
X6232790Y9643894D01*
X6231679Y9642228D01*
Y9641672D01*
X6185573Y9536683D01*
X6113358D01*
X6165575Y9646116D01*
X6169463Y9653338D01*
X6172796Y9660004D01*
X6176129Y9665559D01*
X6179462Y9670003D01*
X6181684Y9673891D01*
X6183906Y9676113D01*
X6185017Y9677780D01*
X6185573Y9678335D01*
X6189461Y9682224D01*
X6193350Y9685001D01*
X6197238Y9687223D01*
X6200571Y9689445D01*
X6203349Y9690556D01*
X6205571Y9691112D01*
X6207237Y9691667D01*
X6207793D01*
X6196683Y9694445D01*
X6191683Y9695556D01*
X6187239Y9697222D01*
X6183906Y9698333D01*
X6181129Y9699444D01*
X6179462Y9700555D01*
X6178907D01*
X6169463Y9705555D01*
X6165575Y9708332D01*
X6162242Y9711110D01*
X6160020Y9713332D01*
X6157798Y9714998D01*
X6156687Y9716109D01*
X6156131Y9716665D01*
X6150021Y9724997D01*
X6145577Y9732774D01*
X6143910Y9736107D01*
X6142799Y9738885D01*
X6141688Y9740551D01*
Y9741107D01*
X6138355Y9751661D01*
X6137244Y9757216D01*
X6136689Y9762215D01*
X6136133Y9766659D01*
Y9769992D01*
Y9772214D01*
Y9772770D01*
X6136689Y9781658D01*
X6137244Y9789990D01*
X6138911Y9797212D01*
X6140577Y9803322D01*
X6142244Y9808322D01*
X6143355Y9811655D01*
X6144466Y9814432D01*
X6145021Y9814988D01*
X6148354Y9821098D01*
X6152243Y9826653D01*
X6156131Y9831097D01*
X6160020Y9835541D01*
X6163353Y9838319D01*
X6166130Y9841096D01*
X6168352Y9842207D01*
X6168908Y9842763D01*
X6175018Y9846651D01*
X6181129Y9849984D01*
X6187239Y9852762D01*
X6193350Y9854984D01*
X6198349Y9856095D01*
X6202238Y9857206D01*
X6205015Y9858317D01*
X6206126D01*
X6223346Y9861094D01*
X6231123Y9862205D01*
X6238900Y9862761D01*
X6245566Y9863316D01*
X6350000D01*
Y9536683D01*
D02*
G37*
G36*
X6054475D02*
X5857829D01*
Y9588900D01*
X5991704D01*
Y9679446D01*
X5863939D01*
Y9729997D01*
X5991704D01*
Y9811099D01*
X5857829D01*
Y9863316D01*
X6054475D01*
Y9536683D01*
D02*
G37*
G36*
X5499533Y9813321D02*
X5427873D01*
Y9587233D01*
X5499533D01*
Y9536683D01*
X5293443D01*
Y9587233D01*
X5365102D01*
Y9813321D01*
X5293443D01*
Y9863316D01*
X5499533D01*
Y9813321D01*
D02*
G37*
G36*
X4954034Y9812210D02*
X4864598D01*
Y9536683D01*
X4801827D01*
Y9812210D01*
X4712392D01*
Y9863316D01*
X4954034D01*
Y9812210D01*
D02*
G37*
G36*
X4691283Y9536683D02*
X4630178D01*
X4611847Y9601121D01*
X4497970D01*
X4479638Y9536683D01*
X4411867D01*
X4508524Y9863316D01*
X4594626D01*
X4691283Y9536683D01*
D02*
G37*
G36*
X3801375Y9536683D02*
X3604729D01*
Y9588900D01*
X3738604D01*
Y9679446D01*
X3610839D01*
Y9729996D01*
X3738604D01*
Y9811099D01*
X3604729D01*
Y9863316D01*
X3801375D01*
Y9536683D01*
D02*
G37*
G36*
X5678958Y9868316D02*
X5689513Y9867760D01*
X5699512Y9866649D01*
X5707844Y9864983D01*
X5714510Y9863316D01*
X5719510Y9862205D01*
X5722843Y9861650D01*
X5723398Y9861094D01*
X5723954D01*
X5732286Y9857761D01*
X5739508Y9854428D01*
X5746174Y9851095D01*
X5751729Y9847762D01*
X5756173Y9844985D01*
X5759506Y9842763D01*
X5761728Y9841096D01*
X5762283Y9840541D01*
X5767283Y9835541D01*
X5772282Y9830542D01*
X5775615Y9825542D01*
X5778948Y9820543D01*
X5781170Y9816654D01*
X5783392Y9813321D01*
X5783948Y9811099D01*
X5784503Y9810544D01*
X5786725Y9803878D01*
X5788392Y9797767D01*
X5789503Y9791657D01*
X5790058Y9785546D01*
X5790614Y9781102D01*
X5791169Y9777214D01*
Y9774992D01*
Y9773881D01*
X5790614Y9766104D01*
X5790058Y9759438D01*
X5788947Y9753327D01*
X5787836Y9747772D01*
X5786725Y9743884D01*
X5785614Y9740551D01*
X5784503Y9738329D01*
Y9737774D01*
X5778948Y9727775D01*
X5776171Y9723331D01*
X5772838Y9719442D01*
X5770616Y9716665D01*
X5768394Y9714443D01*
X5767283Y9712776D01*
X5766727Y9712221D01*
X5757839Y9704999D01*
X5749507Y9699444D01*
X5745618Y9697222D01*
X5742841Y9695556D01*
X5741174Y9695000D01*
X5740619Y9694445D01*
X5730064Y9689445D01*
X5725065Y9687223D01*
X5720621Y9685001D01*
X5717288Y9683335D01*
X5713955Y9682224D01*
X5712288Y9681668D01*
X5711733Y9681113D01*
X5700623Y9677224D01*
X5695623Y9675558D01*
X5691179Y9673891D01*
X5687846Y9672225D01*
X5684513Y9671669D01*
X5682847Y9670558D01*
X5682291D01*
X5672292Y9666670D01*
X5667848Y9665003D01*
X5663960Y9663337D01*
X5661182Y9661670D01*
X5658405Y9660559D01*
X5657294Y9660004D01*
X5656738Y9659448D01*
X5648962Y9654449D01*
X5643407Y9650005D01*
X5641185Y9647783D01*
X5639518Y9646672D01*
X5638963Y9645561D01*
X5638407Y9645005D01*
X5636185Y9641672D01*
X5633963Y9638895D01*
X5632297Y9632229D01*
X5631741Y9629451D01*
X5631186Y9627229D01*
Y9625563D01*
Y9625007D01*
X5631741Y9618897D01*
X5632852Y9613897D01*
X5634519Y9610009D01*
X5635074Y9609453D01*
Y9608898D01*
X5638407Y9603898D01*
X5641740Y9600010D01*
X5645073Y9597233D01*
X5645629Y9596122D01*
X5646184D01*
X5652295Y9592789D01*
X5658960Y9590567D01*
X5661738Y9589456D01*
X5663960Y9588900D01*
X5665626Y9588345D01*
X5666182D01*
X5676181Y9586678D01*
X5681180Y9586123D01*
X5685624D01*
X5690068Y9585567D01*
X5705067D01*
X5712844Y9586123D01*
X5716177D01*
X5718399Y9586678D01*
X5720621D01*
X5729509Y9588345D01*
X5733953Y9588900D01*
X5737841Y9589456D01*
X5741174Y9590011D01*
X5743396Y9590567D01*
X5745063Y9591122D01*
X5745618D01*
X5755062Y9593344D01*
X5759506Y9594455D01*
X5763394Y9595011D01*
X5766172Y9596122D01*
X5768949Y9596677D01*
X5770616Y9597233D01*
X5771171D01*
X5780059Y9600010D01*
X5783948Y9601121D01*
X5787281Y9602232D01*
X5790058Y9603343D01*
X5792280Y9604454D01*
X5793947Y9605009D01*
X5794502D01*
Y9544460D01*
X5777282Y9540016D01*
X5769505Y9538350D01*
X5762283Y9536683D01*
X5756173Y9535572D01*
X5751173Y9535017D01*
X5748396Y9534461D01*
X5747285D01*
X5728953Y9532795D01*
X5720621Y9531684D01*
X5712844D01*
X5706733Y9531128D01*
X5697290D01*
X5686735Y9531684D01*
X5676736Y9532239D01*
X5667848Y9533350D01*
X5659516Y9534461D01*
X5653406Y9535572D01*
X5648406Y9536128D01*
X5645073Y9537239D01*
X5643962D01*
X5635074Y9540016D01*
X5626742Y9542794D01*
X5619520Y9546126D01*
X5613410Y9548904D01*
X5607855Y9551681D01*
X5604522Y9553903D01*
X5601744Y9555570D01*
X5601189Y9556125D01*
X5595078Y9561125D01*
X5589523Y9566680D01*
X5584524Y9571679D01*
X5580635Y9577234D01*
X5577302Y9581678D01*
X5575080Y9585011D01*
X5573969Y9587233D01*
X5573414Y9588344D01*
X5570081Y9596121D01*
X5567859Y9603898D01*
X5565637Y9611675D01*
X5564526Y9619452D01*
X5563970Y9625563D01*
X5563415Y9630562D01*
Y9633895D01*
Y9634451D01*
Y9635006D01*
X5563970Y9642228D01*
X5564526Y9648894D01*
X5565637Y9654449D01*
X5566748Y9660004D01*
X5568414Y9663892D01*
X5569525Y9666670D01*
X5570081Y9668892D01*
X5570636Y9669447D01*
X5573414Y9675002D01*
X5576191Y9680001D01*
X5579524Y9683890D01*
X5582302Y9687778D01*
X5585079Y9691111D01*
X5586746Y9693333D01*
X5588412Y9694444D01*
X5588968Y9695000D01*
X5597856Y9702777D01*
X5605633Y9708332D01*
X5609521Y9710554D01*
X5612299Y9712220D01*
X5613965Y9712776D01*
X5614521Y9713331D01*
X5625075Y9718887D01*
X5630075Y9721109D01*
X5635074Y9722775D01*
X5638963Y9724442D01*
X5641740Y9725553D01*
X5643962Y9726664D01*
X5644518D01*
X5655627Y9731108D01*
X5660627Y9732774D01*
X5665071Y9734441D01*
X5668404Y9736107D01*
X5671181Y9736663D01*
X5673403Y9737774D01*
X5673959D01*
X5683958Y9741662D01*
X5688402Y9743328D01*
X5692290Y9744995D01*
X5695623Y9746106D01*
X5697845Y9747217D01*
X5699512Y9748328D01*
X5700067D01*
X5707289Y9752772D01*
X5712844Y9757216D01*
X5715066Y9758882D01*
X5716732Y9760549D01*
X5717288Y9761104D01*
X5717843Y9761660D01*
X5720065Y9764437D01*
X5721732Y9767770D01*
X5723398Y9773325D01*
X5723954Y9776103D01*
X5724509Y9777769D01*
Y9778880D01*
Y9779436D01*
X5723954Y9785546D01*
X5722843Y9789990D01*
X5722287Y9793323D01*
X5721732Y9793879D01*
Y9794434D01*
X5718399Y9798878D01*
X5715066Y9802767D01*
X5712288Y9804989D01*
X5711733Y9805544D01*
X5711177D01*
X5705067Y9808877D01*
X5699512Y9811099D01*
X5696734Y9812210D01*
X5694512Y9812766D01*
X5693401Y9813321D01*
X5692846D01*
X5683402Y9814988D01*
X5674514Y9815543D01*
X5670626Y9816099D01*
X5657849D01*
X5651739Y9815543D01*
X5649517D01*
X5647295Y9814988D01*
X5645629D01*
X5637852Y9813877D01*
X5631186Y9812766D01*
X5628964Y9812210D01*
X5626742D01*
X5625631Y9811655D01*
X5625075D01*
X5617298Y9810543D01*
X5611188Y9808877D01*
X5608410Y9808322D01*
X5606744Y9807766D01*
X5605633Y9807211D01*
X5605077D01*
X5598411Y9805544D01*
X5592856Y9803878D01*
X5590634Y9803322D01*
X5588968Y9802767D01*
X5587857Y9802211D01*
X5587301D01*
Y9858316D01*
X5593412Y9859427D01*
X5599522Y9860538D01*
X5601744Y9861094D01*
X5603966Y9861649D01*
X5605633D01*
X5612854Y9863316D01*
X5618965Y9864427D01*
X5621742D01*
X5623964Y9864983D01*
X5625631D01*
X5632852Y9866094D01*
X5640074Y9867205D01*
X5642851D01*
X5645073Y9867760D01*
X5646740D01*
X5654517Y9868316D01*
X5660627Y9868871D01*
X5666737D01*
X5678958Y9868316D01*
D02*
G37*
G36*
X5115683Y9868315D02*
X5126238Y9867760D01*
X5136237Y9866649D01*
X5144569Y9864982D01*
X5151235Y9863316D01*
X5156235Y9862205D01*
X5159568Y9861649D01*
X5160123Y9861094D01*
X5160679D01*
X5169011Y9857761D01*
X5176233Y9854428D01*
X5182899Y9851095D01*
X5188454Y9847762D01*
X5192898Y9844984D01*
X5196231Y9842762D01*
X5198453Y9841096D01*
X5199008Y9840540D01*
X5204008Y9835541D01*
X5209007Y9830541D01*
X5212340Y9825542D01*
X5215673Y9820542D01*
X5217895Y9816654D01*
X5220117Y9813321D01*
X5220673Y9811099D01*
X5221228Y9810543D01*
X5223450Y9803878D01*
X5225117Y9797767D01*
X5226228Y9791657D01*
X5226783Y9785546D01*
X5227339Y9781102D01*
X5227894Y9777214D01*
Y9774992D01*
Y9773881D01*
X5227339Y9766104D01*
X5226783Y9759438D01*
X5225672Y9753327D01*
X5224561Y9747772D01*
X5223450Y9743884D01*
X5222339Y9740551D01*
X5221228Y9738329D01*
Y9737773D01*
X5215673Y9727774D01*
X5212896Y9723330D01*
X5209563Y9719442D01*
X5207341Y9716664D01*
X5205119Y9714442D01*
X5204008Y9712776D01*
X5203452Y9712220D01*
X5194564Y9704999D01*
X5186232Y9699444D01*
X5182343Y9697222D01*
X5179566Y9695555D01*
X5177899Y9695000D01*
X5177344Y9694444D01*
X5166789Y9689445D01*
X5161790Y9687223D01*
X5157346Y9685001D01*
X5154013Y9683334D01*
X5150680Y9682223D01*
X5149013Y9681668D01*
X5148458Y9681112D01*
X5137348Y9677224D01*
X5132348Y9675557D01*
X5127904Y9673891D01*
X5124571Y9672224D01*
X5121238Y9671669D01*
X5119572Y9670558D01*
X5119016D01*
X5109017Y9666670D01*
X5104573Y9665003D01*
X5100685Y9663337D01*
X5097908Y9661670D01*
X5095130Y9660559D01*
X5094019Y9660004D01*
X5093464Y9659448D01*
X5085687Y9654449D01*
X5080132Y9650005D01*
X5077910Y9647783D01*
X5076243Y9646672D01*
X5075688Y9645561D01*
X5075132Y9645005D01*
X5072910Y9641672D01*
X5070688Y9638895D01*
X5069022Y9632229D01*
X5068466Y9629451D01*
X5067911Y9627229D01*
Y9625563D01*
Y9625007D01*
X5068466Y9618897D01*
X5069577Y9613897D01*
X5071244Y9610009D01*
X5071799Y9609453D01*
Y9608898D01*
X5075132Y9603898D01*
X5078465Y9600010D01*
X5081798Y9597232D01*
X5082354Y9596121D01*
X5082909D01*
X5089020Y9592788D01*
X5095686Y9590566D01*
X5098463Y9589455D01*
X5100685Y9588900D01*
X5102351Y9588344D01*
X5102907D01*
X5112906Y9586678D01*
X5117905Y9586122D01*
X5122349D01*
X5126793Y9585567D01*
X5141792D01*
X5149569Y9586122D01*
X5152902D01*
X5155124Y9586678D01*
X5157346D01*
X5166234Y9588344D01*
X5170678Y9588900D01*
X5174566Y9589455D01*
X5177899Y9590011D01*
X5180121Y9590566D01*
X5181788Y9591122D01*
X5182343D01*
X5191787Y9593344D01*
X5196231Y9594455D01*
X5200119Y9595010D01*
X5202897Y9596121D01*
X5205674Y9596677D01*
X5207341Y9597232D01*
X5207896D01*
X5216784Y9600010D01*
X5220673Y9601121D01*
X5224006Y9602232D01*
X5226783Y9603343D01*
X5229005Y9604454D01*
X5230672Y9605009D01*
X5231227D01*
Y9544460D01*
X5214007Y9540016D01*
X5206230Y9538349D01*
X5199008Y9536683D01*
X5192898Y9535572D01*
X5187898Y9535016D01*
X5185121Y9534461D01*
X5184010D01*
X5165678Y9532794D01*
X5157346Y9531684D01*
X5149569D01*
X5143458Y9531128D01*
X5134015D01*
X5123460Y9531684D01*
X5113461Y9532239D01*
X5104573Y9533350D01*
X5096241Y9534461D01*
X5090131Y9535572D01*
X5085131Y9536127D01*
X5081798Y9537238D01*
X5080687D01*
X5071799Y9540016D01*
X5063467Y9542793D01*
X5056245Y9546126D01*
X5050135Y9548904D01*
X5044580Y9551681D01*
X5041247Y9553903D01*
X5038469Y9555570D01*
X5037914Y9556125D01*
X5031803Y9561125D01*
X5026248Y9566680D01*
X5021249Y9571679D01*
X5017360Y9577234D01*
X5014027Y9581678D01*
X5011805Y9585011D01*
X5010694Y9587233D01*
X5010139Y9588344D01*
X5006806Y9596121D01*
X5004584Y9603898D01*
X5002362Y9611675D01*
X5001251Y9619452D01*
X5000695Y9625563D01*
X5000140Y9630562D01*
Y9633895D01*
Y9634451D01*
Y9635006D01*
X5000695Y9642228D01*
X5001251Y9648894D01*
X5002362Y9654449D01*
X5003473Y9660004D01*
X5005139Y9663892D01*
X5006250Y9666670D01*
X5006806Y9668892D01*
X5007361Y9669447D01*
X5010139Y9675002D01*
X5012916Y9680001D01*
X5016249Y9683890D01*
X5019027Y9687778D01*
X5021804Y9691111D01*
X5023471Y9693333D01*
X5025137Y9694444D01*
X5025693Y9695000D01*
X5034581Y9702777D01*
X5042358Y9708332D01*
X5046246Y9710554D01*
X5049024Y9712220D01*
X5050690Y9712776D01*
X5051246Y9713331D01*
X5061800Y9718886D01*
X5066800Y9721108D01*
X5071799Y9722775D01*
X5075688Y9724441D01*
X5078465Y9725552D01*
X5080687Y9726663D01*
X5081243D01*
X5092353Y9731107D01*
X5097352Y9732774D01*
X5101796Y9734440D01*
X5105129Y9736107D01*
X5107906Y9736662D01*
X5110128Y9737773D01*
X5110684D01*
X5120683Y9741662D01*
X5125127Y9743328D01*
X5129015Y9744995D01*
X5132348Y9746106D01*
X5134570Y9747217D01*
X5136237Y9748328D01*
X5136792D01*
X5144014Y9752772D01*
X5149569Y9757216D01*
X5151791Y9758882D01*
X5153457Y9760549D01*
X5154013Y9761104D01*
X5154568Y9761660D01*
X5156790Y9764437D01*
X5158457Y9767770D01*
X5160123Y9773325D01*
X5160679Y9776103D01*
X5161234Y9777769D01*
Y9778880D01*
Y9779436D01*
X5160679Y9785546D01*
X5159568Y9789990D01*
X5159012Y9793323D01*
X5158457Y9793879D01*
Y9794434D01*
X5155124Y9798878D01*
X5151791Y9802767D01*
X5149013Y9804989D01*
X5148458Y9805544D01*
X5147902D01*
X5141792Y9808877D01*
X5136237Y9811099D01*
X5133459Y9812210D01*
X5131237Y9812765D01*
X5130126Y9813321D01*
X5129571D01*
X5120127Y9814987D01*
X5111239Y9815543D01*
X5107351Y9816098D01*
X5094575D01*
X5088464Y9815543D01*
X5086242D01*
X5084020Y9814987D01*
X5082354D01*
X5074577Y9813876D01*
X5067911Y9812765D01*
X5065689Y9812210D01*
X5063467D01*
X5062356Y9811654D01*
X5061800D01*
X5054023Y9810543D01*
X5047913Y9808877D01*
X5045135Y9808322D01*
X5043469Y9807766D01*
X5042358Y9807211D01*
X5041802D01*
X5035136Y9805544D01*
X5029581Y9803878D01*
X5027359Y9803322D01*
X5025693Y9802767D01*
X5024582Y9802211D01*
X5024026D01*
Y9858316D01*
X5030137Y9859427D01*
X5036247Y9860538D01*
X5038469Y9861094D01*
X5040691Y9861649D01*
X5042358D01*
X5049579Y9863316D01*
X5055690Y9864427D01*
X5058467D01*
X5060689Y9864982D01*
X5062356D01*
X5069577Y9866093D01*
X5076799Y9867204D01*
X5079576D01*
X5081798Y9867760D01*
X5083465D01*
X5091242Y9868315D01*
X5097352Y9868871D01*
X5103462D01*
X5115683Y9868315D01*
D02*
G37*
%LPC*%
G36*
X6288340Y9812210D02*
X6261676D01*
X6251121Y9811655D01*
X6241678Y9810544D01*
X6233901Y9808877D01*
X6227235Y9807211D01*
X6222235Y9804989D01*
X6218902Y9803322D01*
X6216680Y9802211D01*
X6216125Y9801656D01*
X6211125Y9797212D01*
X6207237Y9791657D01*
X6204460Y9786102D01*
X6202238Y9780547D01*
X6201127Y9775547D01*
X6200571Y9771103D01*
Y9768326D01*
Y9767770D01*
Y9767215D01*
X6201127Y9758882D01*
X6202793Y9752772D01*
X6203904Y9749994D01*
X6205015Y9748328D01*
X6205571Y9747217D01*
Y9746661D01*
X6209459Y9740551D01*
X6213347Y9736107D01*
X6216680Y9732774D01*
X6217791Y9732219D01*
X6218347Y9731663D01*
X6224457Y9727775D01*
X6231123Y9724997D01*
X6233901Y9723886D01*
X6235567Y9723331D01*
X6237234Y9722775D01*
X6237789D01*
X6246677Y9721109D01*
X6255010Y9720553D01*
X6258898Y9719998D01*
X6288340D01*
Y9812210D01*
D02*
G37*
G36*
X4554075Y9803322D02*
X4511857Y9651116D01*
X4597404D01*
X4554075Y9803322D01*
D02*
G37*
%LPD*%
G36*
X5227100Y5884600D02*
Y5834600D01*
Y5784600D01*
Y5734600D01*
Y5684600D01*
Y5634600D01*
Y5584600D01*
Y5534600D01*
Y5484600D01*
Y5434600D01*
Y5384600D01*
Y5372900D01*
X4672900D01*
Y5384600D01*
Y5434600D01*
Y5484600D01*
Y5534600D01*
Y5584600D01*
Y5634600D01*
Y5684600D01*
Y5734600D01*
Y5784600D01*
Y5834600D01*
Y5884600D01*
Y5927100D01*
X5227100D01*
Y5884600D01*
D02*
G37*
%LPC*%
G36*
X5130400Y5830400D02*
X4769600D01*
Y5469600D01*
X5130400D01*
Y5830400D01*
D02*
G37*
%LPD*%
G36*
X6268707Y3060642D02*
X6272225Y3060272D01*
X6275373Y3059531D01*
X6278336Y3058790D01*
X6280743Y3058050D01*
X6282595Y3057309D01*
X6283150Y3057124D01*
X6283706Y3056939D01*
X6283891Y3056754D01*
X6284076D01*
X6287224Y3055272D01*
X6290372Y3053421D01*
X6292964Y3051754D01*
X6295371Y3050088D01*
X6297223Y3048606D01*
X6298704Y3047310D01*
X6299630Y3046569D01*
X6300000Y3046199D01*
X6289261Y3032497D01*
X6287409Y3034163D01*
X6285557Y3035645D01*
X6283891Y3036941D01*
X6282224Y3037867D01*
X6280928Y3038792D01*
X6279817Y3039348D01*
X6279077Y3039718D01*
X6278891Y3039903D01*
X6276855Y3040829D01*
X6274633Y3041570D01*
X6272781Y3041940D01*
X6270929Y3042311D01*
X6269263Y3042496D01*
X6268152Y3042681D01*
X6267041D01*
X6264448Y3042496D01*
X6262226Y3042125D01*
X6261486Y3041755D01*
X6260930Y3041570D01*
X6260560Y3041385D01*
X6260375D01*
X6258338Y3040459D01*
X6256857Y3039348D01*
X6255931Y3038607D01*
X6255561Y3038422D01*
Y3038237D01*
X6254264Y3036571D01*
X6253339Y3035089D01*
X6252783Y3033978D01*
X6252598Y3033608D01*
Y3033423D01*
X6251857Y3031386D01*
X6251672Y3029349D01*
X6251487Y3028608D01*
Y3028053D01*
Y3027683D01*
Y3027497D01*
X6251672Y3024905D01*
X6251857Y3022498D01*
X6252042Y3021572D01*
X6252228Y3020831D01*
X6252413Y3020461D01*
Y3020276D01*
X6253153Y3017498D01*
X6254264Y3015091D01*
X6254820Y3013980D01*
X6255190Y3013240D01*
X6255375Y3012684D01*
X6255561Y3012499D01*
X6256486Y3011018D01*
X6257597Y3009351D01*
X6258708Y3007870D01*
X6259634Y3006388D01*
X6260745Y3005092D01*
X6261486Y3004166D01*
X6262041Y3003426D01*
X6262226Y3003241D01*
X6263893Y3001204D01*
X6265930Y2999167D01*
X6267781Y2997130D01*
X6269633Y2995093D01*
X6271300Y2993427D01*
X6272596Y2992131D01*
X6273522Y2991205D01*
X6273892Y2990835D01*
X6299445Y2964911D01*
Y2950098D01*
X6225564D01*
Y2968800D01*
X6271485D01*
X6255746Y2983798D01*
X6253524Y2986020D01*
X6251302Y2988057D01*
X6249450Y2989909D01*
X6247784Y2991760D01*
X6246487Y2993056D01*
X6245562Y2994167D01*
X6244821Y2994908D01*
X6244636Y2995093D01*
X6242784Y2997130D01*
X6241303Y2998982D01*
X6239821Y3000833D01*
X6238525Y3002315D01*
X6237599Y3003796D01*
X6236859Y3004722D01*
X6236488Y3005463D01*
X6236303Y3005648D01*
X6234081Y3009536D01*
X6233341Y3011388D01*
X6232600Y3013054D01*
X6232044Y3014536D01*
X6231674Y3015647D01*
X6231304Y3016387D01*
Y3016573D01*
X6230193Y3020831D01*
X6229822Y3023053D01*
X6229637Y3024905D01*
X6229452Y3026386D01*
Y3027683D01*
Y3028423D01*
Y3028794D01*
X6229637Y3031571D01*
X6229822Y3034163D01*
X6230193Y3036571D01*
X6230748Y3038607D01*
X6231304Y3040274D01*
X6231674Y3041385D01*
X6231859Y3042311D01*
X6232044Y3042496D01*
X6233155Y3044718D01*
X6234266Y3046569D01*
X6235377Y3048421D01*
X6236674Y3049717D01*
X6237599Y3051013D01*
X6238525Y3051754D01*
X6239081Y3052310D01*
X6239266Y3052495D01*
X6241118Y3053976D01*
X6242969Y3055087D01*
X6244821Y3056198D01*
X6246487Y3057124D01*
X6248154Y3057679D01*
X6249265Y3058235D01*
X6250006Y3058605D01*
X6250376D01*
X6252783Y3059346D01*
X6255375Y3059901D01*
X6257783Y3060272D01*
X6260004Y3060642D01*
X6262041D01*
X6263523Y3060827D01*
X6264819D01*
X6268707Y3060642D01*
D02*
G37*
G36*
X6112983Y3041570D02*
X6106317Y3024905D01*
X6082060Y3038052D01*
Y2968244D01*
X6109835D01*
Y2950098D01*
X6037250D01*
Y2968244D01*
X6061136D01*
Y3059716D01*
X6078357D01*
X6112983Y3041570D01*
D02*
G37*
G36*
X5898931Y3036200D02*
X5900597Y3036015D01*
X5901893Y3035645D01*
X5902079Y3035460D01*
X5902264D01*
X5903930Y3034719D01*
X5905412Y3033978D01*
X5906523Y3033423D01*
X5906708Y3033052D01*
X5906893D01*
X5908374Y3031571D01*
X5909670Y3030275D01*
X5910411Y3029164D01*
X5910781Y3028794D01*
Y3028608D01*
X5912078Y3026572D01*
X5913189Y3024535D01*
X5913559Y3023609D01*
X5913929Y3022868D01*
X5914300Y3022498D01*
Y3022313D01*
X5914670Y3034719D01*
X5929668D01*
Y2950098D01*
X5912078D01*
Y3004907D01*
X5910967Y3007870D01*
X5909856Y3010462D01*
X5908930Y3012499D01*
X5908004Y3014165D01*
X5907263Y3015462D01*
X5906708Y3016202D01*
X5906523Y3016758D01*
X5906337Y3016943D01*
X5905412Y3018054D01*
X5904301Y3018980D01*
X5903560Y3019535D01*
X5902819Y3020091D01*
X5901708Y3020461D01*
X5901338D01*
X5900227Y3020276D01*
X5899486Y3020091D01*
X5898931Y3019720D01*
X5898746Y3019535D01*
X5898190Y3018795D01*
X5897635Y3018054D01*
X5897449Y3017498D01*
X5897264Y3017128D01*
X5896894Y3015832D01*
X5896709Y3014721D01*
X5896524Y3013610D01*
Y3013425D01*
Y3013240D01*
X5896338Y3011388D01*
Y3009536D01*
Y3008796D01*
Y3008240D01*
Y3007870D01*
Y3007685D01*
Y2950098D01*
X5878933D01*
Y3004907D01*
X5877822Y3007870D01*
X5876711Y3010462D01*
X5875785Y3012499D01*
X5875044Y3014165D01*
X5874304Y3015462D01*
X5873748Y3016202D01*
X5873563Y3016758D01*
X5873378Y3016943D01*
X5872452Y3018054D01*
X5871526Y3018980D01*
X5870600Y3019535D01*
X5869860Y3020091D01*
X5868564Y3020461D01*
X5868193D01*
X5867082Y3020276D01*
X5866342Y3020091D01*
X5865786Y3019720D01*
X5865601Y3019535D01*
X5865045Y3018795D01*
X5864490Y3018054D01*
X5864305Y3017498D01*
X5864120Y3017128D01*
X5863749Y3015832D01*
X5863564Y3014721D01*
X5863379Y3013610D01*
Y3013425D01*
Y3013240D01*
X5863194Y3011388D01*
Y3009536D01*
Y3008796D01*
Y3008240D01*
Y3007870D01*
Y3007685D01*
Y2950098D01*
X5845603D01*
Y3010647D01*
X5845788Y3015091D01*
X5846344Y3018980D01*
X5847084Y3022313D01*
X5847825Y3025090D01*
X5848566Y3027127D01*
X5849306Y3028608D01*
X5849862Y3029534D01*
X5850047Y3029905D01*
X5851899Y3032127D01*
X5854121Y3033608D01*
X5856343Y3034719D01*
X5858565Y3035645D01*
X5860601Y3036015D01*
X5862268Y3036200D01*
X5863379Y3036385D01*
X5863749D01*
X5865971Y3036200D01*
X5867638Y3036015D01*
X5868378Y3035830D01*
X5868934Y3035645D01*
X5869119Y3035460D01*
X5869304D01*
X5870971Y3034719D01*
X5872452Y3033978D01*
X5873563Y3033423D01*
X5873748Y3033052D01*
X5873933D01*
X5875415Y3031571D01*
X5876711Y3030275D01*
X5877637Y3029164D01*
X5877822Y3028794D01*
X5878007Y3028608D01*
X5879303Y3026572D01*
X5880599Y3024535D01*
X5881155Y3023609D01*
X5881525Y3022868D01*
X5881710Y3022498D01*
X5881896Y3022313D01*
X5882266Y3024535D01*
X5882821Y3026572D01*
X5883562Y3028423D01*
X5884303Y3029905D01*
X5884858Y3031016D01*
X5885599Y3031756D01*
X5885969Y3032312D01*
X5886154Y3032497D01*
X5887636Y3033793D01*
X5889302Y3034719D01*
X5891154Y3035460D01*
X5892820Y3035830D01*
X5894487Y3036200D01*
X5895783Y3036385D01*
X5896894D01*
X5898931Y3036200D01*
D02*
G37*
G36*
X5805052D02*
X5806718Y3036015D01*
X5808014Y3035645D01*
X5808199Y3035460D01*
X5808385D01*
X5810051Y3034719D01*
X5811532Y3033978D01*
X5812643Y3033423D01*
X5812829Y3033052D01*
X5813014D01*
X5814495Y3031571D01*
X5815791Y3030275D01*
X5816532Y3029164D01*
X5816902Y3028794D01*
Y3028608D01*
X5818198Y3026572D01*
X5819309Y3024535D01*
X5819680Y3023609D01*
X5820050Y3022868D01*
X5820420Y3022498D01*
Y3022313D01*
X5820791Y3034719D01*
X5835789D01*
Y2950098D01*
X5818198D01*
Y3004907D01*
X5817087Y3007870D01*
X5815976Y3010462D01*
X5815051Y3012499D01*
X5814125Y3014165D01*
X5813384Y3015462D01*
X5812829Y3016202D01*
X5812643Y3016758D01*
X5812458Y3016943D01*
X5811532Y3018054D01*
X5810421Y3018980D01*
X5809681Y3019535D01*
X5808940Y3020091D01*
X5807829Y3020461D01*
X5807459D01*
X5806348Y3020276D01*
X5805607Y3020091D01*
X5805052Y3019720D01*
X5804866Y3019535D01*
X5804311Y3018795D01*
X5803755Y3018054D01*
X5803570Y3017498D01*
X5803385Y3017128D01*
X5803015Y3015832D01*
X5802830Y3014721D01*
X5802644Y3013610D01*
Y3013425D01*
Y3013240D01*
X5802459Y3011388D01*
Y3009536D01*
Y3008796D01*
Y3008240D01*
Y3007870D01*
Y3007685D01*
Y2950098D01*
X5785054D01*
Y3004907D01*
X5783943Y3007870D01*
X5782832Y3010462D01*
X5781906Y3012499D01*
X5781165Y3014165D01*
X5780425Y3015462D01*
X5779869Y3016202D01*
X5779684Y3016758D01*
X5779499Y3016943D01*
X5778573Y3018054D01*
X5777647Y3018980D01*
X5776721Y3019535D01*
X5775981Y3020091D01*
X5774684Y3020461D01*
X5774314D01*
X5773203Y3020276D01*
X5772462Y3020091D01*
X5771907Y3019720D01*
X5771722Y3019535D01*
X5771166Y3018795D01*
X5770611Y3018054D01*
X5770426Y3017498D01*
X5770240Y3017128D01*
X5769870Y3015832D01*
X5769685Y3014721D01*
X5769500Y3013610D01*
Y3013425D01*
Y3013240D01*
X5769315Y3011388D01*
Y3009536D01*
Y3008796D01*
Y3008240D01*
Y3007870D01*
Y3007685D01*
Y2950098D01*
X5751724D01*
Y3010647D01*
X5751909Y3015091D01*
X5752464Y3018980D01*
X5753205Y3022313D01*
X5753946Y3025090D01*
X5754686Y3027127D01*
X5755427Y3028608D01*
X5755983Y3029534D01*
X5756168Y3029905D01*
X5758019Y3032127D01*
X5760241Y3033608D01*
X5762463Y3034719D01*
X5764685Y3035645D01*
X5766722Y3036015D01*
X5768389Y3036200D01*
X5769500Y3036385D01*
X5769870D01*
X5772092Y3036200D01*
X5773759Y3036015D01*
X5774499Y3035830D01*
X5775055Y3035645D01*
X5775240Y3035460D01*
X5775425D01*
X5777092Y3034719D01*
X5778573Y3033978D01*
X5779684Y3033423D01*
X5779869Y3033052D01*
X5780054D01*
X5781536Y3031571D01*
X5782832Y3030275D01*
X5783758Y3029164D01*
X5783943Y3028794D01*
X5784128Y3028608D01*
X5785424Y3026572D01*
X5786720Y3024535D01*
X5787276Y3023609D01*
X5787646Y3022868D01*
X5787831Y3022498D01*
X5788016Y3022313D01*
X5788387Y3024535D01*
X5788942Y3026572D01*
X5789683Y3028423D01*
X5790424Y3029905D01*
X5790979Y3031016D01*
X5791720Y3031756D01*
X5792090Y3032312D01*
X5792275Y3032497D01*
X5793757Y3033793D01*
X5795423Y3034719D01*
X5797275Y3035460D01*
X5798941Y3035830D01*
X5800608Y3036200D01*
X5801904Y3036385D01*
X5803015D01*
X5805052Y3036200D01*
D02*
G37*
G36*
X6210380Y2932137D02*
X6190752D01*
X6132425Y3067864D01*
X6152238D01*
X6210380Y2932137D01*
D02*
G37*
G36*
X6300000Y2841570D02*
X6293334Y2824905D01*
X6269078Y2838052D01*
Y2768244D01*
X6296853D01*
Y2750098D01*
X6224267D01*
Y2768244D01*
X6248154D01*
Y2859716D01*
X6265374D01*
X6300000Y2841570D01*
D02*
G37*
G36*
X5710432Y2836200D02*
X5712098Y2836015D01*
X5713394Y2835645D01*
X5713580Y2835459D01*
X5713765D01*
X5715431Y2834719D01*
X5716913Y2833978D01*
X5718024Y2833423D01*
X5718209Y2833052D01*
X5718394D01*
X5719875Y2831571D01*
X5721171Y2830275D01*
X5721912Y2829164D01*
X5722282Y2828793D01*
Y2828608D01*
X5723579Y2826571D01*
X5724690Y2824535D01*
X5725060Y2823609D01*
X5725430Y2822868D01*
X5725801Y2822498D01*
Y2822313D01*
X5726171Y2834719D01*
X5741169D01*
Y2750098D01*
X5723579D01*
Y2804907D01*
X5722468Y2807870D01*
X5721357Y2810462D01*
X5720431Y2812499D01*
X5719505Y2814165D01*
X5718764Y2815461D01*
X5718209Y2816202D01*
X5718024Y2816758D01*
X5717838Y2816943D01*
X5716913Y2818054D01*
X5715802Y2818980D01*
X5715061Y2819535D01*
X5714320Y2820091D01*
X5713209Y2820461D01*
X5712839D01*
X5711728Y2820276D01*
X5710987Y2820091D01*
X5710432Y2819720D01*
X5710247Y2819535D01*
X5709691Y2818794D01*
X5709136Y2818054D01*
X5708950Y2817498D01*
X5708765Y2817128D01*
X5708395Y2815832D01*
X5708210Y2814721D01*
X5708025Y2813610D01*
Y2813425D01*
Y2813239D01*
X5707839Y2811388D01*
Y2809536D01*
Y2808795D01*
Y2808240D01*
Y2807870D01*
Y2807685D01*
Y2750098D01*
X5690434D01*
Y2804907D01*
X5689323Y2807870D01*
X5688212Y2810462D01*
X5687286Y2812499D01*
X5686545Y2814165D01*
X5685805Y2815461D01*
X5685249Y2816202D01*
X5685064Y2816758D01*
X5684879Y2816943D01*
X5683953Y2818054D01*
X5683027Y2818980D01*
X5682101Y2819535D01*
X5681361Y2820091D01*
X5680065Y2820461D01*
X5679694D01*
X5678583Y2820276D01*
X5677843Y2820091D01*
X5677287Y2819720D01*
X5677102Y2819535D01*
X5676546Y2818794D01*
X5675991Y2818054D01*
X5675806Y2817498D01*
X5675621Y2817128D01*
X5675250Y2815832D01*
X5675065Y2814721D01*
X5674880Y2813610D01*
Y2813425D01*
Y2813239D01*
X5674695Y2811388D01*
Y2809536D01*
Y2808795D01*
Y2808240D01*
Y2807870D01*
Y2807685D01*
Y2750098D01*
X5657104D01*
Y2810647D01*
X5657289Y2815091D01*
X5657845Y2818980D01*
X5658585Y2822313D01*
X5659326Y2825090D01*
X5660067Y2827127D01*
X5660807Y2828608D01*
X5661363Y2829534D01*
X5661548Y2829904D01*
X5663400Y2832126D01*
X5665622Y2833608D01*
X5667844Y2834719D01*
X5670066Y2835645D01*
X5672102Y2836015D01*
X5673769Y2836200D01*
X5674880Y2836385D01*
X5675250D01*
X5677472Y2836200D01*
X5679139Y2836015D01*
X5679879Y2835830D01*
X5680435Y2835645D01*
X5680620Y2835459D01*
X5680805D01*
X5682472Y2834719D01*
X5683953Y2833978D01*
X5685064Y2833423D01*
X5685249Y2833052D01*
X5685434D01*
X5686916Y2831571D01*
X5688212Y2830275D01*
X5689138Y2829164D01*
X5689323Y2828793D01*
X5689508Y2828608D01*
X5690804Y2826571D01*
X5692100Y2824535D01*
X5692656Y2823609D01*
X5693026Y2822868D01*
X5693211Y2822498D01*
X5693397Y2822313D01*
X5693767Y2824535D01*
X5694322Y2826571D01*
X5695063Y2828423D01*
X5695804Y2829904D01*
X5696359Y2831015D01*
X5697100Y2831756D01*
X5697470Y2832312D01*
X5697655Y2832497D01*
X5699137Y2833793D01*
X5700803Y2834719D01*
X5702655Y2835459D01*
X5704321Y2835830D01*
X5705988Y2836200D01*
X5707284Y2836385D01*
X5708395D01*
X5710432Y2836200D01*
D02*
G37*
G36*
X5616553D02*
X5618219Y2836015D01*
X5619515Y2835645D01*
X5619700Y2835459D01*
X5619886D01*
X5621552Y2834719D01*
X5623033Y2833978D01*
X5624144Y2833423D01*
X5624330Y2833052D01*
X5624515D01*
X5625996Y2831571D01*
X5627292Y2830275D01*
X5628033Y2829164D01*
X5628403Y2828793D01*
Y2828608D01*
X5629699Y2826571D01*
X5630810Y2824535D01*
X5631181Y2823609D01*
X5631551Y2822868D01*
X5631921Y2822498D01*
Y2822313D01*
X5632292Y2834719D01*
X5647290D01*
Y2750098D01*
X5629699D01*
Y2804907D01*
X5628588Y2807870D01*
X5627477Y2810462D01*
X5626552Y2812499D01*
X5625626Y2814165D01*
X5624885Y2815461D01*
X5624330Y2816202D01*
X5624144Y2816758D01*
X5623959Y2816943D01*
X5623033Y2818054D01*
X5621922Y2818980D01*
X5621182Y2819535D01*
X5620441Y2820091D01*
X5619330Y2820461D01*
X5618960D01*
X5617849Y2820276D01*
X5617108Y2820091D01*
X5616553Y2819720D01*
X5616367Y2819535D01*
X5615812Y2818794D01*
X5615256Y2818054D01*
X5615071Y2817498D01*
X5614886Y2817128D01*
X5614516Y2815832D01*
X5614331Y2814721D01*
X5614145Y2813610D01*
Y2813425D01*
Y2813239D01*
X5613960Y2811388D01*
Y2809536D01*
Y2808795D01*
Y2808240D01*
Y2807870D01*
Y2807685D01*
Y2750098D01*
X5596555D01*
Y2804907D01*
X5595444Y2807870D01*
X5594333Y2810462D01*
X5593407Y2812499D01*
X5592666Y2814165D01*
X5591926Y2815461D01*
X5591370Y2816202D01*
X5591185Y2816758D01*
X5591000Y2816943D01*
X5590074Y2818054D01*
X5589148Y2818980D01*
X5588222Y2819535D01*
X5587482Y2820091D01*
X5586185Y2820461D01*
X5585815D01*
X5584704Y2820276D01*
X5583963Y2820091D01*
X5583408Y2819720D01*
X5583223Y2819535D01*
X5582667Y2818794D01*
X5582112Y2818054D01*
X5581927Y2817498D01*
X5581741Y2817128D01*
X5581371Y2815832D01*
X5581186Y2814721D01*
X5581001Y2813610D01*
Y2813425D01*
Y2813239D01*
X5580816Y2811388D01*
Y2809536D01*
Y2808795D01*
Y2808240D01*
Y2807870D01*
Y2807685D01*
Y2750098D01*
X5563225Y2750098D01*
Y2810647D01*
X5563410Y2815091D01*
X5563966Y2818979D01*
X5564706Y2822312D01*
X5565447Y2825090D01*
X5566187Y2827127D01*
X5566928Y2828608D01*
X5567484Y2829534D01*
X5567669Y2829904D01*
X5569520Y2832126D01*
X5571742Y2833607D01*
X5573964Y2834719D01*
X5576186Y2835645D01*
X5578223Y2836015D01*
X5579890Y2836200D01*
X5581001Y2836385D01*
X5581371D01*
X5583593Y2836200D01*
X5585260Y2836015D01*
X5586000Y2835830D01*
X5586556Y2835645D01*
X5586741Y2835459D01*
X5586926D01*
X5588593Y2834719D01*
X5590074Y2833978D01*
X5591185Y2833423D01*
X5591370Y2833052D01*
X5591555D01*
X5593037Y2831571D01*
X5594333Y2830275D01*
X5595259Y2829164D01*
X5595444Y2828793D01*
X5595629Y2828608D01*
X5596925Y2826571D01*
X5598221Y2824535D01*
X5598777Y2823609D01*
X5599147Y2822868D01*
X5599332Y2822498D01*
X5599517Y2822313D01*
X5599888Y2824535D01*
X5600443Y2826571D01*
X5601184Y2828423D01*
X5601925Y2829904D01*
X5602480Y2831015D01*
X5603221Y2831756D01*
X5603591Y2832312D01*
X5603776Y2832497D01*
X5605258Y2833793D01*
X5606924Y2834719D01*
X5608776Y2835459D01*
X5610442Y2835830D01*
X5612109Y2836200D01*
X5613405Y2836385D01*
X5614516D01*
X5616553Y2836200D01*
D02*
G37*
G36*
X5918929Y2801019D02*
X5897635D01*
X5892820Y2800833D01*
X5888932Y2800278D01*
X5885414Y2799537D01*
X5882821Y2798797D01*
X5880599Y2798056D01*
X5879118Y2797315D01*
X5878377Y2796760D01*
X5878007Y2796575D01*
X5875970Y2794723D01*
X5874489Y2792686D01*
X5873378Y2790649D01*
X5872637Y2788427D01*
X5872267Y2786576D01*
X5871897Y2785094D01*
Y2783983D01*
Y2783798D01*
Y2783613D01*
X5872267Y2780650D01*
X5873008Y2777873D01*
X5873933Y2775651D01*
X5875230Y2773799D01*
X5876526Y2772318D01*
X5877452Y2771207D01*
X5878192Y2770466D01*
X5878563Y2770281D01*
X5881155Y2768800D01*
X5884303Y2767689D01*
X5887451Y2766763D01*
X5890598Y2766207D01*
X5893376Y2765837D01*
X5894487D01*
X5895598Y2765652D01*
X5897635D01*
X5902264Y2765837D01*
X5904301D01*
X5906337Y2766022D01*
X5907819D01*
X5909115Y2766207D01*
X5910226D01*
X5912448Y2766578D01*
X5914485Y2766763D01*
X5916336Y2767133D01*
X5917818Y2767503D01*
X5919114Y2767874D01*
X5920225Y2768059D01*
X5920780Y2768244D01*
X5920966D01*
Y2750468D01*
X5919114Y2750283D01*
X5917447Y2749913D01*
X5916707D01*
X5916336Y2749728D01*
X5915781D01*
X5913744Y2749542D01*
X5911892Y2749357D01*
X5911152Y2749172D01*
X5910041D01*
X5907819Y2748987D01*
X5905967Y2748802D01*
X5905226Y2748617D01*
X5904115D01*
X5902079Y2748431D01*
X5898560D01*
X5894672Y2748617D01*
X5891154Y2748802D01*
X5887821Y2749172D01*
X5885043Y2749728D01*
X5882636Y2750098D01*
X5880785Y2750468D01*
X5880229Y2750653D01*
X5879674D01*
X5879488Y2750839D01*
X5879303D01*
X5876155Y2751764D01*
X5873193Y2752875D01*
X5870600Y2754172D01*
X5868193Y2755283D01*
X5866527Y2756208D01*
X5865045Y2757134D01*
X5864305Y2757690D01*
X5863934Y2757875D01*
X5861712Y2759727D01*
X5859676Y2761578D01*
X5857824Y2763430D01*
X5856343Y2765281D01*
X5855232Y2766763D01*
X5854491Y2768059D01*
X5853935Y2768800D01*
X5853750Y2769170D01*
X5852454Y2771762D01*
X5851528Y2774540D01*
X5850973Y2777132D01*
X5850417Y2779539D01*
X5850232Y2781761D01*
X5850047Y2783428D01*
Y2784539D01*
Y2784724D01*
Y2784909D01*
X5850232Y2788427D01*
X5850602Y2791390D01*
X5851158Y2794167D01*
X5851713Y2796575D01*
X5852454Y2798426D01*
X5853010Y2799722D01*
X5853380Y2800463D01*
X5853565Y2800833D01*
X5855046Y2803055D01*
X5856528Y2805092D01*
X5858009Y2806759D01*
X5859490Y2808240D01*
X5860787Y2809351D01*
X5861898Y2810092D01*
X5862638Y2810647D01*
X5862823Y2810832D01*
X5865045Y2812128D01*
X5867267Y2813239D01*
X5869489Y2814165D01*
X5871711Y2814906D01*
X5873378Y2815276D01*
X5874859Y2815647D01*
X5875785Y2816017D01*
X5876155D01*
X5881896Y2816943D01*
X5884488Y2817313D01*
X5886895Y2817498D01*
X5889117Y2817683D01*
X5899857D01*
Y2839718D01*
X5855972D01*
Y2858975D01*
X5918929D01*
Y2801019D01*
D02*
G37*
G36*
X6077246Y2860642D02*
X6080764Y2860272D01*
X6083912Y2859531D01*
X6086689Y2858975D01*
X6088911Y2858235D01*
X6090578Y2857494D01*
X6091689Y2857124D01*
X6091874Y2856939D01*
X6092059D01*
X6095022Y2855272D01*
X6097614Y2853606D01*
X6100021Y2851754D01*
X6102058Y2849902D01*
X6103724Y2848236D01*
X6104835Y2846940D01*
X6105761Y2846014D01*
X6105946Y2845644D01*
X6107983Y2842866D01*
X6109650Y2839903D01*
X6111131Y2836941D01*
X6112242Y2833978D01*
X6113168Y2831571D01*
X6113909Y2829719D01*
X6114094Y2828979D01*
X6114279Y2828423D01*
X6114464Y2828053D01*
Y2827868D01*
X6115390Y2823794D01*
X6116131Y2819720D01*
X6116501Y2815647D01*
X6116871Y2811943D01*
X6117056Y2808795D01*
X6117242Y2807314D01*
Y2806203D01*
Y2805277D01*
Y2804537D01*
Y2804166D01*
Y2803981D01*
X6117056Y2798611D01*
X6116686Y2793797D01*
X6116316Y2789538D01*
X6115760Y2785835D01*
X6115390Y2784168D01*
X6115205Y2782687D01*
X6115020Y2781576D01*
X6114649Y2780465D01*
X6114464Y2779724D01*
Y2779169D01*
X6114279Y2778799D01*
Y2778613D01*
X6112983Y2774910D01*
X6111687Y2771392D01*
X6110205Y2768429D01*
X6108909Y2766022D01*
X6107613Y2763985D01*
X6106687Y2762504D01*
X6105946Y2761578D01*
X6105761Y2761208D01*
X6103539Y2758801D01*
X6101317Y2756949D01*
X6099095Y2755097D01*
X6097058Y2753801D01*
X6095392Y2752690D01*
X6093911Y2751950D01*
X6092985Y2751579D01*
X6092614Y2751394D01*
X6089652Y2750283D01*
X6086874Y2749542D01*
X6083912Y2748987D01*
X6081504Y2748617D01*
X6079282Y2748431D01*
X6077431Y2748246D01*
X6075949D01*
X6072246Y2748431D01*
X6068728Y2748802D01*
X6065580Y2749357D01*
X6062803Y2750098D01*
X6060766Y2750839D01*
X6059099Y2751394D01*
X6057988Y2751764D01*
X6057618Y2751950D01*
X6054655Y2753616D01*
X6052063Y2755283D01*
X6049656Y2757134D01*
X6047619Y2758986D01*
X6046138Y2760652D01*
X6044842Y2761949D01*
X6044101Y2762689D01*
X6043916Y2763059D01*
X6041879Y2766022D01*
X6040212Y2768985D01*
X6038546Y2771947D01*
X6037435Y2774910D01*
X6036509Y2777317D01*
X6035768Y2779354D01*
X6035583Y2780095D01*
X6035398Y2780650D01*
X6035213Y2780835D01*
Y2781021D01*
X6034287Y2785094D01*
X6033546Y2789168D01*
X6032991Y2793242D01*
X6032621Y2796945D01*
X6032435Y2800093D01*
X6032250Y2801574D01*
Y2802685D01*
Y2803611D01*
Y2804352D01*
Y2804722D01*
Y2804907D01*
X6032435Y2810277D01*
X6032806Y2815091D01*
X6033176Y2819535D01*
X6033732Y2823238D01*
X6034102Y2824720D01*
X6034472Y2826201D01*
X6034657Y2827312D01*
X6034843Y2828423D01*
X6035028Y2829164D01*
X6035213Y2829719D01*
X6035398Y2830090D01*
Y2830275D01*
X6036694Y2833978D01*
X6037990Y2837496D01*
X6039472Y2840459D01*
X6040953Y2842866D01*
X6042249Y2844903D01*
X6043175Y2846384D01*
X6043916Y2847125D01*
X6044101Y2847495D01*
X6046138Y2849902D01*
X6048360Y2851939D01*
X6050582Y2853606D01*
X6052619Y2855087D01*
X6054285Y2856198D01*
X6055766Y2856939D01*
X6056692Y2857309D01*
X6057063Y2857494D01*
X6060025Y2858605D01*
X6062803Y2859346D01*
X6065580Y2860086D01*
X6068173Y2860457D01*
X6070395Y2860642D01*
X6072061Y2860827D01*
X6073542D01*
X6077246Y2860642D01*
D02*
G37*
G36*
X5983922Y2780650D02*
X5985959Y2780280D01*
X5986699Y2779910D01*
X5987255Y2779724D01*
X5987625Y2779539D01*
X5987810D01*
X5989847Y2778428D01*
X5991514Y2777317D01*
X5992625Y2776391D01*
X5992810Y2776206D01*
X5992995Y2776021D01*
X5994291Y2774169D01*
X5995402Y2772503D01*
X5995773Y2771762D01*
X5996143Y2771207D01*
X5996328Y2770836D01*
Y2770651D01*
X5996884Y2768429D01*
X5997254Y2766392D01*
X5997439Y2765652D01*
Y2764911D01*
Y2764541D01*
Y2764356D01*
X5997254Y2761949D01*
X5996884Y2759912D01*
X5996698Y2759171D01*
X5996513Y2758616D01*
X5996328Y2758245D01*
Y2758060D01*
X5995217Y2756023D01*
X5994106Y2754357D01*
X5993365Y2753246D01*
X5992995Y2753061D01*
Y2752875D01*
X5991329Y2751394D01*
X5989477Y2750468D01*
X5988921Y2750098D01*
X5988366Y2749728D01*
X5987996Y2749542D01*
X5987810D01*
X5985588Y2748802D01*
X5983552Y2748431D01*
X5982811Y2748246D01*
X5981515D01*
X5978923Y2748431D01*
X5976886Y2748987D01*
X5976145Y2749172D01*
X5975590Y2749357D01*
X5975219Y2749542D01*
X5975034D01*
X5972997Y2750468D01*
X5971331Y2751579D01*
X5970220Y2752505D01*
X5970035Y2752875D01*
X5969849D01*
X5968368Y2754542D01*
X5967257Y2756394D01*
X5966887Y2756949D01*
X5966516Y2757505D01*
X5966331Y2757875D01*
Y2758060D01*
X5965591Y2760282D01*
X5965220Y2762319D01*
X5965035Y2763059D01*
Y2763800D01*
Y2764170D01*
Y2764356D01*
X5965220Y2766763D01*
X5965591Y2768800D01*
X5965961Y2769540D01*
X5966146Y2770096D01*
X5966331Y2770466D01*
Y2770651D01*
X5967442Y2772873D01*
X5968553Y2774540D01*
X5969479Y2775651D01*
X5969664Y2775836D01*
X5969849Y2776021D01*
X5971516Y2777502D01*
X5973182Y2778613D01*
X5973923Y2778984D01*
X5974479Y2779354D01*
X5974849Y2779539D01*
X5975034D01*
X5977256Y2780280D01*
X5979293Y2780650D01*
X5980219Y2780835D01*
X5981515D01*
X5983922Y2780650D01*
D02*
G37*
G36*
X6209639Y2732137D02*
X6190012D01*
X6131684Y2867863D01*
X6151497D01*
X6209639Y2732137D01*
D02*
G37*
G36*
X6300000Y2641570D02*
X6293334Y2624905D01*
X6269078Y2638052D01*
Y2568244D01*
X6296853D01*
Y2550098D01*
X6224267D01*
Y2568244D01*
X6248154D01*
Y2659716D01*
X6265374D01*
X6300000Y2641570D01*
D02*
G37*
G36*
X5710432Y2636200D02*
X5712098Y2636015D01*
X5713394Y2635645D01*
X5713580Y2635460D01*
X5713765D01*
X5715431Y2634719D01*
X5716913Y2633978D01*
X5718024Y2633423D01*
X5718209Y2633052D01*
X5718394D01*
X5719875Y2631571D01*
X5721171Y2630275D01*
X5721912Y2629164D01*
X5722282Y2628794D01*
Y2628608D01*
X5723579Y2626572D01*
X5724690Y2624535D01*
X5725060Y2623609D01*
X5725430Y2622868D01*
X5725801Y2622498D01*
Y2622313D01*
X5726171Y2634719D01*
X5741169D01*
Y2550098D01*
X5723579D01*
Y2604907D01*
X5722468Y2607870D01*
X5721357Y2610462D01*
X5720431Y2612499D01*
X5719505Y2614165D01*
X5718764Y2615462D01*
X5718209Y2616202D01*
X5718024Y2616758D01*
X5717838Y2616943D01*
X5716913Y2618054D01*
X5715802Y2618980D01*
X5715061Y2619535D01*
X5714320Y2620091D01*
X5713209Y2620461D01*
X5712839D01*
X5711728Y2620276D01*
X5710987Y2620091D01*
X5710432Y2619720D01*
X5710247Y2619535D01*
X5709691Y2618795D01*
X5709136Y2618054D01*
X5708950Y2617498D01*
X5708765Y2617128D01*
X5708395Y2615832D01*
X5708210Y2614721D01*
X5708025Y2613610D01*
Y2613425D01*
Y2613240D01*
X5707839Y2611388D01*
Y2609536D01*
Y2608796D01*
Y2608240D01*
Y2607870D01*
Y2607685D01*
Y2550098D01*
X5690434D01*
Y2604907D01*
X5689323Y2607870D01*
X5688212Y2610462D01*
X5687286Y2612499D01*
X5686545Y2614165D01*
X5685805Y2615462D01*
X5685249Y2616202D01*
X5685064Y2616758D01*
X5684879Y2616943D01*
X5683953Y2618054D01*
X5683027Y2618980D01*
X5682101Y2619535D01*
X5681361Y2620091D01*
X5680065Y2620461D01*
X5679694D01*
X5678583Y2620276D01*
X5677843Y2620091D01*
X5677287Y2619720D01*
X5677102Y2619535D01*
X5676546Y2618795D01*
X5675991Y2618054D01*
X5675806Y2617498D01*
X5675621Y2617128D01*
X5675250Y2615832D01*
X5675065Y2614721D01*
X5674880Y2613610D01*
Y2613425D01*
Y2613240D01*
X5674695Y2611388D01*
Y2609536D01*
Y2608796D01*
Y2608240D01*
Y2607870D01*
Y2607685D01*
Y2550098D01*
X5657104D01*
Y2610647D01*
X5657289Y2615091D01*
X5657845Y2618980D01*
X5658585Y2622313D01*
X5659326Y2625090D01*
X5660067Y2627127D01*
X5660807Y2628608D01*
X5661363Y2629534D01*
X5661548Y2629905D01*
X5663400Y2632127D01*
X5665622Y2633608D01*
X5667844Y2634719D01*
X5670066Y2635645D01*
X5672102Y2636015D01*
X5673769Y2636200D01*
X5674880Y2636385D01*
X5675250D01*
X5677472Y2636200D01*
X5679139Y2636015D01*
X5679879Y2635830D01*
X5680435Y2635645D01*
X5680620Y2635460D01*
X5680805D01*
X5682472Y2634719D01*
X5683953Y2633978D01*
X5685064Y2633423D01*
X5685249Y2633052D01*
X5685434D01*
X5686916Y2631571D01*
X5688212Y2630275D01*
X5689138Y2629164D01*
X5689323Y2628794D01*
X5689508Y2628608D01*
X5690804Y2626572D01*
X5692100Y2624535D01*
X5692656Y2623609D01*
X5693026Y2622868D01*
X5693211Y2622498D01*
X5693397Y2622313D01*
X5693767Y2624535D01*
X5694322Y2626572D01*
X5695063Y2628423D01*
X5695804Y2629905D01*
X5696359Y2631016D01*
X5697100Y2631756D01*
X5697470Y2632312D01*
X5697655Y2632497D01*
X5699137Y2633793D01*
X5700803Y2634719D01*
X5702655Y2635460D01*
X5704321Y2635830D01*
X5705988Y2636200D01*
X5707284Y2636385D01*
X5708395D01*
X5710432Y2636200D01*
D02*
G37*
G36*
X5616553D02*
X5618219Y2636015D01*
X5619515Y2635645D01*
X5619700Y2635460D01*
X5619886D01*
X5621552Y2634719D01*
X5623033Y2633978D01*
X5624144Y2633423D01*
X5624330Y2633052D01*
X5624515D01*
X5625996Y2631571D01*
X5627292Y2630275D01*
X5628033Y2629164D01*
X5628403Y2628794D01*
Y2628608D01*
X5629699Y2626572D01*
X5630810Y2624535D01*
X5631181Y2623609D01*
X5631551Y2622868D01*
X5631921Y2622498D01*
Y2622313D01*
X5632292Y2634719D01*
X5647290D01*
Y2550098D01*
X5629699D01*
Y2604907D01*
X5628588Y2607870D01*
X5627477Y2610462D01*
X5626552Y2612499D01*
X5625626Y2614165D01*
X5624885Y2615462D01*
X5624330Y2616202D01*
X5624144Y2616758D01*
X5623959Y2616943D01*
X5623033Y2618054D01*
X5621922Y2618980D01*
X5621182Y2619535D01*
X5620441Y2620091D01*
X5619330Y2620461D01*
X5618960D01*
X5617849Y2620276D01*
X5617108Y2620091D01*
X5616553Y2619720D01*
X5616367Y2619535D01*
X5615812Y2618795D01*
X5615256Y2618054D01*
X5615071Y2617498D01*
X5614886Y2617128D01*
X5614516Y2615832D01*
X5614331Y2614721D01*
X5614145Y2613610D01*
Y2613425D01*
Y2613240D01*
X5613960Y2611388D01*
Y2609536D01*
Y2608796D01*
Y2608240D01*
Y2607870D01*
Y2607685D01*
Y2550098D01*
X5596555D01*
Y2604907D01*
X5595444Y2607870D01*
X5594333Y2610462D01*
X5593407Y2612499D01*
X5592666Y2614165D01*
X5591926Y2615462D01*
X5591370Y2616202D01*
X5591185Y2616758D01*
X5591000Y2616943D01*
X5590074Y2618054D01*
X5589148Y2618980D01*
X5588222Y2619535D01*
X5587482Y2620091D01*
X5586185Y2620461D01*
X5585815D01*
X5584704Y2620276D01*
X5583963Y2620091D01*
X5583408Y2619720D01*
X5583223Y2619535D01*
X5582667Y2618795D01*
X5582112Y2618054D01*
X5581927Y2617498D01*
X5581741Y2617128D01*
X5581371Y2615832D01*
X5581186Y2614721D01*
X5581001Y2613610D01*
Y2613425D01*
Y2613240D01*
X5580816Y2611388D01*
Y2609536D01*
Y2608796D01*
Y2608240D01*
Y2607870D01*
Y2607685D01*
Y2550098D01*
X5563225Y2550098D01*
Y2610647D01*
X5563410Y2615091D01*
X5563966Y2618980D01*
X5564706Y2622313D01*
X5565447Y2625090D01*
X5566187Y2627127D01*
X5566928Y2628608D01*
X5567484Y2629534D01*
X5567669Y2629904D01*
X5569520Y2632126D01*
X5571742Y2633608D01*
X5573964Y2634719D01*
X5576186Y2635645D01*
X5578223Y2636015D01*
X5579890Y2636200D01*
X5581001Y2636385D01*
X5581371D01*
X5583593Y2636200D01*
X5585260Y2636015D01*
X5586000Y2635830D01*
X5586556Y2635645D01*
X5586741Y2635460D01*
X5586926D01*
X5588593Y2634719D01*
X5590074Y2633978D01*
X5591185Y2633423D01*
X5591370Y2633052D01*
X5591555D01*
X5593037Y2631571D01*
X5594333Y2630275D01*
X5595259Y2629164D01*
X5595444Y2628794D01*
X5595629Y2628608D01*
X5596925Y2626572D01*
X5598221Y2624535D01*
X5598777Y2623609D01*
X5599147Y2622868D01*
X5599332Y2622498D01*
X5599517Y2622313D01*
X5599888Y2624535D01*
X5600443Y2626572D01*
X5601184Y2628423D01*
X5601925Y2629905D01*
X5602480Y2631016D01*
X5603221Y2631756D01*
X5603591Y2632312D01*
X5603776Y2632497D01*
X5605258Y2633793D01*
X5606924Y2634719D01*
X5608776Y2635460D01*
X5610442Y2635830D01*
X5612109Y2636200D01*
X5613405Y2636385D01*
X5614516D01*
X5616553Y2636200D01*
D02*
G37*
G36*
X5876155Y2658605D02*
X5879674Y2658235D01*
X5882636Y2657865D01*
X5885229Y2657494D01*
X5886895Y2657124D01*
X5887636Y2656939D01*
X5888191D01*
X5888376Y2656754D01*
X5888562D01*
X5891709Y2655828D01*
X5894672Y2654902D01*
X5897264Y2653976D01*
X5899486Y2653050D01*
X5901153Y2652124D01*
X5902634Y2651384D01*
X5903375Y2651013D01*
X5903745Y2650828D01*
X5905967Y2649347D01*
X5908004Y2647681D01*
X5909856Y2646199D01*
X5911337Y2644718D01*
X5912633Y2643422D01*
X5913559Y2642311D01*
X5914114Y2641570D01*
X5914300Y2641385D01*
X5917077Y2637126D01*
X5918373Y2634904D01*
X5919299Y2633052D01*
X5920040Y2631386D01*
X5920595Y2629905D01*
X5920966Y2629164D01*
X5921151Y2628794D01*
X5922817Y2623609D01*
X5923373Y2621017D01*
X5923928Y2618795D01*
X5924299Y2616758D01*
X5924669Y2615091D01*
X5924854Y2614165D01*
Y2613980D01*
Y2613795D01*
X5925410Y2607870D01*
X5925595Y2604907D01*
Y2602315D01*
X5925780Y2600093D01*
Y2598241D01*
Y2597130D01*
Y2596945D01*
Y2596760D01*
X5925595Y2592316D01*
X5925410Y2588057D01*
X5924854Y2584169D01*
X5924299Y2580650D01*
X5923373Y2577317D01*
X5922632Y2574355D01*
X5921706Y2571577D01*
X5920780Y2569170D01*
X5919855Y2567133D01*
X5918929Y2565282D01*
X5918003Y2563615D01*
X5917262Y2562319D01*
X5916707Y2561393D01*
X5916151Y2560652D01*
X5915966Y2560282D01*
X5915781Y2560097D01*
X5913744Y2558060D01*
X5911707Y2556209D01*
X5909300Y2554542D01*
X5907078Y2553246D01*
X5904671Y2552135D01*
X5902264Y2551209D01*
X5897449Y2549728D01*
X5895227Y2549172D01*
X5893191Y2548802D01*
X5891524Y2548617D01*
X5889858Y2548432D01*
X5888562Y2548246D01*
X5886710D01*
X5883377Y2548432D01*
X5880414Y2548617D01*
X5877637Y2548987D01*
X5875230Y2549543D01*
X5873378Y2549913D01*
X5871897Y2550283D01*
X5870971Y2550468D01*
X5870600Y2550654D01*
X5868008Y2551765D01*
X5865416Y2552876D01*
X5863379Y2554172D01*
X5861527Y2555283D01*
X5860046Y2556394D01*
X5858935Y2557319D01*
X5858194Y2557875D01*
X5858009Y2558060D01*
X5856157Y2559912D01*
X5854491Y2561949D01*
X5853010Y2563800D01*
X5851899Y2565652D01*
X5850973Y2567133D01*
X5850232Y2568429D01*
X5849862Y2569170D01*
X5849677Y2569540D01*
X5848566Y2572133D01*
X5847825Y2574725D01*
X5847269Y2577317D01*
X5846899Y2579539D01*
X5846714Y2581576D01*
X5846529Y2583243D01*
Y2584169D01*
Y2584539D01*
Y2587316D01*
X5846899Y2589909D01*
X5847269Y2592316D01*
X5847640Y2594353D01*
X5848010Y2596019D01*
X5848380Y2597315D01*
X5848566Y2598241D01*
X5848751Y2598426D01*
X5849677Y2600648D01*
X5850788Y2602685D01*
X5851899Y2604537D01*
X5853010Y2606018D01*
X5853935Y2607314D01*
X5854861Y2608240D01*
X5855417Y2608796D01*
X5855602Y2608981D01*
X5857268Y2610462D01*
X5859120Y2611943D01*
X5860972Y2613054D01*
X5862823Y2613980D01*
X5864305Y2614721D01*
X5865601Y2615276D01*
X5866342Y2615462D01*
X5866712Y2615647D01*
X5869304Y2616387D01*
X5871897Y2617128D01*
X5874489Y2617498D01*
X5876896Y2617684D01*
X5878933Y2617869D01*
X5880599Y2618054D01*
X5882081D01*
X5886525Y2617869D01*
X5888376Y2617684D01*
X5890228Y2617313D01*
X5891709Y2617128D01*
X5892820Y2616758D01*
X5893561Y2616573D01*
X5893746D01*
X5895783Y2616017D01*
X5897635Y2615462D01*
X5899301Y2614906D01*
X5900782Y2614351D01*
X5901893Y2613980D01*
X5902819Y2613610D01*
X5903375Y2613425D01*
X5903560Y2613240D01*
X5903375Y2615091D01*
X5903190Y2617313D01*
X5902819Y2619535D01*
X5902449Y2621387D01*
X5901893Y2623053D01*
X5901523Y2624350D01*
X5901338Y2625275D01*
X5900968Y2626016D01*
Y2626201D01*
X5900227Y2628053D01*
X5899301Y2629534D01*
X5898375Y2631016D01*
X5897449Y2632312D01*
X5896524Y2633238D01*
X5895783Y2633978D01*
X5895413Y2634349D01*
X5895227Y2634534D01*
X5893746Y2635830D01*
X5892080Y2636941D01*
X5888747Y2638607D01*
X5887451Y2639163D01*
X5886154Y2639533D01*
X5885414Y2639904D01*
X5885229D01*
X5882821Y2640459D01*
X5880229Y2641015D01*
X5877822Y2641385D01*
X5875415Y2641570D01*
X5873378Y2641755D01*
X5855602D01*
Y2658976D01*
X5872267D01*
X5876155Y2658605D01*
D02*
G37*
G36*
X6077246Y2660642D02*
X6080764Y2660272D01*
X6083912Y2659531D01*
X6086689Y2658976D01*
X6088911Y2658235D01*
X6090578Y2657494D01*
X6091689Y2657124D01*
X6091874Y2656939D01*
X6092059D01*
X6095022Y2655272D01*
X6097614Y2653606D01*
X6100021Y2651754D01*
X6102058Y2649902D01*
X6103724Y2648236D01*
X6104835Y2646940D01*
X6105761Y2646014D01*
X6105946Y2645644D01*
X6107983Y2642866D01*
X6109650Y2639904D01*
X6111131Y2636941D01*
X6112242Y2633978D01*
X6113168Y2631571D01*
X6113909Y2629719D01*
X6114094Y2628979D01*
X6114279Y2628423D01*
X6114464Y2628053D01*
Y2627868D01*
X6115390Y2623794D01*
X6116131Y2619720D01*
X6116501Y2615647D01*
X6116871Y2611943D01*
X6117056Y2608796D01*
X6117242Y2607314D01*
Y2606203D01*
Y2605277D01*
Y2604537D01*
Y2604166D01*
Y2603981D01*
X6117056Y2598612D01*
X6116686Y2593797D01*
X6116316Y2589538D01*
X6115760Y2585835D01*
X6115390Y2584169D01*
X6115205Y2582687D01*
X6115020Y2581576D01*
X6114649Y2580465D01*
X6114464Y2579725D01*
Y2579169D01*
X6114279Y2578799D01*
Y2578614D01*
X6112983Y2574910D01*
X6111687Y2571392D01*
X6110205Y2568429D01*
X6108909Y2566022D01*
X6107613Y2563985D01*
X6106687Y2562504D01*
X6105946Y2561578D01*
X6105761Y2561208D01*
X6103539Y2558801D01*
X6101317Y2556949D01*
X6099095Y2555098D01*
X6097058Y2553801D01*
X6095392Y2552690D01*
X6093911Y2551950D01*
X6092985Y2551579D01*
X6092614Y2551394D01*
X6089652Y2550283D01*
X6086874Y2549543D01*
X6083912Y2548987D01*
X6081504Y2548617D01*
X6079282Y2548432D01*
X6077431Y2548246D01*
X6075949D01*
X6072246Y2548432D01*
X6068728Y2548802D01*
X6065580Y2549357D01*
X6062803Y2550098D01*
X6060766Y2550839D01*
X6059099Y2551394D01*
X6057988Y2551765D01*
X6057618Y2551950D01*
X6054655Y2553616D01*
X6052063Y2555283D01*
X6049656Y2557134D01*
X6047619Y2558986D01*
X6046138Y2560652D01*
X6044842Y2561949D01*
X6044101Y2562689D01*
X6043916Y2563060D01*
X6041879Y2566022D01*
X6040212Y2568985D01*
X6038546Y2571948D01*
X6037435Y2574910D01*
X6036509Y2577317D01*
X6035768Y2579354D01*
X6035583Y2580095D01*
X6035398Y2580650D01*
X6035213Y2580836D01*
Y2581021D01*
X6034287Y2585094D01*
X6033546Y2589168D01*
X6032991Y2593242D01*
X6032621Y2596945D01*
X6032435Y2600093D01*
X6032250Y2601574D01*
Y2602685D01*
Y2603611D01*
Y2604352D01*
Y2604722D01*
Y2604907D01*
X6032435Y2610277D01*
X6032806Y2615091D01*
X6033176Y2619535D01*
X6033732Y2623239D01*
X6034102Y2624720D01*
X6034472Y2626201D01*
X6034657Y2627312D01*
X6034843Y2628423D01*
X6035028Y2629164D01*
X6035213Y2629719D01*
X6035398Y2630090D01*
Y2630275D01*
X6036694Y2633978D01*
X6037990Y2637496D01*
X6039472Y2640459D01*
X6040953Y2642866D01*
X6042249Y2644903D01*
X6043175Y2646384D01*
X6043916Y2647125D01*
X6044101Y2647495D01*
X6046138Y2649902D01*
X6048360Y2651939D01*
X6050582Y2653606D01*
X6052619Y2655087D01*
X6054285Y2656198D01*
X6055766Y2656939D01*
X6056692Y2657309D01*
X6057063Y2657494D01*
X6060025Y2658605D01*
X6062803Y2659346D01*
X6065580Y2660087D01*
X6068173Y2660457D01*
X6070395Y2660642D01*
X6072061Y2660827D01*
X6073542D01*
X6077246Y2660642D01*
D02*
G37*
G36*
X5983922Y2580650D02*
X5985959Y2580280D01*
X5986699Y2579910D01*
X5987255Y2579725D01*
X5987625Y2579539D01*
X5987810D01*
X5989847Y2578428D01*
X5991514Y2577317D01*
X5992625Y2576392D01*
X5992810Y2576206D01*
X5992995Y2576021D01*
X5994291Y2574170D01*
X5995402Y2572503D01*
X5995773Y2571762D01*
X5996143Y2571207D01*
X5996328Y2570837D01*
Y2570651D01*
X5996884Y2568429D01*
X5997254Y2566393D01*
X5997439Y2565652D01*
Y2564911D01*
Y2564541D01*
Y2564356D01*
X5997254Y2561949D01*
X5996884Y2559912D01*
X5996698Y2559171D01*
X5996513Y2558616D01*
X5996328Y2558245D01*
Y2558060D01*
X5995217Y2556023D01*
X5994106Y2554357D01*
X5993365Y2553246D01*
X5992995Y2553061D01*
Y2552876D01*
X5991329Y2551394D01*
X5989477Y2550468D01*
X5988921Y2550098D01*
X5988366Y2549728D01*
X5987996Y2549543D01*
X5987810D01*
X5985588Y2548802D01*
X5983552Y2548432D01*
X5982811Y2548246D01*
X5981515D01*
X5978923Y2548432D01*
X5976886Y2548987D01*
X5976145Y2549172D01*
X5975590Y2549357D01*
X5975219Y2549543D01*
X5975034D01*
X5972997Y2550468D01*
X5971331Y2551579D01*
X5970220Y2552505D01*
X5970035Y2552876D01*
X5969849D01*
X5968368Y2554542D01*
X5967257Y2556394D01*
X5966887Y2556949D01*
X5966516Y2557505D01*
X5966331Y2557875D01*
Y2558060D01*
X5965591Y2560282D01*
X5965220Y2562319D01*
X5965035Y2563060D01*
Y2563800D01*
Y2564171D01*
Y2564356D01*
X5965220Y2566763D01*
X5965591Y2568800D01*
X5965961Y2569540D01*
X5966146Y2570096D01*
X5966331Y2570466D01*
Y2570651D01*
X5967442Y2572873D01*
X5968553Y2574540D01*
X5969479Y2575651D01*
X5969664Y2575836D01*
X5969849Y2576021D01*
X5971516Y2577503D01*
X5973182Y2578614D01*
X5973923Y2578984D01*
X5974479Y2579354D01*
X5974849Y2579539D01*
X5975034D01*
X5977256Y2580280D01*
X5979293Y2580650D01*
X5980219Y2580836D01*
X5981515D01*
X5983922Y2580650D01*
D02*
G37*
G36*
X6209639Y2532137D02*
X6190012D01*
X6131684Y2667864D01*
X6151497D01*
X6209639Y2532137D01*
D02*
G37*
G36*
X6300000Y2441570D02*
X6293334Y2424905D01*
X6269078Y2438052D01*
Y2368244D01*
X6296853D01*
Y2350098D01*
X6224267D01*
Y2368244D01*
X6248154D01*
Y2459716D01*
X6265374D01*
X6300000Y2441570D01*
D02*
G37*
G36*
X5710432Y2436200D02*
X5712098Y2436015D01*
X5713394Y2435645D01*
X5713580Y2435459D01*
X5713765D01*
X5715431Y2434719D01*
X5716913Y2433978D01*
X5718024Y2433423D01*
X5718209Y2433052D01*
X5718394D01*
X5719875Y2431571D01*
X5721171Y2430275D01*
X5721912Y2429164D01*
X5722282Y2428793D01*
Y2428608D01*
X5723579Y2426571D01*
X5724690Y2424535D01*
X5725060Y2423609D01*
X5725430Y2422868D01*
X5725801Y2422498D01*
Y2422313D01*
X5726171Y2434719D01*
X5741169D01*
Y2350098D01*
X5723579D01*
Y2404907D01*
X5722468Y2407870D01*
X5721357Y2410462D01*
X5720431Y2412499D01*
X5719505Y2414165D01*
X5718764Y2415462D01*
X5718209Y2416202D01*
X5718024Y2416758D01*
X5717838Y2416943D01*
X5716913Y2418054D01*
X5715802Y2418980D01*
X5715061Y2419535D01*
X5714320Y2420091D01*
X5713209Y2420461D01*
X5712839D01*
X5711728Y2420276D01*
X5710987Y2420091D01*
X5710432Y2419720D01*
X5710247Y2419535D01*
X5709691Y2418795D01*
X5709136Y2418054D01*
X5708950Y2417498D01*
X5708765Y2417128D01*
X5708395Y2415832D01*
X5708210Y2414721D01*
X5708025Y2413610D01*
Y2413425D01*
Y2413240D01*
X5707839Y2411388D01*
Y2409536D01*
Y2408796D01*
Y2408240D01*
Y2407870D01*
Y2407685D01*
Y2350098D01*
X5690434D01*
Y2404907D01*
X5689323Y2407870D01*
X5688212Y2410462D01*
X5687286Y2412499D01*
X5686545Y2414165D01*
X5685805Y2415462D01*
X5685249Y2416202D01*
X5685064Y2416758D01*
X5684879Y2416943D01*
X5683953Y2418054D01*
X5683027Y2418980D01*
X5682101Y2419535D01*
X5681361Y2420091D01*
X5680065Y2420461D01*
X5679694D01*
X5678583Y2420276D01*
X5677843Y2420091D01*
X5677287Y2419720D01*
X5677102Y2419535D01*
X5676546Y2418795D01*
X5675991Y2418054D01*
X5675806Y2417498D01*
X5675621Y2417128D01*
X5675250Y2415832D01*
X5675065Y2414721D01*
X5674880Y2413610D01*
Y2413425D01*
Y2413240D01*
X5674695Y2411388D01*
Y2409536D01*
Y2408796D01*
Y2408240D01*
Y2407870D01*
Y2407685D01*
Y2350098D01*
X5657104D01*
Y2410647D01*
X5657289Y2415091D01*
X5657845Y2418980D01*
X5658585Y2422313D01*
X5659326Y2425090D01*
X5660067Y2427127D01*
X5660807Y2428608D01*
X5661363Y2429534D01*
X5661548Y2429904D01*
X5663400Y2432126D01*
X5665622Y2433608D01*
X5667844Y2434719D01*
X5670066Y2435645D01*
X5672102Y2436015D01*
X5673769Y2436200D01*
X5674880Y2436385D01*
X5675250D01*
X5677472Y2436200D01*
X5679139Y2436015D01*
X5679879Y2435830D01*
X5680435Y2435645D01*
X5680620Y2435459D01*
X5680805D01*
X5682472Y2434719D01*
X5683953Y2433978D01*
X5685064Y2433423D01*
X5685249Y2433052D01*
X5685434D01*
X5686916Y2431571D01*
X5688212Y2430275D01*
X5689138Y2429164D01*
X5689323Y2428793D01*
X5689508Y2428608D01*
X5690804Y2426571D01*
X5692100Y2424535D01*
X5692656Y2423609D01*
X5693026Y2422868D01*
X5693211Y2422498D01*
X5693397Y2422313D01*
X5693767Y2424535D01*
X5694322Y2426571D01*
X5695063Y2428423D01*
X5695804Y2429904D01*
X5696359Y2431015D01*
X5697100Y2431756D01*
X5697470Y2432312D01*
X5697655Y2432497D01*
X5699137Y2433793D01*
X5700803Y2434719D01*
X5702655Y2435459D01*
X5704321Y2435830D01*
X5705988Y2436200D01*
X5707284Y2436385D01*
X5708395D01*
X5710432Y2436200D01*
D02*
G37*
G36*
X5616553D02*
X5618219Y2436015D01*
X5619515Y2435645D01*
X5619700Y2435459D01*
X5619886D01*
X5621552Y2434719D01*
X5623033Y2433978D01*
X5624144Y2433423D01*
X5624330Y2433052D01*
X5624515D01*
X5625996Y2431571D01*
X5627292Y2430275D01*
X5628033Y2429164D01*
X5628403Y2428793D01*
Y2428608D01*
X5629699Y2426571D01*
X5630810Y2424535D01*
X5631181Y2423609D01*
X5631551Y2422868D01*
X5631921Y2422498D01*
Y2422313D01*
X5632292Y2434719D01*
X5647290D01*
Y2350098D01*
X5629699D01*
Y2404907D01*
X5628588Y2407870D01*
X5627477Y2410462D01*
X5626552Y2412499D01*
X5625626Y2414165D01*
X5624885Y2415462D01*
X5624330Y2416202D01*
X5624144Y2416758D01*
X5623959Y2416943D01*
X5623033Y2418054D01*
X5621922Y2418980D01*
X5621182Y2419535D01*
X5620441Y2420091D01*
X5619330Y2420461D01*
X5618960D01*
X5617849Y2420276D01*
X5617108Y2420091D01*
X5616553Y2419720D01*
X5616367Y2419535D01*
X5615812Y2418795D01*
X5615256Y2418054D01*
X5615071Y2417498D01*
X5614886Y2417128D01*
X5614516Y2415832D01*
X5614331Y2414721D01*
X5614145Y2413610D01*
Y2413425D01*
Y2413240D01*
X5613960Y2411388D01*
Y2409536D01*
Y2408796D01*
Y2408240D01*
Y2407870D01*
Y2407685D01*
Y2350098D01*
X5596555D01*
Y2404907D01*
X5595444Y2407870D01*
X5594333Y2410462D01*
X5593407Y2412499D01*
X5592666Y2414165D01*
X5591926Y2415462D01*
X5591370Y2416202D01*
X5591185Y2416758D01*
X5591000Y2416943D01*
X5590074Y2418054D01*
X5589148Y2418980D01*
X5588222Y2419535D01*
X5587482Y2420091D01*
X5586185Y2420461D01*
X5585815D01*
X5584704Y2420276D01*
X5583963Y2420091D01*
X5583408Y2419720D01*
X5583223Y2419535D01*
X5582667Y2418795D01*
X5582112Y2418054D01*
X5581927Y2417498D01*
X5581741Y2417128D01*
X5581371Y2415832D01*
X5581186Y2414721D01*
X5581001Y2413610D01*
Y2413425D01*
Y2413240D01*
X5580816Y2411388D01*
Y2409536D01*
Y2408796D01*
Y2408240D01*
Y2407870D01*
Y2407685D01*
Y2350098D01*
X5563225Y2350098D01*
Y2410647D01*
X5563410Y2415091D01*
X5563966Y2418979D01*
X5564706Y2422312D01*
X5565447Y2425090D01*
X5566187Y2427127D01*
X5566928Y2428608D01*
X5567484Y2429534D01*
X5567669Y2429904D01*
X5569520Y2432126D01*
X5571742Y2433608D01*
X5573964Y2434719D01*
X5576186Y2435645D01*
X5578223Y2436015D01*
X5579890Y2436200D01*
X5581001Y2436385D01*
X5581371D01*
X5583593Y2436200D01*
X5585260Y2436015D01*
X5586000Y2435830D01*
X5586556Y2435645D01*
X5586741Y2435459D01*
X5586926D01*
X5588593Y2434719D01*
X5590074Y2433978D01*
X5591185Y2433423D01*
X5591370Y2433052D01*
X5591555D01*
X5593037Y2431571D01*
X5594333Y2430275D01*
X5595259Y2429164D01*
X5595444Y2428793D01*
X5595629Y2428608D01*
X5596925Y2426571D01*
X5598221Y2424535D01*
X5598777Y2423609D01*
X5599147Y2422868D01*
X5599332Y2422498D01*
X5599517Y2422313D01*
X5599888Y2424535D01*
X5600443Y2426571D01*
X5601184Y2428423D01*
X5601925Y2429904D01*
X5602480Y2431015D01*
X5603221Y2431756D01*
X5603591Y2432312D01*
X5603776Y2432497D01*
X5605258Y2433793D01*
X5606924Y2434719D01*
X5608776Y2435459D01*
X5610442Y2435830D01*
X5612109Y2436200D01*
X5613405Y2436385D01*
X5614516D01*
X5616553Y2436200D01*
D02*
G37*
G36*
X5925039Y2439348D02*
X5872822D01*
X5916336Y2350098D01*
X5893191D01*
X5849306Y2441200D01*
Y2458976D01*
X5925039D01*
Y2439348D01*
D02*
G37*
G36*
X6077246Y2460642D02*
X6080764Y2460272D01*
X6083912Y2459531D01*
X6086689Y2458976D01*
X6088911Y2458235D01*
X6090578Y2457494D01*
X6091689Y2457124D01*
X6091874Y2456939D01*
X6092059D01*
X6095022Y2455272D01*
X6097614Y2453606D01*
X6100021Y2451754D01*
X6102058Y2449902D01*
X6103724Y2448236D01*
X6104835Y2446940D01*
X6105761Y2446014D01*
X6105946Y2445644D01*
X6107983Y2442866D01*
X6109650Y2439903D01*
X6111131Y2436941D01*
X6112242Y2433978D01*
X6113168Y2431571D01*
X6113909Y2429719D01*
X6114094Y2428979D01*
X6114279Y2428423D01*
X6114464Y2428053D01*
Y2427868D01*
X6115390Y2423794D01*
X6116131Y2419720D01*
X6116501Y2415647D01*
X6116871Y2411943D01*
X6117056Y2408796D01*
X6117242Y2407314D01*
Y2406203D01*
Y2405277D01*
Y2404537D01*
Y2404166D01*
Y2403981D01*
X6117056Y2398611D01*
X6116686Y2393797D01*
X6116316Y2389538D01*
X6115760Y2385835D01*
X6115390Y2384168D01*
X6115205Y2382687D01*
X6115020Y2381576D01*
X6114649Y2380465D01*
X6114464Y2379724D01*
Y2379169D01*
X6114279Y2378799D01*
Y2378613D01*
X6112983Y2374910D01*
X6111687Y2371392D01*
X6110205Y2368429D01*
X6108909Y2366022D01*
X6107613Y2363985D01*
X6106687Y2362504D01*
X6105946Y2361578D01*
X6105761Y2361208D01*
X6103539Y2358801D01*
X6101317Y2356949D01*
X6099095Y2355097D01*
X6097058Y2353801D01*
X6095392Y2352690D01*
X6093911Y2351950D01*
X6092985Y2351579D01*
X6092614Y2351394D01*
X6089652Y2350283D01*
X6086874Y2349542D01*
X6083912Y2348987D01*
X6081504Y2348617D01*
X6079282Y2348431D01*
X6077431Y2348246D01*
X6075949D01*
X6072246Y2348431D01*
X6068728Y2348802D01*
X6065580Y2349357D01*
X6062803Y2350098D01*
X6060766Y2350839D01*
X6059099Y2351394D01*
X6057988Y2351764D01*
X6057618Y2351950D01*
X6054655Y2353616D01*
X6052063Y2355283D01*
X6049656Y2357134D01*
X6047619Y2358986D01*
X6046138Y2360652D01*
X6044842Y2361949D01*
X6044101Y2362689D01*
X6043916Y2363060D01*
X6041879Y2366022D01*
X6040212Y2368985D01*
X6038546Y2371948D01*
X6037435Y2374910D01*
X6036509Y2377317D01*
X6035768Y2379354D01*
X6035583Y2380095D01*
X6035398Y2380650D01*
X6035213Y2380835D01*
Y2381021D01*
X6034287Y2385094D01*
X6033546Y2389168D01*
X6032991Y2393242D01*
X6032621Y2396945D01*
X6032435Y2400093D01*
X6032250Y2401574D01*
Y2402685D01*
Y2403611D01*
Y2404352D01*
Y2404722D01*
Y2404907D01*
X6032435Y2410277D01*
X6032806Y2415091D01*
X6033176Y2419535D01*
X6033732Y2423238D01*
X6034102Y2424720D01*
X6034472Y2426201D01*
X6034657Y2427312D01*
X6034843Y2428423D01*
X6035028Y2429164D01*
X6035213Y2429719D01*
X6035398Y2430090D01*
Y2430275D01*
X6036694Y2433978D01*
X6037990Y2437496D01*
X6039472Y2440459D01*
X6040953Y2442866D01*
X6042249Y2444903D01*
X6043175Y2446384D01*
X6043916Y2447125D01*
X6044101Y2447495D01*
X6046138Y2449902D01*
X6048360Y2451939D01*
X6050582Y2453606D01*
X6052619Y2455087D01*
X6054285Y2456198D01*
X6055766Y2456939D01*
X6056692Y2457309D01*
X6057063Y2457494D01*
X6060025Y2458605D01*
X6062803Y2459346D01*
X6065580Y2460087D01*
X6068173Y2460457D01*
X6070395Y2460642D01*
X6072061Y2460827D01*
X6073542D01*
X6077246Y2460642D01*
D02*
G37*
G36*
X5983922Y2380650D02*
X5985959Y2380280D01*
X5986699Y2379910D01*
X5987255Y2379724D01*
X5987625Y2379539D01*
X5987810D01*
X5989847Y2378428D01*
X5991514Y2377317D01*
X5992625Y2376391D01*
X5992810Y2376206D01*
X5992995Y2376021D01*
X5994291Y2374169D01*
X5995402Y2372503D01*
X5995773Y2371762D01*
X5996143Y2371207D01*
X5996328Y2370837D01*
Y2370651D01*
X5996884Y2368429D01*
X5997254Y2366393D01*
X5997439Y2365652D01*
Y2364911D01*
Y2364541D01*
Y2364356D01*
X5997254Y2361949D01*
X5996884Y2359912D01*
X5996698Y2359171D01*
X5996513Y2358616D01*
X5996328Y2358245D01*
Y2358060D01*
X5995217Y2356023D01*
X5994106Y2354357D01*
X5993365Y2353246D01*
X5992995Y2353061D01*
Y2352875D01*
X5991329Y2351394D01*
X5989477Y2350468D01*
X5988921Y2350098D01*
X5988366Y2349728D01*
X5987996Y2349542D01*
X5987810D01*
X5985588Y2348802D01*
X5983552Y2348431D01*
X5982811Y2348246D01*
X5981515D01*
X5978923Y2348431D01*
X5976886Y2348987D01*
X5976145Y2349172D01*
X5975590Y2349357D01*
X5975219Y2349542D01*
X5975034D01*
X5972997Y2350468D01*
X5971331Y2351579D01*
X5970220Y2352505D01*
X5970035Y2352875D01*
X5969849D01*
X5968368Y2354542D01*
X5967257Y2356394D01*
X5966887Y2356949D01*
X5966516Y2357505D01*
X5966331Y2357875D01*
Y2358060D01*
X5965591Y2360282D01*
X5965220Y2362319D01*
X5965035Y2363060D01*
Y2363800D01*
Y2364171D01*
Y2364356D01*
X5965220Y2366763D01*
X5965591Y2368800D01*
X5965961Y2369540D01*
X5966146Y2370096D01*
X5966331Y2370466D01*
Y2370651D01*
X5967442Y2372873D01*
X5968553Y2374540D01*
X5969479Y2375651D01*
X5969664Y2375836D01*
X5969849Y2376021D01*
X5971516Y2377502D01*
X5973182Y2378613D01*
X5973923Y2378984D01*
X5974479Y2379354D01*
X5974849Y2379539D01*
X5975034D01*
X5977256Y2380280D01*
X5979293Y2380650D01*
X5980219Y2380835D01*
X5981515D01*
X5983922Y2380650D01*
D02*
G37*
G36*
X6209639Y2332137D02*
X6190012D01*
X6131684Y2467863D01*
X6151497D01*
X6209639Y2332137D01*
D02*
G37*
G36*
X6300000Y2241570D02*
X6293334Y2224905D01*
X6269078Y2238052D01*
Y2168244D01*
X6296853D01*
Y2150098D01*
X6224267D01*
Y2168244D01*
X6248154D01*
Y2259716D01*
X6265374D01*
X6300000Y2241570D01*
D02*
G37*
G36*
X5710432Y2236200D02*
X5712098Y2236015D01*
X5713394Y2235645D01*
X5713580Y2235460D01*
X5713765D01*
X5715431Y2234719D01*
X5716913Y2233978D01*
X5718024Y2233423D01*
X5718209Y2233052D01*
X5718394D01*
X5719875Y2231571D01*
X5721171Y2230275D01*
X5721912Y2229164D01*
X5722282Y2228794D01*
Y2228608D01*
X5723579Y2226572D01*
X5724690Y2224535D01*
X5725060Y2223609D01*
X5725430Y2222868D01*
X5725801Y2222498D01*
Y2222313D01*
X5726171Y2234719D01*
X5741169D01*
Y2150098D01*
X5723579D01*
Y2204907D01*
X5722468Y2207870D01*
X5721357Y2210462D01*
X5720431Y2212499D01*
X5719505Y2214165D01*
X5718764Y2215462D01*
X5718209Y2216202D01*
X5718024Y2216758D01*
X5717838Y2216943D01*
X5716913Y2218054D01*
X5715802Y2218980D01*
X5715061Y2219535D01*
X5714320Y2220091D01*
X5713209Y2220461D01*
X5712839D01*
X5711728Y2220276D01*
X5710987Y2220091D01*
X5710432Y2219720D01*
X5710247Y2219535D01*
X5709691Y2218795D01*
X5709136Y2218054D01*
X5708950Y2217498D01*
X5708765Y2217128D01*
X5708395Y2215832D01*
X5708210Y2214721D01*
X5708025Y2213610D01*
Y2213425D01*
Y2213240D01*
X5707839Y2211388D01*
Y2209536D01*
Y2208796D01*
Y2208240D01*
Y2207870D01*
Y2207685D01*
Y2150098D01*
X5690434D01*
Y2204907D01*
X5689323Y2207870D01*
X5688212Y2210462D01*
X5687286Y2212499D01*
X5686545Y2214165D01*
X5685805Y2215462D01*
X5685249Y2216202D01*
X5685064Y2216758D01*
X5684879Y2216943D01*
X5683953Y2218054D01*
X5683027Y2218980D01*
X5682101Y2219535D01*
X5681361Y2220091D01*
X5680065Y2220461D01*
X5679694D01*
X5678583Y2220276D01*
X5677843Y2220091D01*
X5677287Y2219720D01*
X5677102Y2219535D01*
X5676546Y2218795D01*
X5675991Y2218054D01*
X5675806Y2217498D01*
X5675621Y2217128D01*
X5675250Y2215832D01*
X5675065Y2214721D01*
X5674880Y2213610D01*
Y2213425D01*
Y2213240D01*
X5674695Y2211388D01*
Y2209536D01*
Y2208796D01*
Y2208240D01*
Y2207870D01*
Y2207685D01*
Y2150098D01*
X5657104D01*
Y2210647D01*
X5657289Y2215091D01*
X5657845Y2218980D01*
X5658585Y2222313D01*
X5659326Y2225090D01*
X5660067Y2227127D01*
X5660807Y2228608D01*
X5661363Y2229534D01*
X5661548Y2229905D01*
X5663400Y2232127D01*
X5665622Y2233608D01*
X5667844Y2234719D01*
X5670066Y2235645D01*
X5672102Y2236015D01*
X5673769Y2236200D01*
X5674880Y2236385D01*
X5675250D01*
X5677472Y2236200D01*
X5679139Y2236015D01*
X5679879Y2235830D01*
X5680435Y2235645D01*
X5680620Y2235460D01*
X5680805D01*
X5682472Y2234719D01*
X5683953Y2233978D01*
X5685064Y2233423D01*
X5685249Y2233052D01*
X5685434D01*
X5686916Y2231571D01*
X5688212Y2230275D01*
X5689138Y2229164D01*
X5689323Y2228794D01*
X5689508Y2228608D01*
X5690804Y2226572D01*
X5692100Y2224535D01*
X5692656Y2223609D01*
X5693026Y2222868D01*
X5693211Y2222498D01*
X5693397Y2222313D01*
X5693767Y2224535D01*
X5694322Y2226572D01*
X5695063Y2228423D01*
X5695804Y2229905D01*
X5696359Y2231016D01*
X5697100Y2231756D01*
X5697470Y2232312D01*
X5697655Y2232497D01*
X5699137Y2233793D01*
X5700803Y2234719D01*
X5702655Y2235460D01*
X5704321Y2235830D01*
X5705988Y2236200D01*
X5707284Y2236385D01*
X5708395D01*
X5710432Y2236200D01*
D02*
G37*
G36*
X5616553D02*
X5618219Y2236015D01*
X5619515Y2235645D01*
X5619700Y2235460D01*
X5619886D01*
X5621552Y2234719D01*
X5623033Y2233978D01*
X5624144Y2233423D01*
X5624330Y2233052D01*
X5624515D01*
X5625996Y2231571D01*
X5627292Y2230275D01*
X5628033Y2229164D01*
X5628403Y2228794D01*
Y2228608D01*
X5629699Y2226572D01*
X5630810Y2224535D01*
X5631181Y2223609D01*
X5631551Y2222868D01*
X5631921Y2222498D01*
Y2222313D01*
X5632292Y2234719D01*
X5647290D01*
Y2150098D01*
X5629699D01*
Y2204907D01*
X5628588Y2207870D01*
X5627477Y2210462D01*
X5626552Y2212499D01*
X5625626Y2214165D01*
X5624885Y2215462D01*
X5624330Y2216202D01*
X5624144Y2216758D01*
X5623959Y2216943D01*
X5623033Y2218054D01*
X5621922Y2218980D01*
X5621182Y2219535D01*
X5620441Y2220091D01*
X5619330Y2220461D01*
X5618960D01*
X5617849Y2220276D01*
X5617108Y2220091D01*
X5616553Y2219720D01*
X5616367Y2219535D01*
X5615812Y2218795D01*
X5615256Y2218054D01*
X5615071Y2217498D01*
X5614886Y2217128D01*
X5614516Y2215832D01*
X5614331Y2214721D01*
X5614145Y2213610D01*
Y2213425D01*
Y2213240D01*
X5613960Y2211388D01*
Y2209536D01*
Y2208796D01*
Y2208240D01*
Y2207870D01*
Y2207685D01*
Y2150098D01*
X5596555D01*
Y2204907D01*
X5595444Y2207870D01*
X5594333Y2210462D01*
X5593407Y2212499D01*
X5592666Y2214165D01*
X5591926Y2215462D01*
X5591370Y2216202D01*
X5591185Y2216758D01*
X5591000Y2216943D01*
X5590074Y2218054D01*
X5589148Y2218980D01*
X5588222Y2219535D01*
X5587482Y2220091D01*
X5586185Y2220461D01*
X5585815D01*
X5584704Y2220276D01*
X5583963Y2220091D01*
X5583408Y2219720D01*
X5583223Y2219535D01*
X5582667Y2218795D01*
X5582112Y2218054D01*
X5581927Y2217498D01*
X5581741Y2217128D01*
X5581371Y2215832D01*
X5581186Y2214721D01*
X5581001Y2213610D01*
Y2213425D01*
Y2213240D01*
X5580816Y2211388D01*
Y2209536D01*
Y2208796D01*
Y2208240D01*
Y2207870D01*
Y2207685D01*
Y2150098D01*
X5563225Y2150098D01*
Y2210647D01*
X5563410Y2215091D01*
X5563966Y2218980D01*
X5564706Y2222313D01*
X5565447Y2225090D01*
X5566187Y2227127D01*
X5566928Y2228608D01*
X5567484Y2229534D01*
X5567669Y2229904D01*
X5569520Y2232126D01*
X5571742Y2233608D01*
X5573964Y2234719D01*
X5576186Y2235645D01*
X5578223Y2236015D01*
X5579890Y2236200D01*
X5581001Y2236385D01*
X5581371D01*
X5583593Y2236200D01*
X5585260Y2236015D01*
X5586000Y2235830D01*
X5586556Y2235645D01*
X5586741Y2235460D01*
X5586926D01*
X5588593Y2234719D01*
X5590074Y2233978D01*
X5591185Y2233423D01*
X5591370Y2233052D01*
X5591555D01*
X5593037Y2231571D01*
X5594333Y2230275D01*
X5595259Y2229164D01*
X5595444Y2228794D01*
X5595629Y2228608D01*
X5596925Y2226572D01*
X5598221Y2224535D01*
X5598777Y2223609D01*
X5599147Y2222868D01*
X5599332Y2222498D01*
X5599517Y2222313D01*
X5599888Y2224535D01*
X5600443Y2226572D01*
X5601184Y2228423D01*
X5601925Y2229905D01*
X5602480Y2231016D01*
X5603221Y2231756D01*
X5603591Y2232312D01*
X5603776Y2232497D01*
X5605258Y2233793D01*
X5606924Y2234719D01*
X5608776Y2235460D01*
X5610442Y2235830D01*
X5612109Y2236200D01*
X5613405Y2236385D01*
X5614516D01*
X5616553Y2236200D01*
D02*
G37*
G36*
X6077246Y2260642D02*
X6080764Y2260272D01*
X6083912Y2259531D01*
X6086689Y2258976D01*
X6088911Y2258235D01*
X6090578Y2257494D01*
X6091689Y2257124D01*
X6091874Y2256939D01*
X6092059D01*
X6095022Y2255272D01*
X6097614Y2253606D01*
X6100021Y2251754D01*
X6102058Y2249903D01*
X6103724Y2248236D01*
X6104835Y2246940D01*
X6105761Y2246014D01*
X6105946Y2245644D01*
X6107983Y2242866D01*
X6109650Y2239904D01*
X6111131Y2236941D01*
X6112242Y2233978D01*
X6113168Y2231571D01*
X6113909Y2229719D01*
X6114094Y2228979D01*
X6114279Y2228423D01*
X6114464Y2228053D01*
Y2227868D01*
X6115390Y2223794D01*
X6116131Y2219720D01*
X6116501Y2215647D01*
X6116871Y2211944D01*
X6117056Y2208796D01*
X6117242Y2207314D01*
Y2206203D01*
Y2205278D01*
Y2204537D01*
Y2204167D01*
Y2203981D01*
X6117056Y2198612D01*
X6116686Y2193797D01*
X6116316Y2189538D01*
X6115760Y2185835D01*
X6115390Y2184169D01*
X6115205Y2182687D01*
X6115020Y2181576D01*
X6114649Y2180465D01*
X6114464Y2179725D01*
Y2179169D01*
X6114279Y2178799D01*
Y2178614D01*
X6112983Y2174910D01*
X6111687Y2171392D01*
X6110205Y2168429D01*
X6108909Y2166022D01*
X6107613Y2163986D01*
X6106687Y2162504D01*
X6105946Y2161578D01*
X6105761Y2161208D01*
X6103539Y2158801D01*
X6101317Y2156949D01*
X6099095Y2155098D01*
X6097058Y2153801D01*
X6095392Y2152690D01*
X6093911Y2151950D01*
X6092985Y2151579D01*
X6092614Y2151394D01*
X6089652Y2150283D01*
X6086874Y2149543D01*
X6083912Y2148987D01*
X6081504Y2148617D01*
X6079282Y2148432D01*
X6077431Y2148246D01*
X6075949D01*
X6072246Y2148432D01*
X6068728Y2148802D01*
X6065580Y2149357D01*
X6062803Y2150098D01*
X6060766Y2150839D01*
X6059099Y2151394D01*
X6057988Y2151765D01*
X6057618Y2151950D01*
X6054655Y2153616D01*
X6052063Y2155283D01*
X6049656Y2157134D01*
X6047619Y2158986D01*
X6046138Y2160653D01*
X6044842Y2161949D01*
X6044101Y2162689D01*
X6043916Y2163060D01*
X6041879Y2166022D01*
X6040212Y2168985D01*
X6038546Y2171948D01*
X6037435Y2174910D01*
X6036509Y2177317D01*
X6035768Y2179354D01*
X6035583Y2180095D01*
X6035398Y2180650D01*
X6035213Y2180836D01*
Y2181021D01*
X6034287Y2185094D01*
X6033546Y2189168D01*
X6032991Y2193242D01*
X6032621Y2196945D01*
X6032435Y2200093D01*
X6032250Y2201574D01*
Y2202685D01*
Y2203611D01*
Y2204352D01*
Y2204722D01*
Y2204907D01*
X6032435Y2210277D01*
X6032806Y2215091D01*
X6033176Y2219535D01*
X6033732Y2223239D01*
X6034102Y2224720D01*
X6034472Y2226201D01*
X6034657Y2227312D01*
X6034843Y2228423D01*
X6035028Y2229164D01*
X6035213Y2229719D01*
X6035398Y2230090D01*
Y2230275D01*
X6036694Y2233978D01*
X6037990Y2237496D01*
X6039472Y2240459D01*
X6040953Y2242866D01*
X6042249Y2244903D01*
X6043175Y2246384D01*
X6043916Y2247125D01*
X6044101Y2247495D01*
X6046138Y2249903D01*
X6048360Y2251939D01*
X6050582Y2253606D01*
X6052619Y2255087D01*
X6054285Y2256198D01*
X6055766Y2256939D01*
X6056692Y2257309D01*
X6057063Y2257494D01*
X6060025Y2258605D01*
X6062803Y2259346D01*
X6065580Y2260087D01*
X6068173Y2260457D01*
X6070395Y2260642D01*
X6072061Y2260827D01*
X6073542D01*
X6077246Y2260642D01*
D02*
G37*
G36*
X5983922Y2180650D02*
X5985959Y2180280D01*
X5986699Y2179910D01*
X5987255Y2179725D01*
X5987625Y2179539D01*
X5987810D01*
X5989847Y2178428D01*
X5991514Y2177317D01*
X5992625Y2176392D01*
X5992810Y2176206D01*
X5992995Y2176021D01*
X5994291Y2174170D01*
X5995402Y2172503D01*
X5995773Y2171762D01*
X5996143Y2171207D01*
X5996328Y2170837D01*
Y2170651D01*
X5996884Y2168429D01*
X5997254Y2166393D01*
X5997439Y2165652D01*
Y2164911D01*
Y2164541D01*
Y2164356D01*
X5997254Y2161949D01*
X5996884Y2159912D01*
X5996698Y2159171D01*
X5996513Y2158616D01*
X5996328Y2158245D01*
Y2158060D01*
X5995217Y2156023D01*
X5994106Y2154357D01*
X5993365Y2153246D01*
X5992995Y2153061D01*
Y2152876D01*
X5991329Y2151394D01*
X5989477Y2150468D01*
X5988921Y2150098D01*
X5988366Y2149728D01*
X5987996Y2149543D01*
X5987810D01*
X5985588Y2148802D01*
X5983552Y2148432D01*
X5982811Y2148246D01*
X5981515D01*
X5978923Y2148432D01*
X5976886Y2148987D01*
X5976145Y2149172D01*
X5975590Y2149357D01*
X5975219Y2149543D01*
X5975034D01*
X5972997Y2150468D01*
X5971331Y2151579D01*
X5970220Y2152505D01*
X5970035Y2152876D01*
X5969849D01*
X5968368Y2154542D01*
X5967257Y2156394D01*
X5966887Y2156949D01*
X5966516Y2157505D01*
X5966331Y2157875D01*
Y2158060D01*
X5965591Y2160282D01*
X5965220Y2162319D01*
X5965035Y2163060D01*
Y2163800D01*
Y2164171D01*
Y2164356D01*
X5965220Y2166763D01*
X5965591Y2168800D01*
X5965961Y2169540D01*
X5966146Y2170096D01*
X5966331Y2170466D01*
Y2170651D01*
X5967442Y2172873D01*
X5968553Y2174540D01*
X5969479Y2175651D01*
X5969664Y2175836D01*
X5969849Y2176021D01*
X5971516Y2177503D01*
X5973182Y2178614D01*
X5973923Y2178984D01*
X5974479Y2179354D01*
X5974849Y2179539D01*
X5975034D01*
X5977256Y2180280D01*
X5979293Y2180650D01*
X5980219Y2180836D01*
X5981515D01*
X5983922Y2180650D01*
D02*
G37*
G36*
X5889858Y2260642D02*
X5893005Y2260457D01*
X5895783Y2260087D01*
X5898190Y2259716D01*
X5900042Y2259161D01*
X5901523Y2258791D01*
X5902449Y2258605D01*
X5902819Y2258420D01*
X5905226Y2257494D01*
X5907448Y2256569D01*
X5909485Y2255458D01*
X5911152Y2254532D01*
X5912448Y2253606D01*
X5913374Y2253050D01*
X5914114Y2252495D01*
X5914300Y2252310D01*
X5915781Y2250828D01*
X5917262Y2249347D01*
X5918373Y2247681D01*
X5919299Y2246384D01*
X5920040Y2245088D01*
X5920595Y2244162D01*
X5920780Y2243422D01*
X5920966Y2243237D01*
X5921706Y2241200D01*
X5922262Y2239348D01*
X5922632Y2237496D01*
X5922817Y2235830D01*
X5923002Y2234349D01*
X5923188Y2233052D01*
Y2232312D01*
Y2232127D01*
X5923002Y2228423D01*
X5922817Y2226942D01*
X5922447Y2225646D01*
X5922262Y2224350D01*
X5922077Y2223609D01*
X5921891Y2223053D01*
Y2222868D01*
X5920595Y2220091D01*
X5919299Y2217869D01*
X5918929Y2216943D01*
X5918373Y2216202D01*
X5918188Y2215832D01*
X5918003Y2215647D01*
X5915966Y2213425D01*
X5914114Y2211573D01*
X5913189Y2210833D01*
X5912633Y2210277D01*
X5912263Y2210092D01*
X5912078Y2209907D01*
X5909485Y2208055D01*
X5907263Y2206574D01*
X5906337Y2206018D01*
X5905597Y2205648D01*
X5905226Y2205463D01*
X5905041Y2205278D01*
X5908004Y2203426D01*
X5909300Y2202500D01*
X5910411Y2201759D01*
X5911337Y2201019D01*
X5912078Y2200463D01*
X5912633Y2200093D01*
X5912818Y2199908D01*
X5915411Y2197686D01*
X5917447Y2195649D01*
X5918373Y2194723D01*
X5918929Y2193982D01*
X5919299Y2193612D01*
X5919484Y2193427D01*
X5921336Y2190649D01*
X5922817Y2188057D01*
X5923188Y2187131D01*
X5923558Y2186205D01*
X5923928Y2185650D01*
Y2185465D01*
X5924854Y2182132D01*
X5925039Y2180465D01*
X5925224Y2178984D01*
X5925410Y2177688D01*
Y2176577D01*
Y2175836D01*
Y2175651D01*
X5925224Y2173429D01*
X5925039Y2171207D01*
X5924669Y2169170D01*
X5924113Y2167504D01*
X5923743Y2166208D01*
X5923373Y2165097D01*
X5923188Y2164356D01*
X5923002Y2164171D01*
X5922077Y2162319D01*
X5920780Y2160653D01*
X5919669Y2159356D01*
X5918558Y2158060D01*
X5917447Y2156949D01*
X5916522Y2156209D01*
X5915966Y2155838D01*
X5915781Y2155653D01*
X5913929Y2154357D01*
X5911892Y2153246D01*
X5909856Y2152320D01*
X5908004Y2151579D01*
X5906337Y2151024D01*
X5905041Y2150468D01*
X5904301Y2150283D01*
X5903930Y2150098D01*
X5901153Y2149543D01*
X5898375Y2148987D01*
X5895783Y2148617D01*
X5893191Y2148432D01*
X5890969D01*
X5889302Y2148246D01*
X5884673D01*
X5881896Y2148617D01*
X5879303Y2148802D01*
X5877081Y2149172D01*
X5875044Y2149543D01*
X5873748Y2149728D01*
X5872822Y2150098D01*
X5872452D01*
X5869860Y2150839D01*
X5867453Y2151765D01*
X5865416Y2152690D01*
X5863564Y2153616D01*
X5862083Y2154542D01*
X5860972Y2155283D01*
X5860231Y2155653D01*
X5860046Y2155838D01*
X5858194Y2157320D01*
X5856528Y2158986D01*
X5855046Y2160467D01*
X5853935Y2161949D01*
X5853010Y2163245D01*
X5852269Y2164356D01*
X5851899Y2165097D01*
X5851713Y2165282D01*
X5850602Y2167504D01*
X5849862Y2169726D01*
X5849306Y2171948D01*
X5848936Y2173984D01*
X5848751Y2175836D01*
X5848566Y2177132D01*
Y2178058D01*
Y2178428D01*
X5848751Y2182317D01*
X5849121Y2183983D01*
X5849306Y2185465D01*
X5849677Y2186761D01*
X5850047Y2187687D01*
X5850232Y2188242D01*
Y2188427D01*
X5851713Y2191575D01*
X5852454Y2192871D01*
X5853010Y2194168D01*
X5853750Y2195093D01*
X5854121Y2195834D01*
X5854491Y2196204D01*
X5854676Y2196390D01*
X5856898Y2198982D01*
X5858935Y2201019D01*
X5859861Y2201759D01*
X5860601Y2202315D01*
X5860972Y2202500D01*
X5861157Y2202685D01*
X5863934Y2204722D01*
X5866342Y2206203D01*
X5867453Y2206759D01*
X5868193Y2207314D01*
X5868749Y2207500D01*
X5868934Y2207685D01*
X5866342Y2209536D01*
X5863934Y2211018D01*
X5863194Y2211758D01*
X5862453Y2212314D01*
X5862083Y2212499D01*
X5861898Y2212684D01*
X5859676Y2214906D01*
X5857824Y2216758D01*
X5857083Y2217684D01*
X5856528Y2218239D01*
X5856343Y2218609D01*
X5856157Y2218795D01*
X5854491Y2221387D01*
X5853380Y2223794D01*
X5852824Y2224720D01*
X5852454Y2225461D01*
X5852269Y2226016D01*
Y2226201D01*
X5851343Y2229534D01*
X5851158Y2231016D01*
X5850973Y2232497D01*
X5850788Y2233793D01*
Y2234719D01*
Y2235460D01*
Y2235645D01*
X5850973Y2237682D01*
X5851158Y2239533D01*
X5851528Y2241385D01*
X5851899Y2242866D01*
X5852454Y2244162D01*
X5852824Y2245088D01*
X5853010Y2245644D01*
X5853195Y2245829D01*
X5854121Y2247495D01*
X5855232Y2248977D01*
X5856528Y2250458D01*
X5857639Y2251569D01*
X5858565Y2252495D01*
X5859490Y2253236D01*
X5860046Y2253606D01*
X5860231Y2253791D01*
X5861898Y2254902D01*
X5863749Y2256013D01*
X5865601Y2256939D01*
X5867453Y2257680D01*
X5868934Y2258235D01*
X5870230Y2258605D01*
X5870971Y2258976D01*
X5871341D01*
X5876526Y2260087D01*
X5879118Y2260457D01*
X5881340Y2260642D01*
X5883562Y2260827D01*
X5886525D01*
X5889858Y2260642D01*
D02*
G37*
G36*
X6209639Y2132137D02*
X6190012D01*
X6131684Y2267864D01*
X6151497D01*
X6209639Y2132137D01*
D02*
G37*
%LPC*%
G36*
X6075579Y2844162D02*
X6074838D01*
X6072431Y2843977D01*
X6070395Y2843607D01*
X6068358Y2842866D01*
X6066691Y2842125D01*
X6065395Y2841385D01*
X6064469Y2840644D01*
X6063729Y2840274D01*
X6063543Y2840089D01*
X6061877Y2838422D01*
X6060396Y2836570D01*
X6059099Y2834534D01*
X6057988Y2832682D01*
X6057063Y2830830D01*
X6056507Y2829349D01*
X6056137Y2828423D01*
X6055952Y2828238D01*
Y2828053D01*
X6096688Y2798611D01*
Y2799722D01*
Y2800648D01*
Y2801204D01*
Y2801389D01*
Y2802500D01*
Y2803611D01*
Y2804352D01*
Y2804537D01*
Y2808240D01*
X6096503Y2811573D01*
X6096133Y2814536D01*
X6095762Y2817128D01*
X6095577Y2819165D01*
X6095207Y2820831D01*
X6095022Y2821757D01*
Y2822127D01*
X6094281Y2824720D01*
X6093540Y2827127D01*
X6092800Y2829164D01*
X6092059Y2831015D01*
X6091503Y2832497D01*
X6090948Y2833423D01*
X6090578Y2834163D01*
X6090392Y2834348D01*
X6089281Y2836200D01*
X6087985Y2837681D01*
X6086874Y2838978D01*
X6085763Y2839903D01*
X6084837Y2840644D01*
X6084097Y2841385D01*
X6083726Y2841570D01*
X6083541Y2841755D01*
X6082060Y2842496D01*
X6080393Y2843236D01*
X6078912Y2843607D01*
X6077616Y2843792D01*
X6076505Y2843977D01*
X6075579Y2844162D01*
D02*
G37*
G36*
X6052989Y2809906D02*
Y2808795D01*
Y2807870D01*
Y2807129D01*
Y2806944D01*
X6052804Y2806018D01*
Y2805092D01*
Y2804352D01*
Y2804166D01*
Y2800463D01*
X6052989Y2797315D01*
X6053359Y2794353D01*
X6053544Y2791760D01*
X6053915Y2789723D01*
X6054285Y2788057D01*
X6054470Y2787131D01*
Y2786761D01*
X6055211Y2784168D01*
X6055952Y2781761D01*
X6056692Y2779539D01*
X6057433Y2777873D01*
X6057988Y2776391D01*
X6058544Y2775280D01*
X6058914Y2774540D01*
X6059099Y2774355D01*
X6060210Y2772688D01*
X6061507Y2771207D01*
X6062618Y2769911D01*
X6063729Y2768985D01*
X6064654Y2768244D01*
X6065395Y2767503D01*
X6065951Y2767318D01*
X6066136Y2767133D01*
X6067617Y2766392D01*
X6069284Y2765837D01*
X6070765Y2765467D01*
X6072061Y2765281D01*
X6073172Y2765096D01*
X6074098Y2764911D01*
X6074838D01*
X6077246Y2765096D01*
X6079282Y2765467D01*
X6081319Y2766022D01*
X6082986Y2766763D01*
X6084282Y2767503D01*
X6085208Y2768059D01*
X6085948Y2768429D01*
X6086134Y2768614D01*
X6087800Y2770281D01*
X6089281Y2772133D01*
X6090578Y2774169D01*
X6091689Y2776021D01*
X6092429Y2777873D01*
X6092985Y2779354D01*
X6093355Y2780280D01*
X6093540Y2780650D01*
X6052989Y2809906D01*
D02*
G37*
G36*
X5886895Y2601204D02*
X5885229D01*
X5882081Y2601019D01*
X5880599Y2600834D01*
X5879488Y2600648D01*
X5878563Y2600278D01*
X5877822Y2600093D01*
X5877452Y2599908D01*
X5877266D01*
X5875044Y2598797D01*
X5873378Y2597501D01*
X5872267Y2596575D01*
X5871897Y2596390D01*
Y2596204D01*
X5870415Y2594353D01*
X5869489Y2592686D01*
X5869119Y2591760D01*
X5868934Y2591205D01*
X5868749Y2590835D01*
Y2590649D01*
X5868008Y2588242D01*
X5867823Y2586020D01*
X5867638Y2585094D01*
Y2584354D01*
Y2583798D01*
Y2583613D01*
X5867823Y2580836D01*
X5868008Y2579539D01*
X5868193Y2578428D01*
X5868564Y2577503D01*
X5868749Y2576762D01*
X5868934Y2576392D01*
Y2576206D01*
X5870045Y2573799D01*
X5871341Y2571948D01*
X5871711Y2571207D01*
X5872267Y2570837D01*
X5872452Y2570466D01*
X5872637Y2570281D01*
X5874489Y2568615D01*
X5876155Y2567504D01*
X5877081Y2567133D01*
X5877637Y2566763D01*
X5878007Y2566578D01*
X5878192D01*
X5880599Y2565837D01*
X5883007Y2565467D01*
X5883932Y2565282D01*
X5885414D01*
X5888562Y2565467D01*
X5890043Y2565837D01*
X5891154Y2566022D01*
X5892265Y2566393D01*
X5893005Y2566578D01*
X5893376Y2566763D01*
X5893561D01*
X5894857Y2567504D01*
X5895968Y2568244D01*
X5897820Y2570096D01*
X5898560Y2570837D01*
X5899116Y2571577D01*
X5899301Y2571948D01*
X5899486Y2572133D01*
X5900412Y2573614D01*
X5900968Y2575095D01*
X5902079Y2578243D01*
X5902449Y2579539D01*
X5902819Y2580650D01*
X5903004Y2581391D01*
Y2581576D01*
X5903375Y2583798D01*
X5903560Y2586205D01*
X5903930Y2588613D01*
Y2590835D01*
X5904115Y2592871D01*
Y2594353D01*
Y2595464D01*
Y2595834D01*
X5902819Y2596575D01*
X5901523Y2597130D01*
X5900597Y2597501D01*
X5900412Y2597686D01*
X5900227D01*
X5898560Y2598426D01*
X5897079Y2598797D01*
X5895968Y2599167D01*
X5895783Y2599352D01*
X5895598D01*
X5893746Y2599908D01*
X5892265Y2600278D01*
X5890969Y2600648D01*
X5890598D01*
X5888562Y2601019D01*
X5886895Y2601204D01*
D02*
G37*
G36*
X6075579Y2644162D02*
X6074838D01*
X6072431Y2643977D01*
X6070395Y2643607D01*
X6068358Y2642866D01*
X6066691Y2642126D01*
X6065395Y2641385D01*
X6064469Y2640644D01*
X6063729Y2640274D01*
X6063543Y2640089D01*
X6061877Y2638422D01*
X6060396Y2636571D01*
X6059099Y2634534D01*
X6057988Y2632682D01*
X6057063Y2630830D01*
X6056507Y2629349D01*
X6056137Y2628423D01*
X6055952Y2628238D01*
Y2628053D01*
X6096688Y2598612D01*
Y2599723D01*
Y2600648D01*
Y2601204D01*
Y2601389D01*
Y2602500D01*
Y2603611D01*
Y2604352D01*
Y2604537D01*
Y2608240D01*
X6096503Y2611573D01*
X6096133Y2614536D01*
X6095762Y2617128D01*
X6095577Y2619165D01*
X6095207Y2620831D01*
X6095022Y2621757D01*
Y2622128D01*
X6094281Y2624720D01*
X6093540Y2627127D01*
X6092800Y2629164D01*
X6092059Y2631016D01*
X6091503Y2632497D01*
X6090948Y2633423D01*
X6090578Y2634163D01*
X6090392Y2634349D01*
X6089281Y2636200D01*
X6087985Y2637682D01*
X6086874Y2638978D01*
X6085763Y2639904D01*
X6084837Y2640644D01*
X6084097Y2641385D01*
X6083726Y2641570D01*
X6083541Y2641755D01*
X6082060Y2642496D01*
X6080393Y2643237D01*
X6078912Y2643607D01*
X6077616Y2643792D01*
X6076505Y2643977D01*
X6075579Y2644162D01*
D02*
G37*
G36*
X6052989Y2609907D02*
Y2608796D01*
Y2607870D01*
Y2607129D01*
Y2606944D01*
X6052804Y2606018D01*
Y2605092D01*
Y2604352D01*
Y2604166D01*
Y2600463D01*
X6052989Y2597315D01*
X6053359Y2594353D01*
X6053544Y2591760D01*
X6053915Y2589724D01*
X6054285Y2588057D01*
X6054470Y2587131D01*
Y2586761D01*
X6055211Y2584169D01*
X6055952Y2581761D01*
X6056692Y2579539D01*
X6057433Y2577873D01*
X6057988Y2576392D01*
X6058544Y2575281D01*
X6058914Y2574540D01*
X6059099Y2574355D01*
X6060210Y2572688D01*
X6061507Y2571207D01*
X6062618Y2569911D01*
X6063729Y2568985D01*
X6064654Y2568244D01*
X6065395Y2567504D01*
X6065951Y2567318D01*
X6066136Y2567133D01*
X6067617Y2566393D01*
X6069284Y2565837D01*
X6070765Y2565467D01*
X6072061Y2565282D01*
X6073172Y2565096D01*
X6074098Y2564911D01*
X6074838D01*
X6077246Y2565096D01*
X6079282Y2565467D01*
X6081319Y2566022D01*
X6082986Y2566763D01*
X6084282Y2567504D01*
X6085208Y2568059D01*
X6085948Y2568429D01*
X6086134Y2568615D01*
X6087800Y2570281D01*
X6089281Y2572133D01*
X6090578Y2574170D01*
X6091689Y2576021D01*
X6092429Y2577873D01*
X6092985Y2579354D01*
X6093355Y2580280D01*
X6093540Y2580650D01*
X6052989Y2609907D01*
D02*
G37*
G36*
X6075579Y2444162D02*
X6074838D01*
X6072431Y2443977D01*
X6070395Y2443607D01*
X6068358Y2442866D01*
X6066691Y2442125D01*
X6065395Y2441385D01*
X6064469Y2440644D01*
X6063729Y2440274D01*
X6063543Y2440089D01*
X6061877Y2438422D01*
X6060396Y2436570D01*
X6059099Y2434534D01*
X6057988Y2432682D01*
X6057063Y2430830D01*
X6056507Y2429349D01*
X6056137Y2428423D01*
X6055952Y2428238D01*
Y2428053D01*
X6096688Y2398611D01*
Y2399722D01*
Y2400648D01*
Y2401204D01*
Y2401389D01*
Y2402500D01*
Y2403611D01*
Y2404352D01*
Y2404537D01*
Y2408240D01*
X6096503Y2411573D01*
X6096133Y2414536D01*
X6095762Y2417128D01*
X6095577Y2419165D01*
X6095207Y2420831D01*
X6095022Y2421757D01*
Y2422127D01*
X6094281Y2424720D01*
X6093540Y2427127D01*
X6092800Y2429164D01*
X6092059Y2431015D01*
X6091503Y2432497D01*
X6090948Y2433423D01*
X6090578Y2434163D01*
X6090392Y2434348D01*
X6089281Y2436200D01*
X6087985Y2437681D01*
X6086874Y2438978D01*
X6085763Y2439903D01*
X6084837Y2440644D01*
X6084097Y2441385D01*
X6083726Y2441570D01*
X6083541Y2441755D01*
X6082060Y2442496D01*
X6080393Y2443236D01*
X6078912Y2443607D01*
X6077616Y2443792D01*
X6076505Y2443977D01*
X6075579Y2444162D01*
D02*
G37*
G36*
X6052989Y2409907D02*
Y2408796D01*
Y2407870D01*
Y2407129D01*
Y2406944D01*
X6052804Y2406018D01*
Y2405092D01*
Y2404352D01*
Y2404166D01*
Y2400463D01*
X6052989Y2397315D01*
X6053359Y2394353D01*
X6053544Y2391760D01*
X6053915Y2389723D01*
X6054285Y2388057D01*
X6054470Y2387131D01*
Y2386761D01*
X6055211Y2384168D01*
X6055952Y2381761D01*
X6056692Y2379539D01*
X6057433Y2377873D01*
X6057988Y2376391D01*
X6058544Y2375280D01*
X6058914Y2374540D01*
X6059099Y2374355D01*
X6060210Y2372688D01*
X6061507Y2371207D01*
X6062618Y2369911D01*
X6063729Y2368985D01*
X6064654Y2368244D01*
X6065395Y2367504D01*
X6065951Y2367318D01*
X6066136Y2367133D01*
X6067617Y2366393D01*
X6069284Y2365837D01*
X6070765Y2365467D01*
X6072061Y2365282D01*
X6073172Y2365096D01*
X6074098Y2364911D01*
X6074838D01*
X6077246Y2365096D01*
X6079282Y2365467D01*
X6081319Y2366022D01*
X6082986Y2366763D01*
X6084282Y2367504D01*
X6085208Y2368059D01*
X6085948Y2368429D01*
X6086134Y2368615D01*
X6087800Y2370281D01*
X6089281Y2372133D01*
X6090578Y2374169D01*
X6091689Y2376021D01*
X6092429Y2377873D01*
X6092985Y2379354D01*
X6093355Y2380280D01*
X6093540Y2380650D01*
X6052989Y2409907D01*
D02*
G37*
G36*
X6075579Y2244162D02*
X6074838D01*
X6072431Y2243977D01*
X6070395Y2243607D01*
X6068358Y2242866D01*
X6066691Y2242126D01*
X6065395Y2241385D01*
X6064469Y2240644D01*
X6063729Y2240274D01*
X6063543Y2240089D01*
X6061877Y2238422D01*
X6060396Y2236571D01*
X6059099Y2234534D01*
X6057988Y2232682D01*
X6057063Y2230830D01*
X6056507Y2229349D01*
X6056137Y2228423D01*
X6055952Y2228238D01*
Y2228053D01*
X6096688Y2198612D01*
Y2199723D01*
Y2200648D01*
Y2201204D01*
Y2201389D01*
Y2202500D01*
Y2203611D01*
Y2204352D01*
Y2204537D01*
Y2208240D01*
X6096503Y2211573D01*
X6096133Y2214536D01*
X6095762Y2217128D01*
X6095577Y2219165D01*
X6095207Y2220831D01*
X6095022Y2221757D01*
Y2222128D01*
X6094281Y2224720D01*
X6093540Y2227127D01*
X6092800Y2229164D01*
X6092059Y2231016D01*
X6091503Y2232497D01*
X6090948Y2233423D01*
X6090578Y2234163D01*
X6090392Y2234349D01*
X6089281Y2236200D01*
X6087985Y2237682D01*
X6086874Y2238978D01*
X6085763Y2239904D01*
X6084837Y2240644D01*
X6084097Y2241385D01*
X6083726Y2241570D01*
X6083541Y2241755D01*
X6082060Y2242496D01*
X6080393Y2243237D01*
X6078912Y2243607D01*
X6077616Y2243792D01*
X6076505Y2243977D01*
X6075579Y2244162D01*
D02*
G37*
G36*
X6052989Y2209907D02*
Y2208796D01*
Y2207870D01*
Y2207129D01*
Y2206944D01*
X6052804Y2206018D01*
Y2205092D01*
Y2204352D01*
Y2204167D01*
Y2200463D01*
X6052989Y2197315D01*
X6053359Y2194353D01*
X6053544Y2191760D01*
X6053915Y2189724D01*
X6054285Y2188057D01*
X6054470Y2187131D01*
Y2186761D01*
X6055211Y2184169D01*
X6055952Y2181761D01*
X6056692Y2179539D01*
X6057433Y2177873D01*
X6057988Y2176392D01*
X6058544Y2175281D01*
X6058914Y2174540D01*
X6059099Y2174355D01*
X6060210Y2172688D01*
X6061507Y2171207D01*
X6062618Y2169911D01*
X6063729Y2168985D01*
X6064654Y2168244D01*
X6065395Y2167504D01*
X6065951Y2167318D01*
X6066136Y2167133D01*
X6067617Y2166393D01*
X6069284Y2165837D01*
X6070765Y2165467D01*
X6072061Y2165282D01*
X6073172Y2165097D01*
X6074098Y2164911D01*
X6074838D01*
X6077246Y2165097D01*
X6079282Y2165467D01*
X6081319Y2166022D01*
X6082986Y2166763D01*
X6084282Y2167504D01*
X6085208Y2168059D01*
X6085948Y2168429D01*
X6086134Y2168615D01*
X6087800Y2170281D01*
X6089281Y2172133D01*
X6090578Y2174170D01*
X6091689Y2176021D01*
X6092429Y2177873D01*
X6092985Y2179354D01*
X6093355Y2180280D01*
X6093540Y2180650D01*
X6052989Y2209907D01*
D02*
G37*
G36*
X5888376Y2245088D02*
X5887080D01*
X5884303Y2244903D01*
X5881896Y2244718D01*
X5879674Y2244162D01*
X5878007Y2243607D01*
X5876711Y2243051D01*
X5875600Y2242681D01*
X5875044Y2242311D01*
X5874859Y2242126D01*
X5873378Y2241015D01*
X5872267Y2239718D01*
X5871526Y2238422D01*
X5870971Y2236941D01*
X5870600Y2235830D01*
X5870415Y2234904D01*
Y2234163D01*
Y2233978D01*
X5870600Y2231756D01*
X5870971Y2229905D01*
X5871341Y2229164D01*
X5871526Y2228608D01*
X5871711Y2228238D01*
Y2228053D01*
X5872637Y2226201D01*
X5873748Y2224720D01*
X5874489Y2223609D01*
X5874674Y2223424D01*
X5874859Y2223239D01*
X5876341Y2221572D01*
X5877822Y2220276D01*
X5878933Y2219350D01*
X5879118Y2219165D01*
X5879303Y2218980D01*
X5881340Y2217684D01*
X5883192Y2216573D01*
X5883932Y2216017D01*
X5884488Y2215832D01*
X5884858Y2215462D01*
X5885043D01*
X5887636Y2216758D01*
X5890043Y2218054D01*
X5890969Y2218424D01*
X5891709Y2218795D01*
X5892080Y2219165D01*
X5892265D01*
X5894672Y2220646D01*
X5896524Y2221757D01*
X5897264Y2222313D01*
X5897635Y2222683D01*
X5898005Y2223053D01*
X5898190D01*
X5899857Y2224720D01*
X5900968Y2226201D01*
X5901893Y2227312D01*
X5902079Y2227497D01*
Y2227683D01*
X5902819Y2229719D01*
X5903190Y2231571D01*
X5903375Y2232312D01*
Y2232867D01*
Y2233238D01*
Y2233423D01*
X5903190Y2235460D01*
X5902634Y2237126D01*
X5902079Y2238793D01*
X5901153Y2239904D01*
X5900412Y2240829D01*
X5899857Y2241570D01*
X5899301Y2241940D01*
X5899116Y2242126D01*
X5897449Y2243051D01*
X5895413Y2243792D01*
X5893376Y2244348D01*
X5891524Y2244718D01*
X5889672Y2244903D01*
X5888376Y2245088D01*
D02*
G37*
G36*
X5889487Y2197130D02*
X5889302D01*
X5886340Y2195649D01*
X5885043Y2194908D01*
X5883932Y2194353D01*
X5882821Y2193797D01*
X5882081Y2193427D01*
X5881710Y2193242D01*
X5881525Y2193057D01*
X5878933Y2191575D01*
X5876896Y2190094D01*
X5876155Y2189538D01*
X5875600Y2188983D01*
X5875415Y2188798D01*
X5875230Y2188613D01*
X5873378Y2186761D01*
X5871897Y2185094D01*
X5871526Y2184354D01*
X5871156Y2183983D01*
X5870786Y2183613D01*
Y2183428D01*
X5869860Y2181206D01*
X5869304Y2179169D01*
X5869119Y2178428D01*
Y2177688D01*
Y2177317D01*
Y2177132D01*
X5869304Y2174910D01*
X5869860Y2173059D01*
X5870045Y2172318D01*
X5870415Y2171762D01*
X5870600Y2171577D01*
Y2171392D01*
X5871897Y2169726D01*
X5873008Y2168429D01*
X5874119Y2167689D01*
X5874304Y2167318D01*
X5874489D01*
X5876341Y2166393D01*
X5878192Y2165652D01*
X5879118Y2165467D01*
X5879674Y2165282D01*
X5880044Y2165097D01*
X5880229D01*
X5882636Y2164726D01*
X5884858Y2164541D01*
X5885784Y2164356D01*
X5887080D01*
X5890043Y2164541D01*
X5892450Y2164911D01*
X5894672Y2165282D01*
X5896524Y2166022D01*
X5898005Y2166578D01*
X5899116Y2166948D01*
X5899857Y2167318D01*
X5900042Y2167504D01*
X5901708Y2168800D01*
X5902819Y2170466D01*
X5903745Y2171948D01*
X5904301Y2173614D01*
X5904671Y2174910D01*
X5904856Y2176021D01*
Y2176947D01*
Y2177132D01*
X5904671Y2179725D01*
X5904301Y2181761D01*
X5904115Y2182502D01*
X5903930Y2183058D01*
X5903745Y2183428D01*
Y2183613D01*
X5902634Y2185650D01*
X5901523Y2187502D01*
X5900782Y2188613D01*
X5900412Y2188798D01*
Y2188983D01*
X5898746Y2190649D01*
X5897079Y2191946D01*
X5895783Y2192871D01*
X5895598Y2193242D01*
X5895413D01*
X5893191Y2194723D01*
X5891154Y2196019D01*
X5890413Y2196390D01*
X5889858Y2196760D01*
X5889487Y2197130D01*
D02*
G37*
G36*
X9722200Y9925400D02*
X9712700D01*
Y9712700D01*
X9925400D01*
Y9722200D01*
X9916738Y9765747D01*
X9899747Y9806767D01*
X9875080Y9843684D01*
X9843684Y9875080D01*
X9806767Y9899747D01*
X9765747Y9916738D01*
X9722200Y9925400D01*
D02*
G37*
G36*
X9687300D02*
X9677800D01*
X9634253Y9916738D01*
X9593233Y9899747D01*
X9556316Y9875080D01*
X9524920Y9843684D01*
X9500253Y9806767D01*
X9483262Y9765747D01*
X9474600Y9722200D01*
Y9712700D01*
X9687300D01*
Y9925400D01*
D02*
G37*
G36*
X7322200Y9925400D02*
X7312700D01*
Y9712700D01*
X7525400D01*
Y9722200D01*
X7516738Y9765747D01*
X7499747Y9806767D01*
X7475080Y9843684D01*
X7443684Y9875080D01*
X7406767Y9899747D01*
X7365747Y9916738D01*
X7322200Y9925400D01*
D02*
G37*
G36*
X7287300D02*
X7277800D01*
X7234253Y9916738D01*
X7193233Y9899747D01*
X7156316Y9875080D01*
X7124920Y9843684D01*
X7100253Y9806767D01*
X7083262Y9765747D01*
X7074600Y9722200D01*
Y9712700D01*
X7287300D01*
Y9925400D01*
D02*
G37*
G36*
X9925400Y9687300D02*
X9712700D01*
Y9474600D01*
X9722200D01*
X9765747Y9483262D01*
X9806767Y9500253D01*
X9843684Y9524920D01*
X9875080Y9556316D01*
X9899747Y9593233D01*
X9916738Y9634254D01*
X9925400Y9677800D01*
Y9687300D01*
D02*
G37*
G36*
X9687300D02*
X9474600D01*
Y9677800D01*
X9483262Y9634254D01*
X9500253Y9593233D01*
X9524920Y9556316D01*
X9556316Y9524920D01*
X9593233Y9500253D01*
X9634253Y9483262D01*
X9677800Y9474600D01*
X9687300D01*
Y9687300D01*
D02*
G37*
G36*
X7525400Y9687300D02*
X7312700D01*
Y9474600D01*
X7322200D01*
X7365747Y9483262D01*
X7406767Y9500253D01*
X7443684Y9524920D01*
X7475080Y9556316D01*
X7499747Y9593233D01*
X7516738Y9634253D01*
X7525400Y9677800D01*
Y9687300D01*
D02*
G37*
G36*
X7287300D02*
X7074600D01*
Y9677800D01*
X7083262Y9634253D01*
X7100253Y9593233D01*
X7124920Y9556316D01*
X7156316Y9524920D01*
X7193233Y9500253D01*
X7234253Y9483262D01*
X7277800Y9474600D01*
X7287300D01*
Y9687300D01*
D02*
G37*
G36*
X9722200Y525400D02*
X9712700D01*
Y312700D01*
X9925400D01*
Y322200D01*
X9916738Y365747D01*
X9899747Y406767D01*
X9875080Y443684D01*
X9843684Y475080D01*
X9806767Y499747D01*
X9765747Y516738D01*
X9722200Y525400D01*
D02*
G37*
G36*
X9687300D02*
X9677800D01*
X9634254Y516738D01*
X9593233Y499747D01*
X9556316Y475080D01*
X9524920Y443684D01*
X9500253Y406767D01*
X9483262Y365747D01*
X9474600Y322200D01*
Y312700D01*
X9687300D01*
Y525400D01*
D02*
G37*
G36*
X7348098Y525400D02*
X7338598D01*
Y312700D01*
X7551298D01*
Y322200D01*
X7542636Y365747D01*
X7525645Y406767D01*
X7500977Y443684D01*
X7469582Y475080D01*
X7432665Y499747D01*
X7391644Y516738D01*
X7348098Y525400D01*
D02*
G37*
G36*
X7313198D02*
X7303698D01*
X7260151Y516738D01*
X7219131Y499747D01*
X7182214Y475080D01*
X7150818Y443684D01*
X7126151Y406767D01*
X7109160Y365747D01*
X7100498Y322200D01*
Y312700D01*
X7313198D01*
Y525400D01*
D02*
G37*
G36*
X9925400Y287300D02*
X9712700D01*
Y74600D01*
X9722200D01*
X9765747Y83262D01*
X9806767Y100253D01*
X9843684Y124921D01*
X9875080Y156316D01*
X9899747Y193233D01*
X9916738Y234254D01*
X9925400Y277800D01*
Y287300D01*
D02*
G37*
G36*
X9687300D02*
X9474600D01*
Y277800D01*
X9483262Y234254D01*
X9500253Y193233D01*
X9524920Y156316D01*
X9556316Y124921D01*
X9593233Y100253D01*
X9634254Y83262D01*
X9677800Y74600D01*
X9687300D01*
Y287300D01*
D02*
G37*
G36*
X7551298Y287300D02*
X7338598D01*
Y74600D01*
X7348098D01*
X7391644Y83262D01*
X7432665Y100253D01*
X7469582Y124920D01*
X7500977Y156316D01*
X7525645Y193233D01*
X7542636Y234253D01*
X7551298Y277800D01*
Y287300D01*
D02*
G37*
G36*
X7313198D02*
X7100498D01*
Y277800D01*
X7109160Y234253D01*
X7126151Y193233D01*
X7150818Y156316D01*
X7182214Y124920D01*
X7219131Y100253D01*
X7260151Y83262D01*
X7303698Y74600D01*
X7313198D01*
Y287300D01*
D02*
G37*
G36*
X2722200Y9925400D02*
X2712700D01*
Y9712700D01*
X2925400D01*
Y9722200D01*
X2916738Y9765747D01*
X2899747Y9806767D01*
X2875080Y9843684D01*
X2843684Y9875080D01*
X2806767Y9899747D01*
X2765747Y9916738D01*
X2722200Y9925400D01*
D02*
G37*
G36*
X2687300D02*
X2677800D01*
X2634253Y9916738D01*
X2593233Y9899747D01*
X2556316Y9875080D01*
X2524920Y9843684D01*
X2500253Y9806767D01*
X2483262Y9765747D01*
X2474600Y9722200D01*
Y9712700D01*
X2687300D01*
Y9925400D01*
D02*
G37*
G36*
X322200Y9925400D02*
X312700D01*
Y9712700D01*
X525400D01*
Y9722200D01*
X516738Y9765747D01*
X499747Y9806767D01*
X475080Y9843684D01*
X443684Y9875080D01*
X406767Y9899747D01*
X365747Y9916738D01*
X322200Y9925400D01*
D02*
G37*
G36*
X287300D02*
X277800D01*
X234253Y9916738D01*
X193233Y9899747D01*
X156316Y9875080D01*
X124920Y9843684D01*
X100253Y9806767D01*
X83262Y9765747D01*
X74600Y9722200D01*
Y9712700D01*
X287300D01*
Y9925400D01*
D02*
G37*
G36*
X2925400Y9687300D02*
X2712700D01*
Y9474600D01*
X2722200D01*
X2765747Y9483262D01*
X2806767Y9500253D01*
X2843684Y9524920D01*
X2875080Y9556316D01*
X2899747Y9593233D01*
X2916738Y9634254D01*
X2925400Y9677800D01*
Y9687300D01*
D02*
G37*
G36*
X2687300D02*
X2474600D01*
Y9677800D01*
X2483262Y9634254D01*
X2500253Y9593233D01*
X2524920Y9556316D01*
X2556316Y9524920D01*
X2593233Y9500253D01*
X2634253Y9483262D01*
X2677800Y9474600D01*
X2687300D01*
Y9687300D01*
D02*
G37*
G36*
X525400Y9687300D02*
X312700D01*
Y9474600D01*
X322200D01*
X365747Y9483262D01*
X406767Y9500253D01*
X443684Y9524920D01*
X475080Y9556316D01*
X499747Y9593233D01*
X516738Y9634253D01*
X525400Y9677800D01*
Y9687300D01*
D02*
G37*
G36*
X287300D02*
X74600D01*
Y9677800D01*
X83262Y9634253D01*
X100253Y9593233D01*
X124920Y9556316D01*
X156316Y9524920D01*
X193233Y9500253D01*
X234253Y9483262D01*
X277800Y9474600D01*
X287300D01*
Y9687300D01*
D02*
G37*
G36*
X2722200Y525400D02*
X2712700D01*
Y312700D01*
X2925400D01*
Y322200D01*
X2916738Y365747D01*
X2899747Y406767D01*
X2875080Y443684D01*
X2843684Y475080D01*
X2806767Y499747D01*
X2765747Y516738D01*
X2722200Y525400D01*
D02*
G37*
G36*
X2687300D02*
X2677800D01*
X2634254Y516738D01*
X2593233Y499747D01*
X2556316Y475080D01*
X2524921Y443684D01*
X2500253Y406767D01*
X2483262Y365747D01*
X2474600Y322200D01*
Y312700D01*
X2687300D01*
Y525400D01*
D02*
G37*
G36*
X322200Y525400D02*
X312700D01*
Y312700D01*
X525400D01*
Y322200D01*
X516738Y365747D01*
X499747Y406767D01*
X475080Y443684D01*
X443684Y475080D01*
X406767Y499747D01*
X365747Y516738D01*
X322200Y525400D01*
D02*
G37*
G36*
X287300D02*
X277800D01*
X234254Y516738D01*
X193233Y499747D01*
X156316Y475080D01*
X124921Y443684D01*
X100253Y406767D01*
X83262Y365747D01*
X74600Y322200D01*
Y312700D01*
X287300D01*
Y525400D01*
D02*
G37*
G36*
X2925400Y287300D02*
X2712700D01*
Y74600D01*
X2722200D01*
X2765747Y83262D01*
X2806767Y100253D01*
X2843684Y124921D01*
X2875080Y156316D01*
X2899747Y193233D01*
X2916738Y234254D01*
X2925400Y277800D01*
Y287300D01*
D02*
G37*
G36*
X2687300D02*
X2474600D01*
Y277800D01*
X2483262Y234254D01*
X2500253Y193233D01*
X2524921Y156316D01*
X2556316Y124921D01*
X2593233Y100253D01*
X2634254Y83262D01*
X2677800Y74600D01*
X2687300D01*
Y287300D01*
D02*
G37*
G36*
X525400Y287300D02*
X312700D01*
Y74600D01*
X322200D01*
X365747Y83262D01*
X406767Y100253D01*
X443684Y124920D01*
X475080Y156316D01*
X499747Y193233D01*
X516738Y234253D01*
X525400Y277800D01*
Y287300D01*
D02*
G37*
G36*
X287300D02*
X74600D01*
Y277800D01*
X83262Y234253D01*
X100253Y193233D01*
X124921Y156316D01*
X156316Y124920D01*
X193233Y100253D01*
X234254Y83262D01*
X277800Y74600D01*
X287300D01*
Y287300D01*
D02*
G37*
%LPD*%
D10*
X9733490Y1561850D02*
D03*
Y2438150D02*
D03*
Y3561850D02*
D03*
Y4438150D02*
D03*
Y5561850D02*
D03*
Y6438150D02*
D03*
X9716980Y7561850D02*
D03*
Y8438150D02*
D03*
X266510D02*
D03*
Y7561850D02*
D03*
Y6438150D02*
D03*
Y5561850D02*
D03*
Y4438150D02*
D03*
Y3561850D02*
D03*
Y2438150D02*
D03*
Y1561850D02*
D03*
D12*
X7283020Y8438150D02*
D03*
Y7561850D02*
D03*
X6483490Y461850D02*
D03*
Y1338150D02*
D03*
X3500000D02*
D03*
Y461850D02*
D03*
X2733490Y7561850D02*
D03*
Y8438150D02*
D03*
D27*
X3465000Y7030000D02*
D03*
Y3820000D02*
D03*
D28*
X3425000Y7325000D02*
D03*
X6525000D02*
D03*
X3425000Y3525000D02*
D03*
X6525000D02*
D03*
D29*
X7325898Y300000D02*
D03*
X9700000Y300000D02*
D03*
X9700000Y9700000D02*
D03*
X7300000Y9700000D02*
D03*
X2700000Y9700000D02*
D03*
X2700000Y300000D02*
D03*
X300000Y300000D02*
D03*
X300000Y9700000D02*
D03*
D30*
X4099999Y2200000D02*
D03*
Y2400000D02*
D03*
Y2600000D02*
D03*
Y2800000D02*
D03*
X4400000Y2200000D02*
D03*
Y2400000D02*
D03*
Y2600000D02*
D03*
Y2800000D02*
D03*
X4700000Y2200000D02*
D03*
Y2400000D02*
D03*
Y2600000D02*
D03*
Y2800000D02*
D03*
X5000000D02*
D03*
Y2600000D02*
D03*
Y2400000D02*
D03*
Y2200000D02*
D03*
X5300000D02*
D03*
Y2400000D02*
D03*
Y2600000D02*
D03*
Y2800000D02*
D03*
D31*
X4099999Y3000000D02*
D03*
X4400000D02*
D03*
X4700000D02*
D03*
X5000000D02*
D03*
X5300000D02*
D03*
D32*
X6200000Y3925000D02*
D03*
X6530000D02*
D03*
X6200000Y6925000D02*
D03*
X6530000D02*
D03*
X3420000Y3925000D02*
D03*
X3750000D02*
D03*
X3420000Y6925000D02*
D03*
X3750000D02*
D03*
D33*
X6200000Y4000000D02*
D03*
X6530000D02*
D03*
X6200000Y4050000D02*
D03*
X6530000D02*
D03*
X6200000Y4100000D02*
D03*
X6530000D02*
D03*
X6200000Y4150000D02*
D03*
X6530000D02*
D03*
X6200000Y4200000D02*
D03*
X6530000D02*
D03*
X6200000Y4250000D02*
D03*
X6530000D02*
D03*
X6200000Y4300000D02*
D03*
X6530000D02*
D03*
X6200000Y4350000D02*
D03*
X6530000D02*
D03*
X6200000Y4400000D02*
D03*
X6530000D02*
D03*
X6200000Y4450000D02*
D03*
X6530000D02*
D03*
X6200000Y4500000D02*
D03*
X6530000D02*
D03*
X6200000Y4550000D02*
D03*
X6530000D02*
D03*
X6200000Y4600000D02*
D03*
X6530000D02*
D03*
X6200000Y4650000D02*
D03*
X6530000D02*
D03*
X6200000Y4700000D02*
D03*
X6530000D02*
D03*
X6200000Y4750000D02*
D03*
X6530000D02*
D03*
X6200000Y4800000D02*
D03*
X6530000D02*
D03*
X6200000Y4850000D02*
D03*
X6530000D02*
D03*
X6200000Y4900000D02*
D03*
X6530000D02*
D03*
X6200000Y4950000D02*
D03*
X6530000D02*
D03*
X6200000Y5000000D02*
D03*
X6530000D02*
D03*
X6200000Y5050000D02*
D03*
X6530000D02*
D03*
X6200000Y5100000D02*
D03*
X6530000D02*
D03*
X6200000Y5150000D02*
D03*
X6530000D02*
D03*
X6200000Y5200000D02*
D03*
X6530000D02*
D03*
X6200000Y5250000D02*
D03*
X6530000D02*
D03*
X6200000Y5300000D02*
D03*
X6530000D02*
D03*
X6200000Y5350000D02*
D03*
X6530000D02*
D03*
X6200000Y5400000D02*
D03*
X6530000D02*
D03*
X6200000Y5450000D02*
D03*
X6530000D02*
D03*
X6200000Y5500000D02*
D03*
X6530000D02*
D03*
X6200000Y5550000D02*
D03*
X6530000D02*
D03*
X6200000Y5600000D02*
D03*
X6530000D02*
D03*
X6200000Y5650000D02*
D03*
X6530000D02*
D03*
X6200000Y5700000D02*
D03*
X6530000D02*
D03*
X6200000Y5750000D02*
D03*
X6530000D02*
D03*
X6200000Y5800000D02*
D03*
X6530000D02*
D03*
X6200000Y5850000D02*
D03*
X6530000D02*
D03*
X6200000Y5900000D02*
D03*
X6530000D02*
D03*
X6200000Y5950000D02*
D03*
X6530000D02*
D03*
X6200000Y6000000D02*
D03*
X6530000D02*
D03*
X6200000Y6050000D02*
D03*
X6530000D02*
D03*
X6200000Y6100000D02*
D03*
X6530000D02*
D03*
X6200000Y6150000D02*
D03*
X6530000D02*
D03*
X6200000Y6200000D02*
D03*
X6530000D02*
D03*
X6200000Y6250000D02*
D03*
X6530000D02*
D03*
X6200000Y6300000D02*
D03*
X6530000D02*
D03*
X6200000Y6350000D02*
D03*
X6530000D02*
D03*
X6200000Y6400000D02*
D03*
X6530000D02*
D03*
X6200000Y6450000D02*
D03*
X6530000D02*
D03*
X6200000Y6500000D02*
D03*
X6530000D02*
D03*
X6200000Y6550000D02*
D03*
X6530000D02*
D03*
X6200000Y6600000D02*
D03*
X6530000D02*
D03*
X6200000Y6650000D02*
D03*
X6530000D02*
D03*
X6200000Y6700000D02*
D03*
X6530000D02*
D03*
X6200000Y6750000D02*
D03*
X6530000D02*
D03*
X6200000Y6800000D02*
D03*
X6530000D02*
D03*
X6200000Y6850000D02*
D03*
X6530000D02*
D03*
X3420000Y4000000D02*
D03*
X3750000D02*
D03*
X3420000Y4050000D02*
D03*
X3750000D02*
D03*
X3420000Y4100000D02*
D03*
X3750000D02*
D03*
X3420000Y4150000D02*
D03*
X3750000D02*
D03*
X3420000Y4200000D02*
D03*
X3750000D02*
D03*
X3420000Y4250000D02*
D03*
X3750000D02*
D03*
X3420000Y4300000D02*
D03*
X3750000D02*
D03*
X3420000Y4350000D02*
D03*
X3750000D02*
D03*
X3420000Y4400000D02*
D03*
X3750000D02*
D03*
X3420000Y4450000D02*
D03*
X3750000D02*
D03*
X3420000Y4500000D02*
D03*
X3750000D02*
D03*
X3420000Y4550000D02*
D03*
X3750000D02*
D03*
X3420000Y4600000D02*
D03*
X3750000D02*
D03*
X3420000Y4650000D02*
D03*
X3750000D02*
D03*
X3420000Y4700000D02*
D03*
X3750000D02*
D03*
X3420000Y4750000D02*
D03*
X3750000D02*
D03*
X3420000Y4800000D02*
D03*
X3750000D02*
D03*
X3420000Y4850000D02*
D03*
X3750000D02*
D03*
X3420000Y4900000D02*
D03*
X3750000D02*
D03*
X3420000Y4950000D02*
D03*
X3750000D02*
D03*
X3420000Y5000000D02*
D03*
X3750000D02*
D03*
X3420000Y5050000D02*
D03*
X3750000D02*
D03*
X3420000Y5100000D02*
D03*
X3750000D02*
D03*
X3420000Y5150000D02*
D03*
X3750000D02*
D03*
X3420000Y5200000D02*
D03*
X3750000D02*
D03*
X3420000Y5250000D02*
D03*
X3750000D02*
D03*
X3420000Y5300000D02*
D03*
X3750000D02*
D03*
X3420000Y5350000D02*
D03*
X3750000D02*
D03*
X3420000Y5400000D02*
D03*
X3750000D02*
D03*
X3420000Y5450000D02*
D03*
X3750000D02*
D03*
X3420000Y5500000D02*
D03*
X3750000D02*
D03*
X3420000Y5550000D02*
D03*
X3750000D02*
D03*
X3420000Y5600000D02*
D03*
X3750000D02*
D03*
X3420000Y5650000D02*
D03*
X3750000D02*
D03*
X3420000Y5700000D02*
D03*
X3750000D02*
D03*
X3420000Y5750000D02*
D03*
X3750000D02*
D03*
X3420000Y5800000D02*
D03*
X3750000D02*
D03*
X3420000Y5850000D02*
D03*
X3750000D02*
D03*
X3420000Y5900000D02*
D03*
X3750000D02*
D03*
X3420000Y5950000D02*
D03*
X3750000D02*
D03*
X3420000Y6000000D02*
D03*
X3750000D02*
D03*
X3420000Y6050000D02*
D03*
X3750000D02*
D03*
X3420000Y6100000D02*
D03*
X3750000D02*
D03*
X3420000Y6150000D02*
D03*
X3750000D02*
D03*
X3420000Y6200000D02*
D03*
X3750000D02*
D03*
X3420000Y6250000D02*
D03*
X3750000D02*
D03*
X3420000Y6300000D02*
D03*
X3750000D02*
D03*
X3420000Y6350000D02*
D03*
X3750000D02*
D03*
X3420000Y6400000D02*
D03*
X3750000D02*
D03*
X3420000Y6450000D02*
D03*
X3750000D02*
D03*
X3420000Y6500000D02*
D03*
X3750000D02*
D03*
X3420000Y6550000D02*
D03*
X3750000D02*
D03*
X3420000Y6600000D02*
D03*
X3750000D02*
D03*
X3420000Y6650000D02*
D03*
X3750000D02*
D03*
X3420000Y6700000D02*
D03*
X3750000D02*
D03*
X3420000Y6750000D02*
D03*
X3750000D02*
D03*
X3420000Y6800000D02*
D03*
X3750000D02*
D03*
X3420000Y6850000D02*
D03*
X3750000D02*
D03*
D34*
X5295000Y5925000D02*
D03*
Y5875000D02*
D03*
Y5825000D02*
D03*
Y5775000D02*
D03*
Y5725000D02*
D03*
Y5675000D02*
D03*
Y5625000D02*
D03*
Y5575000D02*
D03*
Y5525000D02*
D03*
Y5475000D02*
D03*
Y5425000D02*
D03*
Y5375000D02*
D03*
X4605000D02*
D03*
Y5425000D02*
D03*
Y5475000D02*
D03*
Y5525000D02*
D03*
Y5575000D02*
D03*
Y5625000D02*
D03*
Y5675000D02*
D03*
Y5725000D02*
D03*
Y5775000D02*
D03*
Y5825000D02*
D03*
Y5875000D02*
D03*
Y5925000D02*
D03*
D35*
X5225000Y5305000D02*
D03*
X5175000D02*
D03*
X5125000D02*
D03*
X5075000D02*
D03*
X5025000D02*
D03*
X4975000D02*
D03*
X4925000D02*
D03*
X4875000D02*
D03*
X4825000D02*
D03*
X4775000D02*
D03*
X4725000D02*
D03*
X4675000D02*
D03*
Y5995000D02*
D03*
X4725000D02*
D03*
X4775000D02*
D03*
X4825000D02*
D03*
X4875000D02*
D03*
X4925000D02*
D03*
X4975000D02*
D03*
X5025000D02*
D03*
X5075000D02*
D03*
X5125000D02*
D03*
X5175000D02*
D03*
X5225000D02*
D03*
D36*
X4950000Y5650000D02*
D03*
D37*
X6000002Y8100000D02*
D03*
X6000003Y7500000D02*
D03*
X6000002Y7800000D02*
D03*
X4000003Y7500000D02*
D03*
X4000002Y8100000D02*
D03*
X5000001Y8400000D02*
D03*
X4000001D02*
D03*
X5000000Y8700000D02*
D03*
X4000000D02*
D03*
X5000000Y9000000D02*
D03*
X4000000D02*
D03*
X3999989Y7799995D02*
D03*
D38*
X4000004Y7500000D02*
X6000005D01*
X4000000Y8400000D02*
X5000000D01*
D39*
X4000003Y7800000D02*
X6000003D01*
X4000000Y8700000D02*
X5000000D01*
D40*
X4000002Y8100000D02*
X6000002D01*
X4000000Y9000000D02*
X5000000D01*
%TF.MD5,c7999689b697cc0c3d944272a27fddb9*%
M02*
